<?xml version="1.0" encoding="utf-8"?>
<!-- Generator: Adobe Illustrator 19.0.0, SVG Export Plug-In . SVG Version: 6.00 Build 0)  -->
<svg version="1.1" id="Layer_1" xmlns="http://www.w3.org/2000/svg" xmlns:xlink="http://www.w3.org/1999/xlink" x="0px" y="0px"
	 width="65px" height="35px" viewBox="6 -3 65 35" style="enable-background:new 6 -3 65 35;" xml:space="preserve">
<style type="text/css">
	.st0{fill:none;}
	.st1{fill:#026937;}
</style>
<g>
	
		<ellipse transform="matrix(-0.9996 -2.710089e-02 2.710089e-02 -0.9996 108.6066 5.8997)" class="st0" cx="54.3" cy="2.2" rx="2.6" ry="2.6"/>
	<path class="st1" d="M54.1,11.6c2.2-2.7,5.3-6,5.2-9.2c0.1-2.8-2.1-5.2-4.9-5.2c-2.8-0.1-5.1,2.1-5.1,5c0,0.3,0,0.6,0,0.8
		C49.8,6.1,52.3,9.2,54.1,11.6z M54.4-0.4c1.4,0,2.6,1.2,2.5,2.7c0,1.5-1.2,2.6-2.7,2.6s-2.6-1.3-2.5-2.7C51.8,0.7,53-0.5,54.4-0.4z
		"/>
	<path class="st1" d="M39.6,10.8c-0.3-6.2-5.4-11-11.5-10.7c-6.1,0.3-10.8,5.5-10.5,11.6c0,0.6,0.1,1.3,0.2,1.9
		c1.3,6.8,7.4,13.2,11.7,18.3C34,25.5,40.2,17.9,39.6,10.8z M29,18.9c-4.1,0.2-7.6-3.1-7.8-7.3c-0.2-4.2,3-7.8,7.2-7.9
		S36,6.8,36.1,11C36.3,15.2,33.1,18.8,29,18.9z"/>
	<path class="st1" d="M54.3,14c-0.5,0.1-0.9,0.6-0.9,1.1c0.1,0.5,0.5,0.9,1,0.9c0,0,0.1,0,0.1,0c0.6-0.1,1-0.6,0.9-1.1
		C55.4,14.3,54.9,14,54.3,14z"/>
	<path class="st1" d="M55.9,17.1c-0.3,0.4-0.2,1.1,0.2,1.4c0.2,0.1,0.4,0.2,0.6,0.2c0.3,0,0.6-0.1,0.8-0.4c0.3-0.4,0.2-1.1-0.2-1.4
		C56.9,16.5,56.2,16.6,55.9,17.1z"/>
	<path class="st1" d="M51.9,25.2c-0.5,0.2-0.8,0.7-0.7,1.3c0.1,0.4,0.5,0.7,1,0.7c0.1,0,0.2,0,0.3,0c0.5-0.2,0.8-0.7,0.7-1.3
		C52.9,25.3,52.4,25,51.9,25.2z"/>
	<path class="st1" d="M56,25.3c0.2,0,0.4-0.1,0.6-0.2c0.5-0.3,0.6-0.9,0.2-1.4c-0.3-0.5-0.9-0.6-1.4-0.2c-0.5,0.3-0.5,0.9-0.2,1.4
		C55.3,25.2,55.6,25.3,56,25.3z"/>
	<path class="st1" d="M58,22c0.2,0,0.4-0.1,0.6-0.2c0.5-0.3,0.6-0.9,0.2-1.4c-0.3-0.5-0.9-0.6-1.4-0.2c-0.5,0.3-0.5,0.9-0.2,1.4
		C57.3,21.8,57.7,22,58,22z"/>
	<path class="st1" d="M48,28c0,0,0.1,0,0.1,0c0.5-0.1,0.9-0.6,0.9-1.1c-0.1-0.6-0.6-0.9-1.1-0.9c-0.5,0.1-0.9,0.6-0.9,1.1
		C47.1,27.7,47.5,28,48,28z"/>
	<path class="st1" d="M40.5,27.8c-0.1-0.5-0.6-0.9-1.2-0.8c-0.5,0.1-0.9,0.6-0.8,1.2c0.1,0.5,0.5,0.8,1,0.8c0.1,0,0.1,0,0.2,0
		C40.3,28.9,40.6,28.4,40.5,27.8z"/>
	<path class="st1" d="M35.5,30.3c0.1,0,0.3,0,0.4-0.1c0.5-0.2,0.7-0.8,0.5-1.3c-0.2-0.5-0.8-0.7-1.3-0.5c-0.5,0.2-0.7,0.8-0.5,1.3
		C34.7,30,35.1,30.3,35.5,30.3z"/>
	<path class="st1" d="M42.8,27.6c0,0.5,0.5,0.9,1,0.9c0,0,0.1,0,0.1,0c0.6-0.1,1-0.5,0.9-1.1c-0.1-0.6-0.5-1-1.1-0.9
		C43.1,26.5,42.7,27,42.8,27.6z"/>
</g>
</svg>
