<?xml version="1.0" encoding="iso-8859-1"?>
<!-- Generator: Adobe Illustrator 18.0.0, SVG Export Plug-In . SVG Version: 6.00 Build 0)  -->
<!DOCTYPE svg PUBLIC "-//W3C//DTD SVG 1.1//EN" "http://www.w3.org/Graphics/SVG/1.1/DTD/svg11.dtd">
<svg version="1.1" id="Layer_1" xmlns="http://www.w3.org/2000/svg" xmlns:xlink="http://www.w3.org/1999/xlink" x="0px" y="0px"
	 viewBox="0 0 18 18" style="enable-background:new 0 0 18 18;" xml:space="preserve">
<g>
	<g>
		<g>
			<path style="fill:#FFFFFF;" d="M9,18c-4.963,0-9-4.037-9-9c0-4.963,4.038-9,9-9s9,4.038,9,9C18,13.963,13.963,18,9,18z M9,0.582
				C4.358,0.582,0.582,4.359,0.582,9S4.358,17.418,9,17.418c4.641,0,8.418-3.776,8.418-8.418S13.642,0.582,9,0.582z"/>
		</g>
	</g>
	<g>
		<path style="fill:#FFFFFF;" d="M6.62,13.929c-0.051,0-0.101-0.013-0.146-0.039c-0.09-0.052-0.145-0.148-0.145-0.252V4.383
			c0-0.106,0.058-0.204,0.151-0.255c0.093-0.051,0.207-0.047,0.297,0.01l7.679,4.905c0.086,0.055,0.137,0.151,0.134,0.253
			c-0.003,0.102-0.059,0.195-0.147,0.245l-7.679,4.351C6.719,13.917,6.669,13.929,6.62,13.929z M6.911,4.914v8.224l6.823-3.866
			L6.911,4.914z"/>
	</g>
</g>
</svg>
