<?xml version="1.0" encoding="utf-8"?>
<!-- Generator: Adobe Illustrator 19.0.0, SVG Export Plug-In . SVG Version: 6.00 Build 0)  -->
<svg version="1.1" id="Layer_1" xmlns="http://www.w3.org/2000/svg" xmlns:xlink="http://www.w3.org/1999/xlink" x="0px" y="0px"
	 width="65px" height="35px" viewBox="0 0 65 35" style="enable-background:new 0 0 65 35;" xml:space="preserve">
<style type="text/css">
	.st0{fill:#026937;}
</style>
<g>
	<g>
		<path id="XMLID_4_" class="st0" d="M27.99,2.96c0.03,0.1,0.06,0.2,0.1,0.29c0.02,0.06,0.06,0.1,0.09,0.16
			c0.04,0.08,0.08,0.15,0.13,0.22c0.04,0.05,0.09,0.1,0.13,0.15c0.05,0.06,0.1,0.12,0.16,0.18c0.05,0.05,0.11,0.08,0.16,0.12
			c0.06,0.05,0.12,0.1,0.19,0.14c0.06,0.04,0.12,0.06,0.18,0.1c0.07,0.04,0.14,0.07,0.21,0.1c0.07,0.03,0.14,0.04,0.2,0.06
			c0.08,0.02,0.15,0.05,0.23,0.06c0.07,0.01,0.15,0.02,0.22,0.02c0.07,0.01,0.13,0.02,0.2,0.02c0.03,0,0.05,0,0.08,0
			c0.01,0,0.01,0,0.01,0c0.15-0.01,0.3-0.03,0.45-0.06c0.05-0.01,0.09-0.03,0.13-0.05c0.1-0.03,0.2-0.06,0.29-0.1
			c0.05-0.02,0.09-0.05,0.14-0.08c0.08-0.05,0.17-0.09,0.24-0.14c0.04-0.03,0.08-0.07,0.13-0.11c0.07-0.06,0.14-0.11,0.2-0.18
			c0.04-0.04,0.07-0.09,0.11-0.14c0.06-0.07,0.11-0.13,0.16-0.21c0.03-0.05,0.06-0.11,0.09-0.16c0.04-0.08,0.08-0.15,0.11-0.23
			c0.02-0.06,0.04-0.12,0.06-0.18c0.02-0.08,0.05-0.16,0.07-0.24c0.01-0.07,0.01-0.14,0.02-0.21c0.01-0.07,0.02-0.14,0.02-0.21
			c0-0.03,0-0.05,0-0.08v0c0-0.04-0.01-0.08-0.02-0.13c-0.01-0.11-0.02-0.22-0.05-0.33c-0.02-0.07-0.05-0.14-0.07-0.21
			c-0.02-0.07-0.04-0.14-0.07-0.21c-0.03-0.07-0.08-0.13-0.12-0.2c-0.04-0.06-0.07-0.12-0.11-0.18c-0.05-0.06-0.1-0.12-0.15-0.18
			c-0.04-0.05-0.09-0.1-0.13-0.15c-0.06-0.05-0.12-0.1-0.18-0.14c-0.06-0.04-0.11-0.09-0.16-0.12c-0.06-0.04-0.13-0.07-0.2-0.11
			c-0.06-0.03-0.12-0.07-0.19-0.09c-0.07-0.03-0.14-0.05-0.22-0.07c-0.07-0.02-0.14-0.05-0.21-0.06c-0.07-0.01-0.15-0.02-0.23-0.02
			c-0.07-0.01-0.13-0.02-0.2-0.02h-0.08C29.95,0,29.8,0.02,29.65,0.06c-0.05,0.01-0.09,0.03-0.13,0.05c-0.1,0.03-0.2,0.06-0.29,0.1
			c-0.05,0.02-0.1,0.06-0.14,0.08C29,0.33,28.92,0.37,28.85,0.43c-0.05,0.03-0.09,0.08-0.13,0.12c-0.07,0.06-0.14,0.11-0.19,0.17
			c-0.04,0.05-0.08,0.1-0.12,0.14c-0.05,0.07-0.11,0.13-0.15,0.2c-0.04,0.05-0.06,0.11-0.09,0.17c-0.04,0.07-0.08,0.14-0.11,0.22
			c-0.03,0.06-0.04,0.13-0.06,0.2c-0.02,0.08-0.05,0.15-0.06,0.23c-0.01,0.07-0.01,0.14-0.02,0.21c-0.01,0.07-0.02,0.13-0.02,0.2
			v0.08c0.01,0.16,0.03,0.31,0.06,0.46C27.96,2.87,27.98,2.91,27.99,2.96"/>
	</g>
	<polygon id="XMLID_3_" class="st0" points="24.56,14.4 26.4,5.54 22.92,5.95 22.28,9.06 21.28,13.88 22,13.99 	"/>
	<g>
		<path class="st0" d="M32.2,28.8l-2.25,3.56l-3.98-0.15l-0.07,0.02l2.11-13.35l3.27,4.24l0.78,2.15l1.24,3.41
			c0.01,0.03,0.03,0.05,0.04,0.08L32.2,28.8z M51.36,26.34L51.36,26.34c0-0.01,0-0.01,0-0.01c-0.02-0.08-0.06-0.15-0.11-0.21
			c-0.02-0.02-0.03-0.03-0.05-0.05c-0.04-0.04-0.08-0.07-0.12-0.1c-0.02-0.02-0.05-0.03-0.07-0.04c-0.05-0.02-0.09-0.03-0.14-0.04
			c-0.03-0.01-0.06-0.01-0.09-0.02c-0.01,0-0.03-0.01-0.04-0.01c-0.06,0-0.12,0.01-0.18,0.03h0l-1.28,0.36l-1.97,0.56l-0.04,0.02
			c0,0-0.03,0.02-0.07,0.03c-0.16,0.08-0.62,0.28-1.16,0.52c-0.14,0.06-0.28,0.12-0.42,0.18c-0.08,0.03-0.15,0.07-0.23,0.1
			c-0.35,0.15-0.7,0.3-0.99,0.41c-0.18,0.07-0.33,0.13-0.45,0.17c-0.01,0.01-0.02,0.01-0.03,0.01c-0.04,0.02-0.08,0.03-0.1,0.03
			l-0.02,0.01c-0.38,0.04-1.41,0.13-1.6,0.15c-0.02,0-0.04,0-0.04,0l-1.35,0.15h-1.92V14.28c0.14,0.01,0.31,0.02,0.42,0.01
			c0.08,0,0.16-0.04,0.22-0.09c0.12-0.09,0.21-0.24,0.28-0.39c0.05-0.11,0.09-0.23,0.11-0.34c0.01-0.04,0.01-0.07,0.01-0.11
			c0.01-0.07,0.03-0.14,0.03-0.21c0-0.02,0-0.03,0-0.05c-0.01-0.23-0.26-0.74-0.56-0.96c0,0,0,0,0,0c-0.06-0.04-0.12-0.07-0.19-0.1
			c-0.02-0.01-0.03-0.01-0.04-0.02c-0.07-0.02-0.14-0.04-0.21-0.05c-0.02,0-0.04-0.01-0.06-0.01c-0.01,0-0.01,0-0.02,0v-1.32
			c0-0.15-0.11-0.27-0.24-0.27c-0.13,0-0.24,0.12-0.24,0.27v1.27l-2.69-0.45l-1.46-0.25c0,0-1.27-3.1-1.74-4.22
			c-0.09-0.2-0.15-0.35-0.17-0.4c-0.13-0.28-0.13-0.46-0.49-0.68L29,5.57l-1.38-0.18h0c0,0-0.73,4.06-1.64,9.05l4.26,0.76l0.55-2.47
			l0.6-2.68l1.27,3.14l5.71,1.03v14.36h-0.76l-1.45,0.06c0-0.02,0.01-0.04,0.01-0.05c0.03-0.11,0.04-0.21,0.04-0.32
			c0-0.01,0-0.01,0-0.02c0-0.04-0.01-0.08-0.01-0.12c0-0.03,0-0.05-0.01-0.08c-0.01-0.06-0.02-0.12-0.04-0.18
			c-0.01-0.02-0.01-0.03-0.01-0.05l-2.41-6.12l-3.8-5.23h0l-4.17-0.76l-2.88,16.52c0,0.04,0,0.07,0,0.11c0,0.09,0.01,0.17,0.02,0.27
			c0,0,0,0.01,0,0.01c0,0,0,0.01,0,0.01c0.02,0.09,0.05,0.18,0.08,0.26c0.01,0.03,0.03,0.06,0.04,0.09
			c0.01,0.03,0.02,0.05,0.04,0.08l-0.29,0.09h-1.97l-0.91,0.08l-0.79,0.07l-1.14,0.13l-1.45,0.16l-2.3,0.12
			c-0.01,0-0.01,0-0.02,0.01c-0.08,0.01-0.16,0.02-0.23,0.06c-0.03,0.01-0.05,0.03-0.07,0.05c-0.04,0.03-0.09,0.06-0.13,0.1
			c-0.02,0.02-0.03,0.05-0.05,0.08c-0.03,0.04-0.06,0.08-0.08,0.13c-0.01,0.03-0.01,0.07-0.02,0.1c-0.01,0.04-0.02,0.08-0.02,0.13v0
			c0,0.01,0,0.02,0,0.03c0,0,0,0,0,0c0.02,0.35,0.31,0.62,0.65,0.62h0.04v0l2.35-0.12l0.05-0.01l2.56-0.29l1.62-0.15l2.09,0
			l0.13-0.04l3.03-0.88l4.38,0.17l0.14,0.01l1.11-1.76l1.18-1.86l4.71-0.19h0.73v0.27c0,0.15,0.11,0.27,0.24,0.27
			c0.13,0,0.24-0.12,0.24-0.27v-0.27h1.99l1.3-0.14l0.11-0.01c0,0,1.22-0.1,1.68-0.15c0.1-0.02,0.19-0.04,0.28-0.07
			c0.19-0.06,0.37-0.13,0.64-0.23c0.77-0.3,1.86-0.79,2.47-1.06c0.2-0.09,0.35-0.15,0.42-0.19l3.15-0.89
			c0.08-0.02,0.15-0.06,0.21-0.11c0.02-0.02,0.04-0.04,0.05-0.05c0.04-0.04,0.07-0.08,0.1-0.12c0.02-0.02,0.03-0.05,0.04-0.07
			c0.02-0.05,0.04-0.09,0.05-0.14c0.01-0.03,0.01-0.05,0.01-0.08c0-0.02,0.01-0.03,0.01-0.05C51.38,26.45,51.38,26.4,51.36,26.34"/>
	</g>
</g>
</svg>
