<svg xmlns="http://www.w3.org/2000/svg" width="30" height="30" viewBox="0 0 30 30">

	<path d="M12.93,21.2c0,0.86-0.69,1.55-1.55,1.55c-0.86,0-1.55-0.69-1.55-1.55s0.69-1.55,1.55-1.55C12.24,19.65,12.93,20.35,12.93,21.2z"/>
	<path d="M23.27,21.2c0,0.86-0.69,1.55-1.55,1.55s-1.55-0.69-1.55-1.55s0.69-1.55,1.55-1.55S23.27,20.35,23.27,21.2z"/>
	<path d="M21.77,16.27v-5.08H11.62c0-0.47-0.38-0.85-0.85-0.85H8.23v0.85h1.69l0.64,5.45c-0.39,0.31-0.64,0.79-0.64,1.32c0,0.93,0.76,1.69,1.69,1.69h10.15v-0.85H11.62c-0.47,0-0.85-0.38-0.85-0.85c0,0,0-0.01,0-0.01C10.77,17.95,21.77,16.27,21.77,16.27z"/>

</svg>
