<?xml version="1.0" encoding="iso-8859-1"?>
<!-- Generator: Adobe Illustrator 18.0.0, SVG Export Plug-In . SVG Version: 6.00 Build 0)  -->
<!DOCTYPE svg PUBLIC "-//W3C//DTD SVG 1.1//EN" "http://www.w3.org/Graphics/SVG/1.1/DTD/svg11.dtd">
<svg version="1.1" id="Layer_1" xmlns="http://www.w3.org/2000/svg" xmlns:xlink="http://www.w3.org/1999/xlink" x="0px" y="0px"
	 viewBox="0 0 24.206 34.735" style="enable-background:new 0 0 24.206 34.735;" xml:space="preserve">
<g>
	<g>
		<path style="fill:#026937;" d="M20.95,12.319c0,4.986-3.969,9.028-8.864,9.028s-8.864-4.042-8.864-9.028
			c0-4.985,3.969-9.027,8.864-9.027S20.95,7.335,20.95,12.319 M24.194,12.315c0-6.805-5.416-12.32-12.097-12.32S0,5.51,0,12.315
			c0,0.699,0.06,1.383,0.17,2.049c1.107,7.588,7.479,14.888,12.037,20.63C17.307,28.205,24.535,20.08,24.194,12.315"/>
		<path style="fill:#026937;" d="M8.057,8.114c1.291-1.292,3.392-1.292,4.684,0c1.291,1.291,1.291,3.393,0,4.684
			c-1.292,1.291-3.393,1.291-4.684,0C6.766,11.506,6.766,9.405,8.057,8.114 M6.96,13.895c1.723,1.723,4.429,1.88,6.33,0.47
			l1.49,1.491l1.019-1.019l-1.489-1.49c1.407-1.902,1.25-4.606-0.472-6.33c-1.896-1.896-4.983-1.896-6.878,0
			C5.063,8.913,5.063,11.999,6.96,13.895"/>
	</g>
	
		<rect x="16.197" y="15.788" transform="matrix(-0.7071 0.7071 -0.7071 -0.7071 40.9137 17.0293)" style="fill:#026937;" width="1.466" height="2.401"/>
</g>
</svg>
