<?xml version="1.0" encoding="utf-8"?>
<!-- Generator: Adobe Illustrator 19.0.0, SVG Export Plug-In . SVG Version: 6.00 Build 0)  -->
<svg version="1.1" id="Layer_1" xmlns="http://www.w3.org/2000/svg" xmlns:xlink="http://www.w3.org/1999/xlink" x="0px" y="0px"
	 width="65px" height="35px" viewBox="0 0 65 35" style="enable-background:new 0 0 65 35;" xml:space="preserve">
<style type="text/css">
	.st0{fill:none;}
	.st1{fill:#184736;}
</style>
<g id="XMLID_23_">
	<path id="XMLID_21_" class="st0" d="M30.71,18.14c-0.39-0.42-1.05-0.44-1.47-0.05c-0.42,0.39-0.44,1.05-0.05,1.47l0.37,0.39
		c0.2,0.21,0.48,0.32,0.75,0.32c0.26,0,0.52-0.1,0.73-0.29c0.41-0.4,0.42-1.06,0.02-1.47L30.71,18.14z"/>
	<path id="XMLID_20_" class="st0" d="M39.19,25.99c0.18,0.05,0.37,0.09,0.54,0.13c0.08,0.02,0.16,0.03,0.23,0.03
		c0.48,0,0.91-0.33,1.02-0.81c0.13-0.56-0.22-1.12-0.78-1.25c-0.15-0.04-0.31-0.07-0.47-0.11c-0.56-0.15-1.13,0.18-1.28,0.74
		C38.3,25.27,38.63,25.84,39.19,25.99z"/>
	<path id="XMLID_19_" class="st0" d="M24.35,19.3c0.01,0,0.02,0,0.04,0l0.5-0.01c0.57-0.01,1.03-0.49,1.02-1.06
		c-0.01-0.58-0.49-1.02-1.06-1.02l-0.54,0.01c-0.58,0.02-1.03,0.5-1.01,1.08C23.33,18.86,23.79,19.3,24.35,19.3z"/>
	<path id="XMLID_43_" class="st0" d="M13.39,5.74c-0.25,0.13-0.53,0.22-0.84,0.22c-0.31,0-0.59-0.08-0.84-0.22
		c-4.64,0.42-8.29,4.33-8.29,9.07c0,5.03,4.09,9.12,9.11,9.12c5.03,0,9.12-4.09,9.12-9.12C21.65,10.08,18.01,6.17,13.39,5.74z
		 M13.06,15.91v1.36c0,0.28-0.23,0.51-0.51,0.51c-0.28,0-0.51-0.23-0.51-0.51v-1.34c-0.43-0.19-0.73-0.62-0.73-1.12
		c0-0.5,0.3-0.93,0.73-1.12V7.33c0-0.28,0.23-0.51,0.51-0.51c0.28,0,0.51,0.23,0.51,0.51v6.38c0.41,0.2,0.7,0.61,0.7,1.1
		S13.47,15.71,13.06,15.91z"/>
	<path id="XMLID_16_" class="st0" d="M35.28,21.99c-0.14-0.09-0.28-0.18-0.42-0.27c-0.48-0.32-1.13-0.19-1.45,0.29
		c-0.32,0.48-0.19,1.13,0.29,1.45c0.15,0.1,0.31,0.2,0.46,0.3c0.17,0.11,0.37,0.16,0.56,0.16c0.34,0,0.68-0.17,0.88-0.48
		C35.91,22.94,35.76,22.29,35.28,21.99z"/>
	<path id="XMLID_15_" class="st0" d="M45.64,24.23l-0.13,0c-0.11,0-0.22,0-0.34-0.01c-0.6-0.06-1.06,0.43-1.08,1.01
		c-0.02,0.57,0.43,1.06,1.01,1.07c0.14,0.01,0.27,0.01,0.41,0.01l0.17,0c0.58-0.01,1.03-0.49,1.02-1.06
		C46.69,24.67,46.22,24.25,45.64,24.23z"/>
	<path id="XMLID_14_" class="st0" d="M50.6,22.85c-0.14,0.08-0.27,0.15-0.41,0.22c-0.51,0.26-0.72,0.89-0.46,1.4
		c0.18,0.36,0.55,0.57,0.93,0.57c0.16,0,0.32-0.04,0.47-0.11c0.17-0.09,0.33-0.18,0.5-0.27c0.5-0.28,0.68-0.92,0.39-1.42
		C51.74,22.74,51.1,22.57,50.6,22.85z"/>
	<path id="XMLID_13_" class="st0" d="M56.17,19.31c-0.43-0.38-1.09-0.34-1.47,0.09c-0.11,0.12-0.22,0.25-0.33,0.37
		c-0.39,0.42-0.37,1.08,0.05,1.47c0.2,0.19,0.45,0.28,0.71,0.28c0.28,0,0.56-0.11,0.76-0.33c0.12-0.13,0.25-0.27,0.37-0.41
		C56.65,20.35,56.61,19.69,56.17,19.31z"/>
	<path id="XMLID_34_" class="st1" d="M49.42,10.27l-11.18,4.17L45.83,35l17.81-10.17L49.42,10.27z M45.68,26.31l-0.17,0
		c-0.13,0-0.27,0-0.41-0.01c-0.58-0.02-1.03-0.5-1.01-1.07c0.02-0.58,0.48-1.07,1.08-1.01c0.11,0,0.23,0.01,0.34,0.01l0.13,0
		c0.58,0.03,1.05,0.45,1.06,1.02C46.71,25.82,46.26,26.3,45.68,26.31z M51.63,24.67c-0.16,0.09-0.33,0.18-0.5,0.27
		c-0.15,0.08-0.31,0.11-0.47,0.11c-0.38,0-0.75-0.21-0.93-0.57c-0.26-0.51-0.06-1.14,0.46-1.4c0.14-0.07,0.28-0.15,0.41-0.22
		c0.5-0.28,1.14-0.11,1.42,0.39C52.3,23.74,52.13,24.38,51.63,24.67z M55.9,21.19c-0.21,0.22-0.48,0.33-0.76,0.33
		c-0.25,0-0.51-0.09-0.71-0.28c-0.42-0.39-0.45-1.05-0.05-1.47c0.11-0.12,0.22-0.24,0.33-0.37c0.38-0.43,1.04-0.48,1.47-0.09
		c0.43,0.38,0.47,1.04,0.09,1.47C56.15,20.92,56.03,21.06,55.9,21.19z"/>
	<path id="XMLID_29_" class="st1" d="M28.82,11.26v15.96l15.82,7.52l-7.47-20.21L28.82,11.26z M31.03,19.98
		c-0.2,0.2-0.46,0.29-0.73,0.29c-0.27,0-0.54-0.11-0.75-0.32l-0.37-0.39c-0.39-0.42-0.37-1.08,0.05-1.47
		c0.42-0.39,1.08-0.37,1.47,0.05l0.35,0.36C31.46,18.92,31.45,19.58,31.03,19.98z M35.6,23.42c-0.2,0.31-0.54,0.48-0.88,0.48
		c-0.19,0-0.38-0.05-0.56-0.16c-0.15-0.1-0.3-0.2-0.46-0.3c-0.48-0.32-0.61-0.97-0.29-1.45c0.32-0.48,0.96-0.61,1.45-0.29
		c0.14,0.09,0.28,0.18,0.42,0.27C35.76,22.29,35.91,22.94,35.6,23.42z M38.45,24.71c0.15-0.56,0.72-0.89,1.28-0.74
		c0.16,0.04,0.32,0.08,0.47,0.11c0.56,0.13,0.91,0.69,0.78,1.25c-0.11,0.48-0.54,0.81-1.02,0.81c-0.08,0-0.15-0.01-0.23-0.03
		c-0.18-0.04-0.36-0.08-0.54-0.13C38.63,25.84,38.3,25.27,38.45,24.71z"/>
	<path id="XMLID_25_" class="st1" d="M23.44,12.41c-0.42-1.89-1.31-3.59-2.55-4.99l0.04-0.04l0.51,0.51c0.3,0.3,0.7,0.45,1.09,0.45
		c0.39,0,0.79-0.15,1.09-0.45c0.6-0.6,0.6-1.58,0-2.18l-1.68-1.68c-0.6-0.6-1.58-0.6-2.18,0c-0.6,0.6-0.6,1.58,0,2.18l0.44,0.44
		l-0.03,0.03c-1.58-1.48-3.59-2.51-5.82-2.88v-2c0-0.99-0.81-1.8-1.8-1.8c-0.99,0-1.8,0.81-1.8,1.8v2
		C5.43,4.66,1.36,9.26,1.36,14.81c0,5.93,4.64,10.78,10.48,11.14c0.18,0.01,0.36,0.02,0.54,0.03l-3.21,8.85l18.63-7.63V11.26
		l-4.26,1.66C23.5,12.75,23.47,12.57,23.44,12.41z M12.53,23.93c-5.03,0-9.11-4.09-9.11-9.12c0-4.75,3.65-8.65,8.29-9.07
		c0.25,0.13,0.54,0.22,0.84,0.22c0.31,0,0.59-0.08,0.84-0.22c4.63,0.43,8.26,4.33,8.26,9.07C21.65,19.84,17.56,23.93,12.53,23.93z
		 M24.32,17.22l0.54-0.01c0.57,0,1.05,0.45,1.06,1.02c0.01,0.57-0.45,1.05-1.02,1.06l-0.5,0.01c-0.01,0-0.02,0-0.04,0
		c-0.56,0-1.02-0.44-1.04-1.01C23.29,17.72,23.74,17.24,24.32,17.22z"/>
	<path id="XMLID_1_" class="st1" d="M13.06,13.71V7.33c0-0.28-0.23-0.51-0.51-0.51c-0.28,0-0.51,0.23-0.51,0.51v6.36
		c-0.43,0.19-0.73,0.62-0.73,1.12c0,0.5,0.3,0.93,0.73,1.12v1.34c0,0.28,0.23,0.51,0.51,0.51c0.28,0,0.51-0.23,0.51-0.51v-1.36
		c0.41-0.2,0.7-0.61,0.7-1.1S13.47,13.91,13.06,13.71z"/>
</g>
</svg>
