<?xml version="1.0" encoding="utf-8"?>
<!-- Generator: Adobe Illustrator 19.0.0, SVG Export Plug-In . SVG Version: 6.00 Build 0)  -->
<svg version="1.1" id="Layer_1" xmlns="http://www.w3.org/2000/svg" xmlns:xlink="http://www.w3.org/1999/xlink" x="0px" y="0px"
	 width="65px" height="35px" viewBox="0 0 65 35" style="enable-background:new 0 0 65 35;" xml:space="preserve">
<style type="text/css">
	.st0{fill:#184736;}
</style>
<g>
	<path class="st0" d="M32.5,34.99H15.9c-0.16,0-0.32,0.01-0.48,0c-0.3-0.02-0.41-0.12-0.42-0.42c-0.01-0.3,0-0.6,0-0.9
		c0-9.65,0-19.3,0-28.95c0-0.52,0.01-0.54,0.53-0.53c1.37,0.01,2.75,0.03,4.12,0.05c0.35,0,0.36,0.02,0.37,0.37
		c0.01,0.32,0,0.63,0.01,0.95c0.06,1.54,0.84,2.65,2.2,3.29c0.85,0.4,1.79,0.39,2.73,0.1c1.03-0.32,1.72-0.99,2.19-1.9
		c0.31-0.61,0.39-1.3,0.39-1.99c0.01-0.83,0.01-0.83,0.82-0.83h8.46c0.1,0,0.2,0,0.3,0c0.35,0.01,0.38,0.04,0.39,0.41
		c0.01,0.39-0.01,0.77,0.03,1.16c0.16,1.53,0.97,2.59,2.44,3.12c0.82,0.3,1.65,0.26,2.48,0.02c1.08-0.32,1.76-1.07,2.22-2.03
		c0.18-0.38,0.2-0.85,0.26-1.29c0.04-0.34,0.02-0.69,0.02-1.03c0-0.24,0.09-0.37,0.36-0.37c1.43,0.01,2.86,0.01,4.29,0
		c0.23,0,0.29,0.08,0.29,0.31c0.02,1.45,0.08,2.9,0.08,4.34C49.99,17.28,50,25.69,50,34.09c0,0.14,0,0.29,0,0.43
		c-0.01,0.38-0.1,0.47-0.5,0.47c-0.25,0-0.49,0-0.74,0L32.5,34.99L32.5,34.99z M32.49,32.62L32.49,32.62l14.44,0
		c0.51,0,0.52,0,0.52-0.48c0-6.26,0-12.51,0-18.77c0-0.5-0.02-0.51-0.51-0.51c-3.76,0-7.52,0-11.27,0c-5.85,0-11.71,0-17.56,0
		c-0.55,0-0.55,0-0.55,0.55v0.26v17.91c0,0.23,0,0.46,0,0.69c0.01,0.35,0.01,0.35,0.36,0.36c0.1,0,0.2,0,0.3,0H32.49z"/>
	<path id="XMLID_13_" class="st0" d="M21.23,3.85c0.03-0.57,0.04-1.14,0.08-1.71c0.08-0.95,0.62-1.63,1.49-1.96
		c1.37-0.51,2.66,0.06,3.23,1.4c0.17,0.4,0.16,0.89,0.19,1.35c0.03,0.57,0.03,1.14,0,1.72c-0.02,0.38-0.05,0.78-0.17,1.13
		c-0.23,0.67-0.69,1.16-1.36,1.43c-0.92,0.38-1.78,0.25-2.54-0.37c-0.45-0.37-0.77-0.84-0.82-1.44C21.28,4.88,21.26,4.37,21.23,3.85
		"/>
	<path id="XMLID_12_" class="st0" d="M43.62,3.72c0,0.47-0.01,0.94,0,1.42c0.02,1.65-2.02,2.88-3.6,1.98
		c-0.85-0.49-1.26-1.21-1.28-2.15c-0.02-0.86-0.03-1.72,0-2.57c0.04-1.04,0.56-1.83,1.52-2.21c1.22-0.49,2.67,0.04,3.18,1.3
		c0.1,0.26,0.16,0.54,0.17,0.82C43.64,2.77,43.62,3.24,43.62,3.72L43.62,3.72z"/>
	<path id="XMLID_11_" class="st0" d="M35.86,27.03c0.52,0,1.04,0.01,1.56,0c0.25-0.01,0.37,0.07,0.37,0.33c0,0.93,0.01,1.86,0,2.79
		c0,0.32-0.07,0.37-0.39,0.37c-1.04,0.01-2.08,0.01-3.11,0c-0.33,0-0.45-0.11-0.45-0.43c-0.01-0.89-0.01-1.77,0-2.66
		c0-0.29,0.12-0.39,0.43-0.4C34.8,27.03,35.33,27.03,35.86,27.03L35.86,27.03z"/>
	<path id="XMLID_10_" class="st0" d="M41.76,27.04c0.5,0,1.01,0,1.52,0c0.33,0,0.41,0.07,0.43,0.38c0.02,0.55,0.03,1.11,0.03,1.67
		c-0.01,0.38-0.05,0.77-0.07,1.15c-0.01,0.21-0.11,0.29-0.33,0.29c-1.05-0.01-2.11-0.01-3.16,0c-0.26,0-0.38-0.12-0.38-0.35
		c0-0.94,0-1.89,0-2.83c0-0.23,0.14-0.31,0.37-0.3C40.69,27.05,41.23,27.04,41.76,27.04L41.76,27.04z"/>
	<path id="XMLID_9_" class="st0" d="M23.26,27.03c0.52,0,1.04,0.01,1.56,0c0.24-0.01,0.34,0.08,0.34,0.32c0,0.94,0,1.89,0,2.83
		c0,0.24-0.08,0.36-0.35,0.35c-1.04-0.01-2.08,0-3.12-0.01c-0.31,0-0.42-0.1-0.43-0.4c-0.01-0.9-0.01-1.8,0-2.7
		c0-0.31,0.11-0.38,0.44-0.38C22.22,27.03,22.74,27.03,23.26,27.03"/>
	<path id="XMLID_8_" class="st0" d="M35.82,18.97c-0.5,0-1.01,0-1.52,0c-0.45,0-0.48-0.02-0.48-0.45c0-0.84,0-1.69,0-2.53
		c0-0.35,0.07-0.42,0.41-0.46c0.06-0.01,0.12-0.01,0.17-0.01c0.97,0,1.94,0,2.9,0.01c0.44,0,0.48,0.04,0.48,0.46
		c0,0.86,0,1.72,0,2.57c0,0.4-0.01,0.41-0.41,0.42C36.86,18.97,36.34,18.97,35.82,18.97"/>
	<path id="XMLID_7_" class="st0" d="M41.72,18.96c-0.52,0-1.04-0.01-1.56,0c-0.25,0.01-0.38-0.07-0.38-0.33c0-0.93,0-1.86,0-2.79
		c0-0.21,0.08-0.31,0.31-0.31c1.07,0,2.13-0.02,3.2-0.02c0.34,0,0.44,0.11,0.44,0.45c0.01,0.86,0.01,1.72,0,2.57
		c0,0.32-0.12,0.42-0.45,0.43C42.76,18.97,42.24,18.96,41.72,18.96L41.72,18.96z"/>
	<path id="XMLID_6_" class="st0" d="M29.51,27.03c0.52,0,1.04,0,1.56,0c0.31,0,0.36,0.07,0.36,0.4c0,0.91-0.01,1.81-0.02,2.72
		c0,0.33-0.04,0.37-0.37,0.37c-1.04,0-2.08,0-3.11,0c-0.34,0-0.38-0.03-0.38-0.37c-0.01-0.93,0-1.86,0-2.78
		c0-0.25,0.11-0.35,0.37-0.34C28.44,27.05,28.98,27.03,29.51,27.03"/>
	<path id="XMLID_5_" class="st0" d="M35.84,21.23c0.51,0,1.01,0,1.52,0c0.4,0,0.43,0.03,0.44,0.4c0.01,0.89,0,1.77,0.01,2.66
		c0,0.26-0.11,0.36-0.36,0.36c-1.05-0.01-2.11,0.01-3.16,0c-0.35,0-0.44-0.09-0.44-0.43c-0.01-0.84-0.01-1.69,0-2.53
		c0-0.4,0.06-0.45,0.45-0.45C34.8,21.23,35.32,21.23,35.84,21.23L35.84,21.23z"/>
	<path id="XMLID_4_" class="st0" d="M41.77,21.23h1.47c0.37,0,0.46,0.07,0.48,0.43c0.02,0.47,0.01,0.94,0.01,1.41
		c0.01,0.42-0.16,0.84-0.02,1.27c0.06,0.18-0.15,0.33-0.4,0.32c-0.81-0.01-1.62-0.02-2.43-0.02c-0.25,0-0.49,0-0.74,0.01
		c-0.26,0.01-0.37-0.11-0.37-0.35c0-0.9,0-1.8,0-2.7c0-0.33,0.05-0.37,0.38-0.37C40.7,21.23,41.24,21.23,41.77,21.23"/>
	<path id="XMLID_3_" class="st0" d="M29.43,18.97c-0.52,0-1.04-0.01-1.56,0c-0.24,0.01-0.33-0.09-0.33-0.33c0-0.93,0-1.86,0-2.78
		c0-0.22,0.11-0.31,0.31-0.33c0.09-0.01,0.17-0.02,0.26-0.02c0.92,0,1.84,0,2.77,0c0.52,0,0.54,0.03,0.54,0.53
		c0.01,0.77,0.02,1.54,0.03,2.31c0,0.06,0,0.11-0.01,0.17c-0.04,0.44-0.05,0.44-0.49,0.44C30.44,18.97,29.93,18.96,29.43,18.97
		L29.43,18.97z"/>
	<path id="XMLID_2_" class="st0" d="M23.24,24.64c-0.53,0-1.07,0.01-1.6,0c-0.33-0.01-0.36-0.05-0.36-0.38
		c0-0.84-0.01-1.68-0.01-2.53c0-0.46,0.05-0.51,0.52-0.51c0.97,0,1.93,0,2.9,0c0.47,0,0.47,0.01,0.47,0.44c0,0.87,0.01,1.74,0,2.61
		c0,0.36-0.01,0.36-0.36,0.36C24.28,24.65,23.76,24.65,23.24,24.64L23.24,24.64"/>
	<path id="XMLID_1_" class="st0" d="M29.47,24.65c-0.52,0-1.04,0.01-1.56,0c-0.33-0.01-0.37-0.04-0.37-0.37
		c-0.01-0.89-0.01-1.77,0-2.66c0-0.35,0.04-0.38,0.41-0.38c1.02-0.01,2.05-0.01,3.07,0c0.34,0,0.37,0.03,0.38,0.37
		c0.02,0.33,0,0.66,0,0.98c0,0.58,0,1.17,0,1.75c0,0.24-0.1,0.33-0.34,0.32C30.54,24.64,30.01,24.65,29.47,24.65L29.47,24.65z"/>
</g>
</svg>
