<?xml version="1.0" encoding="iso-8859-1"?>
<!-- Generator: Adobe Illustrator 18.0.0, SVG Export Plug-In . SVG Version: 6.00 Build 0)  -->
<!DOCTYPE svg PUBLIC "-//W3C//DTD SVG 1.1//EN" "http://www.w3.org/Graphics/SVG/1.1/DTD/svg11.dtd">
<svg version="1.1" id="Layer_1" xmlns="http://www.w3.org/2000/svg" xmlns:xlink="http://www.w3.org/1999/xlink" x="0px" y="0px"
	 viewBox="0 0 62.281 34.735" style="enable-background:new 0 0 62.281 34.735;" xml:space="preserve">
<g>
	<path style="fill:none;" d="M29.35,18.138c-0.393-0.419-1.053-0.44-1.473-0.048c-0.42,0.393-0.442,1.052-0.048,1.473l0.373,0.39
		c0.204,0.211,0.476,0.316,0.747,0.316c0.262,0,0.524-0.098,0.726-0.294c0.413-0.401,0.422-1.061,0.021-1.474L29.35,18.138z"/>
	<path style="fill:none;" d="M37.832,25.982c0.184,0.05,0.365,0.094,0.543,0.133c0.078,0.018,0.156,0.026,0.233,0.026
		c0.475,0,0.905-0.328,1.015-0.811c0.128-0.561-0.223-1.119-0.785-1.247c-0.153-0.036-0.31-0.073-0.469-0.115
		c-0.557-0.152-1.127,0.181-1.276,0.738C36.945,25.262,37.275,25.833,37.832,25.982z"/>
	<path style="fill:none;" d="M22.992,19.297c0.012,0,0.024,0,0.037-0.001l0.503-0.012c0.575-0.01,1.033-0.485,1.023-1.06
		c-0.01-0.577-0.494-1.021-1.061-1.024l-0.538,0.014c-0.576,0.019-1.025,0.502-1.005,1.078
		C21.97,18.854,22.432,19.297,22.992,19.297z"/>
	<path style="fill:none;" d="M12.026,5.737c-0.252,0.134-0.535,0.217-0.84,0.217c-0.306,0-0.59-0.084-0.843-0.219
		c-4.638,0.421-8.286,4.327-8.286,9.073c0,5.026,4.089,9.115,9.115,9.115c5.026,0,9.115-4.089,9.115-9.115
		C20.288,10.071,16.653,6.169,12.026,5.737z M11.701,15.908v1.359c0,0.284-0.231,0.515-0.514,0.515
		c-0.284,0-0.514-0.231-0.514-0.515v-1.341c-0.428-0.192-0.729-0.618-0.729-1.118c0-0.5,0.301-0.925,0.729-1.118V7.329
		c0-0.284,0.231-0.515,0.514-0.515c0.284,0,0.514,0.231,0.514,0.515v6.38c0.412,0.199,0.702,0.612,0.702,1.1
		S12.112,15.71,11.701,15.908z"/>
	<path style="fill:none;" d="M33.919,21.981c-0.138-0.088-0.276-0.177-0.416-0.271c-0.48-0.319-1.126-0.189-1.445,0.289
		c-0.319,0.479-0.19,1.125,0.289,1.445c0.153,0.102,0.306,0.201,0.457,0.297c0.173,0.11,0.366,0.162,0.557,0.162
		c0.345,0,0.683-0.171,0.881-0.484C34.549,22.934,34.405,22.29,33.919,21.981z"/>
	<path style="fill:none;" d="M44.277,24.22l-0.127,0.001c-0.112,0-0.225-0.002-0.338-0.005c-0.6-0.061-1.057,0.432-1.076,1.008
		c-0.019,0.575,0.432,1.056,1.008,1.075c0.136,0.005,0.272,0.007,0.406,0.007l0.17-0.001c0.576-0.012,1.032-0.488,1.021-1.063
		C45.329,24.666,44.858,24.248,44.277,24.22z"/>
	<path style="fill:none;" d="M49.24,22.846c-0.137,0.078-0.275,0.153-0.415,0.224c-0.513,0.26-0.717,0.888-0.457,1.401
		c0.184,0.361,0.55,0.57,0.93,0.57c0.159,0,0.32-0.037,0.471-0.113c0.168-0.086,0.335-0.176,0.499-0.269
		c0.501-0.285,0.676-0.921,0.392-1.421C50.377,22.738,49.74,22.562,49.24,22.846z"/>
	<path style="fill:none;" d="M54.814,19.306c-0.432-0.381-1.092-0.337-1.471,0.095c-0.108,0.123-0.218,0.245-0.33,0.365
		c-0.392,0.422-0.367,1.082,0.055,1.474c0.201,0.186,0.455,0.278,0.709,0.278c0.279,0,0.559-0.112,0.764-0.333
		c0.125-0.134,0.247-0.271,0.367-0.408C55.288,20.344,55.246,19.686,54.814,19.306z"/>
	<path style="fill:#026937;" d="M48.058,10.26l-11.184,4.174l7.601,20.56l17.807-10.174L48.058,10.26z M44.32,26.304l-0.17,0.001
		c-0.134,0-0.27-0.002-0.406-0.007c-0.575-0.018-1.026-0.5-1.008-1.075c0.018-0.576,0.476-1.069,1.076-1.008
		c0.113,0.003,0.226,0.005,0.338,0.005l0.127-0.001c0.581,0.027,1.051,0.446,1.063,1.021C45.353,25.816,44.896,26.292,44.32,26.304z
		 M50.269,24.66c-0.164,0.093-0.331,0.183-0.499,0.269c-0.151,0.076-0.312,0.113-0.471,0.113c-0.38,0-0.746-0.209-0.93-0.57
		c-0.261-0.513-0.056-1.141,0.457-1.401c0.14-0.071,0.278-0.146,0.415-0.224c0.5-0.284,1.137-0.109,1.421,0.393
		C50.945,23.739,50.77,24.375,50.269,24.66z M54.541,21.185c-0.205,0.221-0.484,0.333-0.764,0.333c-0.254,0-0.508-0.092-0.709-0.278
		c-0.422-0.392-0.447-1.051-0.055-1.474c0.111-0.12,0.221-0.242,0.33-0.365c0.379-0.431,1.038-0.475,1.471-0.095
		c0.432,0.38,0.475,1.038,0.095,1.471C54.788,20.914,54.666,21.05,54.541,21.185z"/>
	<path style="fill:#026937;" d="M27.463,11.259v15.957l15.818,7.519l-7.471-20.208L27.463,11.259z M29.675,19.975
		c-0.203,0.196-0.465,0.294-0.726,0.294c-0.272,0-0.543-0.106-0.747-0.316l-0.373-0.39c-0.393-0.42-0.371-1.08,0.048-1.473
		c0.42-0.392,1.08-0.371,1.473,0.048l0.346,0.363C30.097,18.913,30.088,19.574,29.675,19.975z M34.241,23.419
		c-0.198,0.313-0.536,0.484-0.881,0.484c-0.191,0-0.384-0.052-0.557-0.162c-0.151-0.096-0.304-0.195-0.457-0.297
		c-0.479-0.32-0.608-0.966-0.289-1.445c0.319-0.478,0.965-0.608,1.445-0.289c0.14,0.094,0.278,0.183,0.416,0.271
		C34.405,22.29,34.549,22.934,34.241,23.419z M37.093,24.707c0.149-0.557,0.719-0.889,1.276-0.738
		c0.159,0.042,0.315,0.079,0.469,0.115c0.561,0.127,0.912,0.686,0.785,1.247c-0.11,0.483-0.54,0.811-1.015,0.811
		c-0.077,0-0.155-0.008-0.233-0.026c-0.178-0.04-0.359-0.083-0.543-0.133C37.275,25.833,36.945,25.262,37.093,24.707z"/>
	<path style="fill:#026937;" d="M22.077,12.4c-0.417-1.886-1.313-3.59-2.552-4.987l0.041-0.041l0.512,0.512
		c0.302,0.302,0.697,0.453,1.092,0.453c0.395,0,0.79-0.151,1.091-0.452c0.603-0.602,0.603-1.58,0.001-2.183l-1.683-1.684
		c-0.603-0.604-1.58-0.604-2.183-0.001c-0.604,0.602-0.604,1.58-0.001,2.183l0.443,0.444l-0.031,0.031
		c-1.581-1.484-3.588-2.51-5.82-2.877V1.796c0-0.994-0.806-1.801-1.801-1.801c-0.995,0-1.801,0.807-1.801,1.801v1.997
		C4.073,4.653,0,9.258,0,14.809c0,5.928,4.644,10.779,10.482,11.138c0.179,0.011,0.357,0.025,0.538,0.027l-3.214,8.852l18.628-7.63
		V11.258l-4.262,1.657C22.143,12.742,22.114,12.57,22.077,12.4z M11.172,23.924c-5.026,0-9.115-4.089-9.115-9.115
		c0-4.746,3.648-8.653,8.286-9.073c0.252,0.135,0.536,0.219,0.843,0.219c0.305,0,0.588-0.083,0.84-0.217
		c4.627,0.432,8.261,4.334,8.261,9.072C20.288,19.835,16.199,23.924,11.172,23.924z M22.956,17.214l0.538-0.014
		c0.567,0.003,1.051,0.447,1.061,1.024c0.01,0.575-0.448,1.05-1.023,1.06l-0.503,0.012c-0.012,0.001-0.024,0.001-0.037,0.001
		c-0.559,0-1.021-0.443-1.041-1.005C21.931,17.715,22.38,17.233,22.956,17.214z"/>
	<path style="fill:#026937;" d="M11.701,13.709v-6.38c0-0.284-0.231-0.515-0.514-0.515c-0.284,0-0.514,0.231-0.514,0.515v6.362
		c-0.428,0.192-0.729,0.618-0.729,1.118c0,0.5,0.301,0.925,0.729,1.118v1.341c0,0.284,0.231,0.515,0.514,0.515
		c0.284,0,0.514-0.231,0.514-0.515v-1.359c0.412-0.199,0.702-0.612,0.702-1.1S12.112,13.908,11.701,13.709z"/>
</g>
</svg>
