<?xml version="1.0" encoding="utf-8"?>
<!-- Generator: Adobe Illustrator 19.0.0, SVG Export Plug-In . SVG Version: 6.00 Build 0)  -->
<svg version="1.1" id="Layer_1" xmlns="http://www.w3.org/2000/svg" xmlns:xlink="http://www.w3.org/1999/xlink" x="0px" y="0px"
	 width="65px" height="35px" viewBox="0 -3 65 35" style="enable-background:new 0 -3 65 35;" xml:space="preserve">
<style type="text/css">
	.st0{fill:#184736;}
</style>
<g>
	<path class="st0" d="M33,15.5V6.9c0-0.4-0.3-0.7-0.7-0.7c-0.4,0-0.7,0.3-0.7,0.7v8.6c-0.6,0.3-1,0.8-1,1.5s0.4,1.2,1,1.5v1.8
		c0,0.4,0.3,0.7,0.7,0.7c0.4,0,0.7-0.3,0.7-0.7v-1.8c0.6-0.3,0.9-0.8,0.9-1.5C33.9,16.3,33.5,15.7,33,15.5z"/>
	<path class="st0" d="M44.2,7.6c0.4,0.4,0.9,0.6,1.5,0.6c0.5,0,1.1-0.2,1.5-0.6c0.8-0.8,0.8-2.1,0-2.9l-2.3-2.3
		c-0.8-0.8-2.1-0.8-2.9,0c-0.8,0.8-0.8,2.1,0,2.9L42.6,6l0,0c-2.1-2-4.8-3.4-7.8-3.9v-2.7c0-1.3-1.1-2.4-2.4-2.4
		c-1.3,0-2.4,1.1-2.4,2.4v2.7C22.7,3.3,17.2,9.5,17.2,17c0,8.3,6.8,15,15,15c8.3,0,15-6.8,15-15c0-3.8-1.4-7.3-3.8-10l0.1-0.1
		L44.2,7.6z M32.3,29.2C25.5,29.2,20,23.7,20,17c0-6.4,4.9-11.7,11.2-12.2C31.5,4.9,31.9,5,32.3,5c0.4,0,0.8-0.1,1.1-0.3
		c6.2,0.6,11.1,5.8,11.1,12.2C44.5,23.7,39,29.2,32.3,29.2z"/>
</g>
</svg>
