<?xml version="1.0" encoding="iso-8859-1"?>
<!-- Generator: Adobe Illustrator 18.0.0, SVG Export Plug-In . SVG Version: 6.00 Build 0)  -->
<!DOCTYPE svg PUBLIC "-//W3C//DTD SVG 1.1//EN" "http://www.w3.org/Graphics/SVG/1.1/DTD/svg11.dtd">
<svg version="1.1" id="Layer_1" xmlns="http://www.w3.org/2000/svg" xmlns:xlink="http://www.w3.org/1999/xlink" x="0px" y="0px"
	 viewBox="0 0 37.769 34.735" style="enable-background:new 0 0 37.769 34.735;" xml:space="preserve">
<g>
	<g>
		<path style="fill:#026937;" d="M14.376,2.956c0.03,0.098,0.059,0.197,0.101,0.289c0.024,0.055,0.06,0.104,0.089,0.156
			c0.042,0.075,0.081,0.154,0.133,0.223c0.039,0.052,0.085,0.098,0.128,0.148c0.053,0.061,0.102,0.125,0.161,0.18
			c0.049,0.046,0.106,0.082,0.158,0.125c0.062,0.049,0.121,0.101,0.187,0.143c0.058,0.037,0.122,0.064,0.184,0.096
			c0.068,0.035,0.136,0.074,0.208,0.104c0.066,0.026,0.136,0.04,0.204,0.06c0.075,0.022,0.15,0.048,0.226,0.062
			c0.072,0.013,0.147,0.015,0.22,0.02c0.067,0.006,0.133,0.021,0.2,0.021c0.026,0,0.054,0,0.081-0.002
			c0.005,0,0.009-0.001,0.013-0.001c0.154-0.006,0.302-0.026,0.445-0.061c0.046-0.01,0.088-0.032,0.135-0.045
			c0.098-0.03,0.198-0.057,0.29-0.102c0.049-0.021,0.092-0.053,0.139-0.077c0.083-0.045,0.167-0.088,0.244-0.143
			c0.044-0.033,0.083-0.073,0.126-0.109c0.07-0.058,0.141-0.114,0.203-0.178c0.041-0.042,0.072-0.09,0.109-0.136
			c0.055-0.067,0.114-0.135,0.162-0.208c0.031-0.051,0.056-0.108,0.085-0.162c0.04-0.075,0.082-0.148,0.115-0.228
			c0.023-0.06,0.037-0.123,0.056-0.185c0.023-0.079,0.05-0.159,0.066-0.242c0.012-0.066,0.013-0.138,0.02-0.205
			c0.006-0.07,0.021-0.138,0.021-0.209c0-0.026,0-0.052-0.002-0.078V2.209c-0.001-0.043-0.013-0.084-0.017-0.126
			c-0.01-0.113-0.019-0.222-0.045-0.329c-0.017-0.073-0.047-0.141-0.072-0.21c-0.024-0.07-0.043-0.144-0.074-0.211
			c-0.031-0.07-0.076-0.134-0.116-0.2c-0.035-0.06-0.065-0.123-0.106-0.179c-0.045-0.063-0.101-0.118-0.153-0.177
			c-0.044-0.05-0.085-0.105-0.135-0.151c-0.056-0.053-0.121-0.097-0.181-0.144c-0.055-0.042-0.107-0.088-0.164-0.125
			c-0.064-0.04-0.134-0.071-0.202-0.106c-0.063-0.032-0.125-0.068-0.19-0.094c-0.069-0.027-0.144-0.045-0.216-0.065
			c-0.07-0.02-0.141-0.045-0.214-0.058c-0.074-0.012-0.15-0.015-0.225-0.021c-0.066-0.006-0.131-0.019-0.197-0.019h-0.081
			c-0.158,0.006-0.312,0.028-0.458,0.062c-0.046,0.012-0.086,0.032-0.131,0.045c-0.101,0.03-0.201,0.059-0.293,0.102
			c-0.051,0.023-0.096,0.056-0.144,0.082c-0.081,0.043-0.164,0.085-0.239,0.14c-0.048,0.034-0.088,0.076-0.135,0.116
			C15.028,0.597,14.959,0.65,14.9,0.712c-0.043,0.045-0.076,0.095-0.116,0.145c-0.054,0.065-0.109,0.128-0.154,0.198
			c-0.035,0.054-0.061,0.115-0.091,0.172c-0.038,0.071-0.078,0.141-0.109,0.218c-0.025,0.062-0.041,0.131-0.059,0.196
			c-0.023,0.076-0.049,0.151-0.064,0.23c-0.013,0.069-0.014,0.142-0.021,0.213c-0.006,0.068-0.019,0.134-0.019,0.203v0.081
			c0.006,0.157,0.027,0.309,0.063,0.456C14.34,2.87,14.361,2.911,14.376,2.956"/>
	</g>
	<polygon style="fill:#026937;" points="10.945,14.4 12.788,5.543 9.31,5.952 8.664,9.06 7.665,13.876 8.386,13.991 	"/>
	<g>
		<path style="fill:#026937;" d="M18.584,28.802l-2.251,3.56l-3.975-0.152l-0.069,0.02L14.4,18.88l3.27,4.238l0.782,2.155
			l1.236,3.408c0.009,0.026,0.025,0.05,0.035,0.075L18.584,28.802z M37.745,26.341v-0.007c0-0.002-0.001-0.003-0.001-0.003
			c-0.024-0.079-0.063-0.148-0.11-0.209c-0.016-0.02-0.034-0.034-0.052-0.053c-0.036-0.038-0.075-0.072-0.12-0.101
			c-0.023-0.016-0.048-0.027-0.074-0.039c-0.045-0.02-0.091-0.034-0.141-0.044c-0.027-0.006-0.055-0.012-0.085-0.015
			c-0.014,0-0.029-0.007-0.043-0.007c-0.059,0-0.12,0.009-0.179,0.026h-0.001l-1.28,0.363l-1.972,0.558l-0.042,0.02
			c0,0-0.03,0.015-0.074,0.033c-0.165,0.075-0.624,0.281-1.165,0.52c-0.137,0.059-0.276,0.121-0.418,0.181
			c-0.075,0.033-0.151,0.065-0.226,0.098c-0.354,0.151-0.704,0.297-0.993,0.412c-0.177,0.071-0.331,0.129-0.445,0.168
			c-0.013,0.005-0.019,0.006-0.03,0.01c-0.041,0.015-0.081,0.028-0.105,0.034l-0.02,0.005c-0.382,0.044-1.41,0.13-1.603,0.146
			c-0.02,0.001-0.04,0.004-0.04,0.004l-1.352,0.147H25.25V14.281c0.143,0.009,0.311,0.017,0.424,0.013
			c0.083-0.003,0.157-0.042,0.224-0.094c0.118-0.092,0.213-0.236,0.283-0.386c0.052-0.115,0.089-0.226,0.115-0.339
			c0.007-0.035,0.007-0.069,0.011-0.107c0.012-0.067,0.025-0.138,0.025-0.205c0-0.016,0-0.032-0.002-0.049
			c-0.007-0.231-0.258-0.743-0.557-0.963c-0.001-0.002-0.003-0.002-0.004-0.003c-0.056-0.041-0.124-0.071-0.194-0.097
			c-0.015-0.006-0.028-0.011-0.042-0.016c-0.067-0.021-0.137-0.037-0.205-0.05c-0.021-0.003-0.039-0.006-0.06-0.009
			c-0.006-0.001-0.012-0.003-0.018-0.003v-1.317c0-0.151-0.109-0.273-0.243-0.273c-0.134,0-0.242,0.123-0.242,0.273v1.271
			l-2.693-0.452l-1.455-0.245c-0.002-0.004-1.274-3.098-1.743-4.223c-0.086-0.204-0.147-0.353-0.167-0.396
			c-0.127-0.284-0.133-0.456-0.488-0.677l-2.832-0.367l-1.38-0.179h-0.002c0,0-0.735,4.055-1.642,9.055l4.263,0.759l0.555-2.469
			l0.6-2.675l1.274,3.138l5.71,1.031v14.363h-0.761l-1.454,0.057c0.004-0.017,0.008-0.036,0.014-0.053
			c0.025-0.106,0.039-0.213,0.041-0.322c0-0.006,0.002-0.012,0.002-0.018c0-0.038-0.005-0.079-0.008-0.119
			c-0.003-0.026-0.003-0.053-0.006-0.081c-0.009-0.059-0.022-0.119-0.037-0.177c-0.005-0.016-0.006-0.031-0.011-0.046l-2.409-6.125
			l-3.803-5.231H16.33l-4.174-0.757L9.279,32.233c-0.001,0.036-0.002,0.07-0.002,0.106c0,0.086,0.008,0.175,0.024,0.265
			c0.002,0.003,0,0.006,0.002,0.009c0,0.004,0.002,0.007,0.002,0.011c0.019,0.09,0.045,0.177,0.078,0.259
			c0.012,0.032,0.029,0.059,0.044,0.088c0.011,0.026,0.023,0.051,0.036,0.075l-0.294,0.085H7.2l-0.913,0.084l-0.786,0.071
			l-1.137,0.129L2.92,33.581l-2.303,0.118C0.611,33.7,0.605,33.702,0.6,33.704c-0.081,0.006-0.159,0.024-0.229,0.058
			c-0.026,0.011-0.045,0.034-0.07,0.049c-0.044,0.03-0.09,0.057-0.128,0.096c-0.02,0.022-0.031,0.051-0.049,0.075
			c-0.028,0.042-0.06,0.083-0.079,0.133c-0.013,0.031-0.013,0.067-0.02,0.103C0.015,34.261,0,34.301,0,34.348v0.003
			c0,0.009,0,0.019,0.001,0.028c0,0-0.002,0.001,0,0.001c0.017,0.347,0.306,0.615,0.649,0.615h0.035v-0.002l2.346-0.12l0.049-0.006
			l2.557-0.29l1.623-0.149l2.095,0.001l0.133-0.039l3.03-0.877l4.376,0.167l0.141,0.006l1.111-1.757l1.176-1.857l4.709-0.186h0.735
			v0.271c0,0.151,0.109,0.272,0.242,0.272c0.135,0,0.243-0.122,0.243-0.272v-0.271h1.993l1.301-0.144l0.108-0.011
			c-0.002,0,1.223-0.102,1.678-0.153c0.101-0.016,0.193-0.039,0.284-0.066c0.186-0.057,0.373-0.134,0.638-0.234
			c0.767-0.305,1.86-0.787,2.471-1.061c0.198-0.088,0.349-0.155,0.418-0.187l3.155-0.895c0.081-0.023,0.151-0.062,0.213-0.11
			c0.02-0.016,0.035-0.035,0.052-0.051c0.039-0.038,0.074-0.075,0.101-0.121c0.016-0.024,0.028-0.047,0.039-0.073
			c0.02-0.045,0.036-0.093,0.046-0.143c0.006-0.027,0.012-0.052,0.013-0.079c0.002-0.016,0.007-0.03,0.007-0.048
			C37.769,26.455,37.761,26.398,37.745,26.341"/>
	</g>
</g>
</svg>
