<?xml version="1.0" encoding="utf-8"?>
<!-- Generator: Adobe Illustrator 19.0.0, SVG Export Plug-In . SVG Version: 6.00 Build 0)  -->
<svg version="1.1" id="Layer_1" xmlns="http://www.w3.org/2000/svg" xmlns:xlink="http://www.w3.org/1999/xlink" x="0px" y="0px"
	 width="35px" height="34.5px" viewBox="-7 8.5 35 34.5" style="enable-background:new -7 8.5 35 34.5;" xml:space="preserve">
<style type="text/css">
	.st0{fill:#026937;}
</style>
<g>
	<path class="st0" d="M10.5,43.5H-6.1c-0.2,0-0.3,0-0.5,0C-6.9,43.5-7,43.4-7,43c0-0.3,0-0.6,0-0.9c0-9.6,0-19.3,0-28.9
		c0-0.5,0-0.5,0.5-0.5c1.4,0,2.7,0,4.1,0c0.4,0,0.4,0,0.4,0.4c0,0.3,0,0.6,0,0.9c0.1,1.5,0.8,2.6,2.2,3.3C1.1,17.7,2,17.7,3,17.4
		c1-0.3,1.7-1,2.2-1.9c0.3-0.6,0.4-1.3,0.4-2c0-0.8,0-0.8,0.8-0.8h8.5c0.1,0,0.2,0,0.3,0c0.4,0,0.4,0,0.4,0.4c0,0.4,0,0.8,0,1.2
		c0.2,1.5,1,2.6,2.4,3.1c0.8,0.3,1.6,0.3,2.5,0c1.1-0.3,1.8-1.1,2.2-2c0.2-0.4,0.2-0.9,0.3-1.3c0-0.3,0-0.7,0-1
		c0-0.2,0.1-0.4,0.4-0.4c1.4,0,2.9,0,4.3,0c0.2,0,0.3,0.1,0.3,0.3c0,1.4,0.1,2.9,0.1,4.3c0,8.4,0,16.8,0,25.2c0,0.1,0,0.3,0,0.4
		c0,0.4-0.1,0.5-0.5,0.5c-0.2,0-0.5,0-0.7,0H10.5L10.5,43.5z M10.5,41.1L10.5,41.1l14.4,0c0.5,0,0.5,0,0.5-0.5c0-6.3,0-12.5,0-18.8
		c0-0.5,0-0.5-0.5-0.5c-3.8,0-7.5,0-11.3,0c-5.9,0-11.7,0-17.6,0c-0.5,0-0.5,0-0.5,0.5v0.3v17.9c0,0.2,0,0.5,0,0.7
		c0,0.4,0,0.4,0.4,0.4c0.1,0,0.2,0,0.3,0L10.5,41.1L10.5,41.1z"/>
	<path class="st0" d="M-0.8,12.3c0-0.6,0-1.1,0.1-1.7c0.1-1,0.6-1.6,1.5-2C2.2,8.1,3.5,8.7,4,10.1c0.2,0.4,0.2,0.9,0.2,1.3
		c0,0.6,0,1.1,0,1.7c0,0.4,0,0.8-0.2,1.1c-0.2,0.7-0.7,1.2-1.4,1.4c-0.9,0.4-1.8,0.3-2.5-0.4c-0.4-0.4-0.8-0.8-0.8-1.4
		C-0.7,13.4-0.7,12.8-0.8,12.3"/>
	<path class="st0" d="M21.6,12.2c0,0.5,0,0.9,0,1.4c0,1.7-2,2.9-3.6,2c-0.9-0.5-1.3-1.2-1.3-2.1c0-0.9,0-1.7,0-2.6
		c0-1,0.6-1.8,1.5-2.2c1.2-0.5,2.7,0,3.2,1.3c0.1,0.3,0.2,0.5,0.2,0.8C21.6,11.3,21.6,11.7,21.6,12.2L21.6,12.2L21.6,12.2z"/>
	<path class="st0" d="M13.9,35.5c0.5,0,1,0,1.6,0c0.3,0,0.4,0.1,0.4,0.3c0,0.9,0,1.9,0,2.8c0,0.3-0.1,0.4-0.4,0.4c-1,0-2.1,0-3.1,0
		c-0.3,0-0.4-0.1-0.5-0.4c0-0.9,0-1.8,0-2.7c0-0.3,0.1-0.4,0.4-0.4C12.8,35.5,13.3,35.5,13.9,35.5C13.9,35.5,13.9,35.5,13.9,35.5z"
		/>
	<path class="st0" d="M19.8,35.5c0.5,0,1,0,1.5,0c0.3,0,0.4,0.1,0.4,0.4c0,0.6,0,1.1,0,1.7c0,0.4,0,0.8-0.1,1.2
		c0,0.2-0.1,0.3-0.3,0.3c-1.1,0-2.1,0-3.2,0c-0.3,0-0.4-0.1-0.4-0.4c0-0.9,0-1.9,0-2.8c0-0.2,0.1-0.3,0.4-0.3
		C18.7,35.5,19.2,35.5,19.8,35.5L19.8,35.5L19.8,35.5z"/>
	<path class="st0" d="M1.3,35.5c0.5,0,1,0,1.6,0c0.2,0,0.3,0.1,0.3,0.3c0,0.9,0,1.9,0,2.8c0,0.2-0.1,0.4-0.4,0.4c-1,0-2.1,0-3.1,0
		c-0.3,0-0.4-0.1-0.4-0.4c0-0.9,0-1.8,0-2.7c0-0.3,0.1-0.4,0.4-0.4C0.2,35.5,0.7,35.5,1.3,35.5"/>
	<path class="st0" d="M13.8,27.4c-0.5,0-1,0-1.5,0c-0.5,0-0.5,0-0.5-0.5c0-0.8,0-1.7,0-2.5c0-0.4,0.1-0.4,0.4-0.5c0.1,0,0.1,0,0.2,0
		c1,0,1.9,0,2.9,0c0.4,0,0.5,0,0.5,0.5c0,0.9,0,1.7,0,2.6c0,0.4,0,0.4-0.4,0.4C14.9,27.4,14.3,27.4,13.8,27.4"/>
	<path class="st0" d="M19.7,27.4c-0.5,0-1,0-1.6,0c-0.2,0-0.4-0.1-0.4-0.3c0-0.9,0-1.9,0-2.8c0-0.2,0.1-0.3,0.3-0.3
		c1.1,0,2.1,0,3.2,0c0.3,0,0.4,0.1,0.4,0.4c0,0.9,0,1.7,0,2.6c0,0.3-0.1,0.4-0.4,0.4C20.8,27.5,20.2,27.4,19.7,27.4
		C19.7,27.4,19.7,27.4,19.7,27.4z"/>
	<path class="st0" d="M7.5,35.5c0.5,0,1,0,1.6,0c0.3,0,0.4,0.1,0.4,0.4c0,0.9,0,1.8,0,2.7C9.4,39,9.4,39,9,39c-1,0-2.1,0-3.1,0
		c-0.3,0-0.4,0-0.4-0.4c0-0.9,0-1.9,0-2.8c0-0.3,0.1-0.3,0.4-0.3C6.4,35.5,7,35.5,7.5,35.5"/>
	<path class="st0" d="M13.8,29.7c0.5,0,1,0,1.5,0c0.4,0,0.4,0,0.4,0.4c0,0.9,0,1.8,0,2.7c0,0.3-0.1,0.4-0.4,0.4c-1.1,0-2.1,0-3.2,0
		c-0.4,0-0.4-0.1-0.4-0.4c0-0.8,0-1.7,0-2.5c0-0.4,0.1-0.4,0.5-0.5C12.8,29.7,13.3,29.7,13.8,29.7C13.8,29.7,13.8,29.7,13.8,29.7z"
		/>
	<path class="st0" d="M19.8,29.7h1.5c0.4,0,0.5,0.1,0.5,0.4c0,0.5,0,0.9,0,1.4c0,0.4-0.2,0.8,0,1.3c0.1,0.2-0.1,0.3-0.4,0.3
		c-0.8,0-1.6,0-2.4,0c-0.2,0-0.5,0-0.7,0c-0.3,0-0.4-0.1-0.4-0.4c0-0.9,0-1.8,0-2.7c0-0.3,0-0.4,0.4-0.4
		C18.7,29.7,19.2,29.7,19.8,29.7"/>
	<path class="st0" d="M7.4,27.4c-0.5,0-1,0-1.6,0c-0.2,0-0.3-0.1-0.3-0.3c0-0.9,0-1.9,0-2.8c0-0.2,0.1-0.3,0.3-0.3
		c0.1,0,0.2,0,0.3,0c0.9,0,1.8,0,2.8,0c0.5,0,0.5,0,0.5,0.5c0,0.8,0,1.5,0,2.3c0,0.1,0,0.1,0,0.2c0,0.4,0,0.4-0.5,0.4
		C8.4,27.4,7.9,27.4,7.4,27.4C7.4,27.4,7.4,27.4,7.4,27.4z"/>
	<path class="st0" d="M1.2,33.1c-0.5,0-1.1,0-1.6,0c-0.3,0-0.4-0.1-0.4-0.4c0-0.8,0-1.7,0-2.5c0-0.5,0.1-0.5,0.5-0.5
		c1,0,1.9,0,2.9,0c0.5,0,0.5,0,0.5,0.4c0,0.9,0,1.7,0,2.6c0,0.4,0,0.4-0.4,0.4C2.3,33.1,1.8,33.1,1.2,33.1L1.2,33.1"/>
	<path class="st0" d="M7.5,33.1c-0.5,0-1,0-1.6,0c-0.3,0-0.4,0-0.4-0.4c0-0.9,0-1.8,0-2.7c0-0.3,0-0.4,0.4-0.4c1,0,2,0,3.1,0
		c0.3,0,0.4,0,0.4,0.4c0,0.3,0,0.7,0,1c0,0.6,0,1.2,0,1.8c0,0.2-0.1,0.3-0.3,0.3C8.5,33.1,8,33.1,7.5,33.1
		C7.5,33.1,7.5,33.1,7.5,33.1z"/>
</g>
</svg>
