<?xml version="1.0" encoding="utf-8"?>
<!-- Generator: Adobe Illustrator 19.0.0, SVG Export Plug-In . SVG Version: 6.00 Build 0)  -->
<svg version="1.1" id="Layer_1" xmlns="http://www.w3.org/2000/svg" xmlns:xlink="http://www.w3.org/1999/xlink" x="0px" y="0px"
	 width="65px" height="35px" viewBox="0 0 65 35" style="enable-background:new 0 0 65 35;" xml:space="preserve">
<style type="text/css">
	.st0{fill:#184736;}
</style>
<g>
	<g>
		<path class="st0" d="M41.35,12.32c0,4.99-3.97,9.03-8.86,9.03s-8.86-4.04-8.86-9.03c0-4.98,3.97-9.03,8.86-9.03
			S41.35,7.33,41.35,12.32 M44.59,12.32c0-6.8-5.42-12.32-12.1-12.32S20.4,5.51,20.4,12.32c0,0.7,0.06,1.38,0.17,2.05
			c1.11,7.59,7.48,14.89,12.04,20.63C37.7,28.2,44.93,20.08,44.59,12.32"/>
		<path class="st0" d="M28.45,8.11c1.29-1.29,3.39-1.29,4.68,0c1.29,1.29,1.29,3.39,0,4.68c-1.29,1.29-3.39,1.29-4.68,0
			C27.16,11.51,27.16,9.4,28.45,8.11 M27.36,13.9c1.72,1.72,4.43,1.88,6.33,0.47l1.49,1.49l1.02-1.02l-1.49-1.49
			c1.41-1.9,1.25-4.61-0.47-6.33c-1.9-1.9-4.98-1.9-6.88,0C25.46,8.91,25.46,12,27.36,13.9"/>
	</g>

		<rect id="XMLID_1_" x="36.59" y="15.79" transform="matrix(-0.7071 0.7071 -0.7071 -0.7071 75.7336 2.6065)" class="st0" width="1.47" height="2.4"/>
</g>
</svg>
