<?xml version="1.0" encoding="iso-8859-1"?>
<!-- Generator: Adobe Illustrator 18.0.0, SVG Export Plug-In . SVG Version: 6.00 Build 0)  -->
<!DOCTYPE svg PUBLIC "-//W3C//DTD SVG 1.1//EN" "http://www.w3.org/Graphics/SVG/1.1/DTD/svg11.dtd">
<svg version="1.1" id="Layer_1" xmlns="http://www.w3.org/2000/svg" xmlns:xlink="http://www.w3.org/1999/xlink" x="0px" y="0px"
	 viewBox="0 0 152.483 62.889" style="enable-background:new 0 0 152.483 62.889;" xml:space="preserve">
<g>
	<polygon style="fill:#FFFFFF;" points="51.666,21.514 54.473,21.514 58.814,30.032 58.847,30.032 58.847,21.514 61.034,21.514 
		61.034,32.904 58.243,32.904 53.886,24.386 53.852,24.386 53.852,32.904 51.666,32.904 	"/>
	<g>
		<path style="fill:#FFFFFF;" d="M63.163,24.941c0.848-0.392,1.991-0.637,2.921-0.637c2.562,0,3.622,1.061,3.622,3.542v1.077
			c0,0.849,0.017,1.485,0.033,2.106c0.016,0.636,0.048,1.224,0.097,1.877h-1.925c-0.083-0.441-0.083-0.995-0.098-1.256h-0.032
			c-0.507,0.93-1.6,1.452-2.595,1.452c-1.485,0-2.937-0.897-2.937-2.496c0-1.257,0.604-1.991,1.436-2.399
			c0.832-0.408,1.909-0.49,2.823-0.49h1.207c0-1.355-0.604-1.811-1.892-1.811c-0.931,0-1.86,0.358-2.595,0.914L63.163,24.941z
			 M65.725,31.501c0.668,0,1.192-0.293,1.534-0.751c0.358-0.473,0.456-1.077,0.456-1.73h-0.946c-0.98,0-2.431,0.163-2.431,1.453
			C64.338,31.191,64.942,31.501,65.725,31.501"/>
		<path style="fill:#FFFFFF;" d="M71.847,26.099h-1.616V24.5h1.616v-1.682l2.186-0.702V24.5h1.943v1.599h-1.943v3.917
			c0,0.718,0.196,1.387,1.029,1.387c0.392,0,0.767-0.081,0.995-0.229l0.066,1.73c-0.457,0.131-0.963,0.196-1.616,0.196
			c-1.714,0-2.66-1.061-2.66-2.725V26.099z"/>
		<path style="fill:#FFFFFF;" d="M76.904,20.878h2.187v2.089h-2.187V20.878z M76.904,24.5h2.187v8.404h-2.187V24.5z"/>
		<path style="fill:#FFFFFF;" d="M84.582,24.304c2.497,0,4.406,1.68,4.406,4.455c0,2.415-1.616,4.341-4.406,4.341
			c-2.775,0-4.39-1.926-4.39-4.341C80.193,25.985,82.102,24.304,84.582,24.304 M84.582,31.403c1.68,0,2.121-1.502,2.121-2.906
			c0-1.289-0.685-2.496-2.121-2.496c-1.419,0-2.106,1.24-2.106,2.496C82.477,29.886,82.918,31.403,84.582,31.403"/>
		<path style="fill:#FFFFFF;" d="M90.073,24.5h2.072v1.142h0.033c0.685-0.962,1.615-1.337,2.757-1.337
			c1.991,0,2.857,1.403,2.857,3.296v5.304h-2.187v-4.488c0-1.029-0.017-2.416-1.42-2.416c-1.582,0-1.926,1.714-1.926,2.791v4.113
			h-2.186V24.5z"/>
		<path style="fill:#FFFFFF;" d="M99.721,24.941c0.848-0.392,1.991-0.637,2.921-0.637c2.562,0,3.622,1.061,3.622,3.542v1.077
			c0,0.849,0.017,1.485,0.033,2.106c0.016,0.636,0.048,1.224,0.097,1.877h-1.926c-0.081-0.441-0.081-0.995-0.097-1.256h-0.032
			c-0.507,0.93-1.6,1.452-2.595,1.452c-1.485,0-2.937-0.897-2.937-2.496c0-1.257,0.604-1.991,1.436-2.399
			c0.832-0.408,1.909-0.49,2.823-0.49h1.207c0-1.355-0.604-1.811-1.892-1.811c-0.931,0-1.86,0.358-2.595,0.914L99.721,24.941z
			 M102.283,31.501c0.668,0,1.192-0.293,1.534-0.751c0.358-0.473,0.456-1.077,0.456-1.73h-0.946c-0.98,0-2.431,0.163-2.431,1.453
			C100.896,31.191,101.499,31.501,102.283,31.501"/>
		<rect x="107.794" y="20.666" style="fill:#FFFFFF;" width="2.187" height="12.24"/>
		<path style="fill:#FFFFFF;" d="M116.004,21.514h2.889c2.48,0,4.749,0.718,4.749,3.443c0,2.66-1.942,3.623-4.39,3.623h-0.963v4.324
			h-2.285V21.514z M118.289,26.785h0.8c1.142,0,2.17-0.376,2.17-1.697c0-1.322-0.995-1.779-2.17-1.779h-0.8V26.785z"/>
		<path style="fill:#FFFFFF;" d="M124.594,24.941c0.848-0.392,1.991-0.637,2.921-0.637c2.562,0,3.622,1.061,3.622,3.542v1.077
			c0,0.849,0.017,1.485,0.033,2.106c0.016,0.636,0.048,1.224,0.097,1.877h-1.925c-0.083-0.441-0.083-0.995-0.098-1.256h-0.032
			c-0.507,0.93-1.6,1.452-2.595,1.452c-1.485,0-2.937-0.897-2.937-2.496c0-1.257,0.604-1.991,1.436-2.399
			c0.832-0.408,1.909-0.49,2.823-0.49h1.207c0-1.355-0.604-1.811-1.892-1.811c-0.931,0-1.86,0.358-2.595,0.914L124.594,24.941z
			 M127.156,31.501c0.668,0,1.192-0.293,1.534-0.751c0.358-0.473,0.456-1.077,0.456-1.73h-0.946c-0.98,0-2.431,0.163-2.431,1.453
			C125.769,31.191,126.373,31.501,127.156,31.501"/>
		<path style="fill:#FFFFFF;" d="M132.677,24.5h1.942v1.909h0.033c0.097-0.783,0.995-2.104,2.301-2.104c0.212,0,0.441,0,0.668,0.065
			v2.203c-0.195-0.114-0.587-0.179-0.979-0.179c-1.779,0-1.779,2.218-1.779,3.427v3.084h-2.187V24.5z"/>
		<polygon style="fill:#FFFFFF;" points="138.294,20.665 140.481,20.665 140.481,27.862 140.514,27.862 143.125,24.5 145.703,24.5 
			142.57,28.254 146.095,32.905 143.321,32.905 140.514,28.825 140.481,28.825 140.481,32.905 138.294,32.905 		"/>
		<path style="fill:#FFFFFF;" d="M151.928,26.263c-0.67-0.229-1.158-0.359-1.958-0.359c-0.587,0-1.289,0.213-1.289,0.931
			c0,1.338,3.802,0.49,3.802,3.525c0,1.958-1.746,2.742-3.525,2.742c-0.832,0-1.68-0.147-2.48-0.359l0.131-1.795
			c0.686,0.344,1.404,0.556,2.155,0.556c0.555,0,1.436-0.212,1.436-1.029c0-1.648-3.803-0.522-3.803-3.557
			c0-1.811,1.583-2.611,3.296-2.611c1.029,0,1.697,0.163,2.383,0.31L151.928,26.263z"/>
		<path style="fill:#FFFFFF;" d="M51.552,46.932c0.641,0.446,1.48,0.669,2.514,0.669c0.728,0,1.338-0.19,1.828-0.571
			c0.478-0.381,0.724-0.968,0.734-1.763c-0.01-0.555-0.283-1.022-0.816-1.404c-0.24-0.195-0.517-0.38-0.832-0.555
			c-0.316-0.174-0.637-0.348-0.964-0.522c-0.326-0.185-0.641-0.381-0.946-0.588c-0.315-0.195-0.598-0.414-0.849-0.653
			c-0.533-0.468-0.805-1.061-0.816-1.779c0.01-0.925,0.365-1.654,1.061-2.187c0.675-0.512,1.523-0.773,2.546-0.784
			c0.293,0,0.641,0.022,1.044,0.066c0.402,0.065,0.8,0.169,1.192,0.31l-0.18,1.029c-0.555-0.283-1.246-0.425-2.073-0.425
			c-0.293,0-0.582,0.027-0.865,0.081c-0.283,0.066-0.549,0.18-0.8,0.344c-0.228,0.141-0.419,0.337-0.571,0.587
			c-0.152,0.261-0.228,0.577-0.228,0.946c0,0.273,0.075,0.523,0.228,0.751c0.152,0.229,0.349,0.43,0.588,0.604
			c0.251,0.186,0.533,0.359,0.849,0.522c0.304,0.174,0.619,0.354,0.946,0.539c0.685,0.327,1.284,0.74,1.795,1.241
			c0.251,0.239,0.451,0.522,0.604,0.849c0.141,0.326,0.212,0.702,0.212,1.126c-0.021,1.131-0.419,1.953-1.192,2.465
			c-0.761,0.5-1.611,0.75-2.546,0.75c-1.109-0.023-1.969-0.197-2.578-0.521L51.552,46.932z"/>
		<path style="fill:#FFFFFF;" d="M58.638,44.223c0-1.185,0.315-2.197,0.946-3.036c0.631-0.86,1.611-1.3,2.938-1.321
			c1.349,0.021,2.339,0.462,2.97,1.321c0.61,0.839,0.915,1.851,0.915,3.036c0,1.165-0.305,2.17-0.915,3.019
			c-0.631,0.871-1.621,1.316-2.97,1.338c-1.327-0.022-2.307-0.467-2.938-1.338C58.953,46.393,58.638,45.388,58.638,44.223
			 M59.763,44.223c0,0.99,0.239,1.806,0.719,2.448c0.456,0.675,1.136,1.017,2.04,1.029c0.903-0.011,1.594-0.354,2.073-1.029
			c0.456-0.642,0.685-1.458,0.685-2.448c0-0.99-0.229-1.817-0.685-2.48c-0.479-0.654-1.17-0.985-2.073-0.996
			c-0.903,0.011-1.583,0.343-2.04,0.996C60.003,42.406,59.763,43.233,59.763,44.223"/>
		<path style="fill:#FFFFFF;" d="M74.05,46.426c-0.012,0.631,0.01,1.285,0.065,1.958h-0.995v-1.485h-0.032
			c-0.076,0.185-0.18,0.371-0.31,0.556c-0.131,0.195-0.3,0.38-0.507,0.555c-0.207,0.163-0.462,0.293-0.767,0.392
			c-0.305,0.119-0.675,0.18-1.109,0.18c-1.012-0.01-1.742-0.315-2.188-0.914c-0.446-0.588-0.663-1.349-0.653-2.285v-5.321h1.029
			v5.06c0,0.795,0.157,1.414,0.473,1.861c0.304,0.478,0.805,0.718,1.502,0.718c0.468,0,0.865-0.098,1.191-0.293
			c0.327-0.185,0.578-0.424,0.751-0.719c0.196-0.305,0.332-0.631,0.408-0.98c0.076-0.348,0.114-0.696,0.114-1.043v-4.604h1.029
			V46.426z"/>
		<path style="fill:#FFFFFF;" d="M79.452,40.943h-1.894v5.386c0,0.381,0.088,0.702,0.261,0.963c0.164,0.272,0.446,0.408,0.849,0.408
			c0.37,0,0.685-0.066,0.946-0.196l0.066,0.848c-0.12,0.044-0.288,0.093-0.507,0.147c-0.229,0.054-0.478,0.081-0.751,0.081
			c-0.446,0-0.799-0.075-1.06-0.229c-0.251-0.151-0.441-0.353-0.571-0.604c-0.109-0.261-0.18-0.555-0.212-0.88
			c-0.033-0.327-0.049-0.68-0.049-1.061v-4.864h-1.632v-0.881h1.632v-2.007l1.028-0.359v2.367h1.894V40.943z"/>
		<path style="fill:#FFFFFF;" d="M80.529,36.144h1.029v5.321h0.032c0.228-0.468,0.565-0.854,1.012-1.159
			c0.446-0.283,0.973-0.429,1.582-0.441c1.11,0.011,1.866,0.337,2.269,0.98c0.392,0.653,0.582,1.507,0.571,2.562v4.978h-1.029
			v-4.961c0-0.37-0.022-0.719-0.065-1.044c-0.044-0.315-0.137-0.593-0.278-0.832c-0.261-0.523-0.805-0.79-1.632-0.8
			c-0.892,0.022-1.529,0.364-1.909,1.028c-0.381,0.664-0.566,1.383-0.555,2.155v4.455h-1.029V36.144z"/>
		<path style="fill:#FFFFFF;" d="M96.915,36.992h1.273l4.521,11.392h-1.175l-1.224-3.052h-5.722l-1.215,3.052h-1.126L96.915,36.992z
			 M95.009,44.353h4.925l-2.465-6.284L95.009,44.353z"/>
		<path style="fill:#FFFFFF;" d="M109.775,46.426c-0.012,0.631,0.01,1.285,0.065,1.958h-0.995v-1.485h-0.032
			c-0.076,0.185-0.18,0.371-0.31,0.556c-0.131,0.195-0.3,0.38-0.507,0.555c-0.207,0.163-0.462,0.293-0.767,0.392
			c-0.305,0.119-0.675,0.18-1.109,0.18c-1.012-0.01-1.742-0.315-2.188-0.914c-0.446-0.588-0.663-1.349-0.653-2.285v-5.321h1.029
			v5.06c0,0.795,0.157,1.414,0.473,1.861c0.304,0.478,0.805,0.718,1.502,0.718c0.468,0,0.865-0.098,1.191-0.293
			c0.327-0.185,0.578-0.424,0.751-0.719c0.196-0.305,0.332-0.631,0.408-0.98c0.076-0.348,0.114-0.696,0.114-1.043v-4.604h1.029
			V46.426z"/>
		<path style="fill:#FFFFFF;" d="M113.033,47.7c0.511,0,0.946-0.136,1.306-0.408c0.348-0.25,0.527-0.609,0.539-1.077
			c-0.012-0.49-0.212-0.876-0.605-1.159c-0.391-0.272-0.853-0.516-1.387-0.734c-0.251-0.119-0.489-0.244-0.717-0.375
			c-0.229-0.131-0.447-0.278-0.653-0.441c-0.186-0.174-0.337-0.376-0.458-0.605c-0.12-0.217-0.18-0.473-0.18-0.767
			c0.01-0.827,0.295-1.414,0.849-1.763c0.533-0.337,1.153-0.505,1.86-0.505c0.239,0,0.549,0.023,0.931,0.068
			c0.381,0.068,0.756,0.177,1.126,0.324l-0.097,0.881c-0.6-0.251-1.215-0.381-1.846-0.392c-0.533,0-0.957,0.097-1.272,0.291
			c-0.164,0.097-0.288,0.233-0.376,0.405c-0.097,0.173-0.147,0.401-0.147,0.682c0,0.172,0.061,0.335,0.181,0.487
			c0.119,0.14,0.277,0.269,0.473,0.389c0.195,0.109,0.419,0.222,0.668,0.34c0.251,0.11,0.495,0.23,0.735,0.36
			c0.544,0.23,1.017,0.535,1.419,0.917c0.402,0.382,0.61,0.912,0.62,1.589c0,0.437-0.087,0.802-0.261,1.097
			c-0.185,0.306-0.419,0.551-0.702,0.736c-0.61,0.36-1.256,0.541-1.943,0.541c-0.805,0-1.582-0.131-2.333-0.392l0.098-1.012
			C111.493,47.515,112.217,47.689,113.033,47.7"/>
		<path style="fill:#FFFFFF;" d="M120.86,40.943h-1.894v5.386c0,0.381,0.088,0.702,0.262,0.963c0.163,0.272,0.445,0.408,0.848,0.408
			c0.37,0,0.685-0.066,0.946-0.196l0.066,0.848c-0.12,0.044-0.288,0.093-0.507,0.147c-0.229,0.054-0.478,0.081-0.751,0.081
			c-0.446,0-0.799-0.075-1.06-0.229c-0.251-0.151-0.441-0.353-0.571-0.604c-0.109-0.261-0.18-0.555-0.212-0.88
			c-0.032-0.327-0.049-0.68-0.049-1.061v-4.864h-1.632v-0.881h1.632v-2.007l1.028-0.359v2.367h1.894V40.943z"/>
		<path style="fill:#FFFFFF;" d="M121.937,41.922c0-0.773-0.022-1.392-0.065-1.86h1.028v1.599h0.032
			c0.196-0.49,0.474-0.909,0.832-1.256c0.348-0.349,0.783-0.528,1.306-0.539c0.273,0.01,0.512,0.044,0.719,0.098v1.077
			c-0.229-0.065-0.479-0.098-0.751-0.098c-0.402,0.011-0.734,0.11-0.995,0.295c-0.261,0.195-0.474,0.463-0.636,0.799
			c-0.154,0.327-0.262,0.681-0.327,1.061c-0.076,0.403-0.114,0.795-0.114,1.175v4.113h-1.029V41.922z"/>
		<path style="fill:#FFFFFF;" d="M131.223,47.047h-0.033c-0.239,0.49-0.604,0.865-1.094,1.126c-0.489,0.261-1.006,0.397-1.55,0.408
			c-0.577-0.011-1.044-0.103-1.404-0.278c-0.37-0.163-0.653-0.37-0.849-0.62c-0.348-0.543-0.512-1.028-0.49-1.453
			c0-0.696,0.169-1.245,0.507-1.648c0.326-0.402,0.745-0.69,1.256-0.865c0.512-0.185,1.066-0.305,1.665-0.359
			c0.588-0.032,1.153-0.049,1.698-0.049h0.195v-0.424c0.032-1.426-0.599-2.138-1.894-2.138c-0.86-0.01-1.675,0.217-2.448,0.685
			v-0.98c0.773-0.369,1.589-0.565,2.448-0.587c1.97-0.022,2.943,1.012,2.922,3.101v3.672c-0.011,0.632,0.016,1.214,0.08,1.746
			h-1.011V47.047z M131.125,44.19h-0.293c-0.447,0-0.893,0.011-1.339,0.033c-0.468,0.043-0.892,0.136-1.273,0.277
			c-0.381,0.131-0.685,0.332-0.914,0.604c-0.251,0.273-0.375,0.637-0.375,1.094c0,0.534,0.173,0.915,0.522,1.143
			c0.326,0.239,0.729,0.359,1.207,0.359c0.598,0,1.072-0.12,1.42-0.359c0.337-0.228,0.582-0.5,0.734-0.816
			c0.163-0.337,0.256-0.669,0.277-0.995c0.022-0.337,0.033-0.615,0.033-0.832V44.19z"/>
		<rect x="133.793" y="36.144" style="fill:#FFFFFF;" width="1.029" height="12.241"/>
		<path style="fill:#FFFFFF;" d="M137.563,37.841h-1.029V36.47h1.029V37.841z M136.535,40.062h1.029v8.324h-1.029V40.062z"/>
		<path style="fill:#FFFFFF;" d="M144.064,47.047h-0.033c-0.239,0.49-0.604,0.865-1.094,1.126c-0.489,0.261-1.006,0.397-1.55,0.408
			c-0.577-0.011-1.044-0.103-1.404-0.278c-0.37-0.163-0.653-0.37-0.849-0.62c-0.348-0.543-0.511-1.028-0.49-1.453
			c0-0.696,0.169-1.245,0.507-1.648c0.326-0.402,0.745-0.69,1.256-0.865c0.512-0.185,1.066-0.305,1.665-0.359
			c0.588-0.032,1.153-0.049,1.698-0.049h0.195v-0.424c0.032-1.426-0.599-2.138-1.894-2.138c-0.86-0.01-1.675,0.217-2.448,0.685
			v-0.98c0.773-0.369,1.589-0.565,2.448-0.587c1.97-0.022,2.943,1.012,2.922,3.101v3.672c-0.011,0.632,0.016,1.214,0.08,1.746
			h-1.011V47.047z M143.966,44.19h-0.293c-0.447,0-0.893,0.011-1.339,0.033c-0.468,0.043-0.892,0.136-1.273,0.277
			c-0.381,0.131-0.685,0.332-0.914,0.604c-0.251,0.273-0.375,0.637-0.375,1.094c0,0.534,0.174,0.915,0.522,1.143
			c0.326,0.239,0.729,0.359,1.207,0.359c0.598,0,1.072-0.12,1.42-0.359c0.337-0.228,0.582-0.5,0.734-0.816
			c0.163-0.337,0.256-0.669,0.277-0.995c0.022-0.337,0.033-0.615,0.033-0.832V44.19z"/>
		<path style="fill:#FFFFFF;" d="M27.04,54.72c-0.017-0.025-0.034-0.05-0.05-0.076c-0.03,0.037-0.062,0.072-0.093,0.106
			C26.944,54.74,26.993,54.73,27.04,54.72"/>
		<path style="fill:#FFFFFF;" d="M28.834,55.554c-0.005,0.12-0.069,0.229-0.172,0.291c-0.024,0.015-0.049,0.024-0.075,0.033
			c0.037-0.01,0.074-0.019,0.112-0.028c0.605,0.741,1.896,1.491,3.449,2.187c-0.004,0.001-0.01,0.002-0.014,0.003
			c-0.509,0.172-0.994,1.06-0.494,2.132c0.5,1.073,2.242,2.21,2.48,2.129c0,0,0.591-1.927,0.091-3
			c-0.102-0.221-0.236-0.407-0.385-0.567c0.798,0.309,1.621,0.602,2.425,0.871c-0.492,0.208-0.933,1.072-0.448,2.112
			c0.499,1.073,2.241,2.209,2.48,2.129c0,0,0.59-1.928,0.091-3c-0.144-0.309-0.347-0.549-0.57-0.74
			c2.402,0.747,4.318,1.223,4.318,1.223l-0.309-0.957c-0.638-0.152-1.243-0.307-1.818-0.463c0.172-0.056,0.35-0.134,0.529-0.243
			c1.033-0.631,1.952-2.45,1.834-2.664c0,0-0.459-0.063-1.053-0.063c-0.669,0-1.507,0.079-2.054,0.412
			c-0.637,0.389-0.94,0.988-1.034,1.469v0.575c-1.016-0.314-1.916-0.63-2.713-0.942c0.123-0.05,0.248-0.112,0.373-0.188
			c1.034-0.631,1.953-2.45,1.834-2.665c0,0-0.459-0.062-1.054-0.062c-0.667,0-1.505,0.079-2.052,0.412
			c-0.722,0.44-1.014,1.148-1.061,1.653c-1.722-0.835-2.735-1.593-3.319-2.146c3.201-0.847,6.39-1.866,9.412-3.093l0.717-1.913
			V50.45c-0.005,0.003-2.375,1.359-7.975,2.941c0.296-0.296,0.548-0.701,0.613-1.202c0.147-1.132-1.076-2.724-1.078-2.727h-0.003
			c-0.269,0.004-1.635,1.557-1.782,2.687c-0.107,0.825,0.277,1.404,0.713,1.66c-0.665,0.175-1.369,0.35-2.111,0.525
			C28.8,54.728,28.853,55.133,28.834,55.554"/>
		<path style="fill:#FFFFFF;" d="M28.324,55.865c-0.557-0.259-0.965-0.665-1.284-1.145c-0.047,0.01-0.096,0.02-0.143,0.03
			c0.031-0.034,0.063-0.069,0.093-0.106c-0.407-0.639-0.664-1.396-0.904-2.102c-0.134-0.394-0.26-0.766-0.402-1.082
			c-0.13-0.291-0.242-0.59-0.347-0.889c-0.628,0.687-1.351,1.727-1.493,2.604c-0.155,0.942,0.203,1.661,0.672,2.065
			c-1.863,0.362-3.911,0.714-6.153,1.042c0.489-0.397,0.933-0.99,1.06-1.767c0.258-1.58-1.396-3.917-1.396-3.917H18.02
			c-0.391,0-2.365,2.068-2.622,3.638c-0.18,1.105,0.286,1.926,0.855,2.34c-1.274,0.169-2.604,0.33-3.995,0.48
			c-0.17-0.003-0.375,0.003-0.627,0.02c-0.345,0.024-0.671,0.013-0.978-0.022c-0.601-0.069-1.129-0.237-1.58-0.446
			c-0.084-0.04-0.165-0.08-0.244-0.121c-0.459-0.334-0.941-0.7-1.431-1.08c-0.165-0.173-0.25-0.288-0.25-0.288L7.17,55.23
			c-0.071-0.055-0.141-0.111-0.213-0.167c0.097,0.035,0.192,0.054,0.282,0.055c0.425,0.007,1.518-0.639,1.665-1.771
			c0.147-1.131-1.078-2.726-1.078-2.726H7.825c-0.268,0-1.636,1.556-1.783,2.687c-0.068,0.521,0.061,0.944,0.275,1.25
			c-1.851-1.472-3.629-2.952-4.428-3.462l-0.843,1.175v0.001c0.548,0.333,1.108,0.717,1.661,1.124
			c-0.206,0.005-0.418,0.037-0.633,0.108C0.951,53.876,0,55.636,0,55.636c0.114,0.23,2.176,0.723,3.299,0.35
			c0.722-0.238,1.096-0.722,1.208-1.168c1.298,1.087,2.399,2.131,2.974,2.692c-1.933,0.16-3.962,0.301-6.095,0.417l-1.102,1.509
			v0.001H4.29c2.25-0.137,5.289-0.377,8.785-0.795c-0.044,0.025-0.088,0.051-0.124,0.08c-0.376,0.308-0.72,1.652,0.216,2.711
			c0.776,0.878,2.673,1.328,3.298,1.456h0.232c0.179-0.361-0.109-2.517-1.002-3.528c-0.452-0.511-0.99-0.77-1.483-0.859
			c1.292-0.164,2.641-0.354,4.027-0.57c-0.385,0.506-0.671,1.781,0.168,2.888c0.813,1.073,2.988,1.735,3.616,1.909h0.209
			c0.229-0.402,0.093-2.826-0.816-4.024c-0.429-0.567-0.961-0.894-1.471-1.049c0.976-0.164,1.969-0.344,2.972-0.537
			c-0.035,0.027-0.069,0.057-0.098,0.088c-0.398,0.414-0.613,2.039,0.629,3.152c0.804,0.719,2.368,1.038,3.373,1.174h0.974
			c0.111-0.547-0.523-2.926-1.675-3.957c-0.516-0.463-1.082-0.698-1.605-0.777c1.333-0.276,2.68-0.577,4.03-0.91
			c-0.023,0.005-0.046,0.009-0.07,0.009C28.424,55.898,28.372,55.887,28.324,55.865"/>
		<path style="fill:#FFFFFF;" d="M11.699,12.105c-1.172,3.001-1.822,5.596-1.989,7.935c-0.137,1.917,0.153,3.631,0.578,5.335
			c0.071-0.028,0.117-0.043,0.129-0.047c0.555-0.155,1.382-0.336,2.247-0.336c1.162,0,2.075,0.32,2.716,0.949
			c1.503,1.476,1.168,5.6,0.842,6.493c-0.318,0.873-1.154,1.8-2.077,1.8c-0.052,0-0.103-0.003-0.154-0.009
			c-0.367-0.044-0.621-0.183-0.826-0.295c-0.257-0.141-0.361-0.186-0.578-0.104c-0.152,0.058-0.296,0.094-0.438,0.108
			c0.116,1.692,0.037,3.346-0.243,4.837c-0.073,0.388-0.711,2.619-1.238,4.377c-0.424,1.411-0.709,2.336-0.915,2.941
			c0.222-0.188,0.516-0.457,0.9-0.838c0.051-0.05,0.091-0.089,0.117-0.114c0.632-0.604,1.172-1.256,1.624-1.939
			c0.499-0.659,1.321-1.782,2.142-3.077c-0.035,0.417-0.089,0.836-0.143,1.249c-0.055,0.418-0.107,0.813-0.137,1.193
			c-0.129,1.64-0.34,3.249-0.63,4.781c-0.551,2.919-1.452,6.497-3.567,9.203c0.85-0.389,1.741-0.998,2.696-1.841
			c3.105-2.743,5.395-6.766,7.207-12.662c0.061-0.196,0.118-0.394,0.174-0.593c-0.281-1.088-0.604-2.177-0.968-3.265
			c-1.715-5.133-2.375-10.275-2.076-16.18c0.116-2.298,0.475-4.363,1.069-6.175c-0.065-0.143-0.128-0.286-0.195-0.427
			c-1.293-1.43-2.402-3.002-3.296-4.677c-0.114-0.214-0.192-0.563-0.282-0.966c-0.089-0.398-0.296-1.33-0.499-1.414
			c0.001,0.002-0.08,0.014-0.244,0.185C12.717,9.497,12.176,10.883,11.699,12.105"/>
		<path style="fill:#FFFFFF;" d="M29.444,24.484c0.01,0.071,0.022,0.149,0.025,0.226l0.002,0.018H29.47
			c0.014,0.14,0.022,0.279,0.032,0.418c0.063,0.677,0.085,1.344,0.068,1.996c0.343-0.181,0.774-0.299,1.326-0.328
			c1.097-0.056,1.937,0.035,2.599,0.327c0.003-0.387,0.02-0.77,0.038-1.148c0.037-0.815,0.076-1.657-0.036-2.484
			c-0.224-1.661-1.007-3.024-1.86-4.388c-0.956-1.531-1.487-3.006-1.673-4.641c-0.032-0.284-0.024-0.561-0.015-0.829
			c0.007-0.221,0.013-0.433-0.003-0.636c-0.067,0.115-0.128,0.233-0.159,0.293c-0.033,0.061-0.06,0.113-0.08,0.148
			c-0.248,0.428-0.509,0.836-0.762,1.231c-0.667,1.04-1.298,2.025-1.595,3.24c0.538,1.148,0.973,2.236,1.314,3.288
			c0.366,1.052,0.644,2.136,0.778,3.261C29.443,24.479,29.443,24.481,29.444,24.484"/>
		<path style="fill:#FFFFFF;" d="M32.254,35.17c-0.106,0.008-0.21,0.012-0.313,0.012c-1.26,0-2.425-0.541-3.196-1.485
			c-0.103-0.127-0.194-0.26-0.278-0.395c-0.143,0.466-0.293,0.922-0.445,1.365c-1.236,3.599-1.83,7.186-2.459,10.986l-0.109,0.653
			c-0.145,0.874-0.234,1.402,0.004,2.219l0.074,0.257c0.23,0.799,0.468,1.624,0.808,2.383c0.155,0.347,0.287,0.735,0.426,1.146
			c0.31,0.913,0.654,1.924,1.317,2.535c-0.034-0.267-0.087-0.536-0.141-0.814c-0.091-0.457-0.184-0.931-0.196-1.436
			c-0.03-1.276,0.138-2.572,0.313-3.79c0.127-0.887,0.335-2.044,0.819-3.131c0.068-0.151,0.129-0.307,0.188-0.464
			c0.185-0.348,0.302-0.585,0.302-0.585l1.233-1.784c0.037,0.092,0.038,0.198-0.009,0.294c-0.663,1.379,0.217,3.437,1.379,4.873
			c0.503,0.621,0.963,1.177,1.489,1.684c0.066,0.061,0.25,0.193,0.441,0.313c-0.153-0.309-0.313-0.613-0.47-0.91
			c-0.534-1.008-1.086-2.051-1.303-3.296c-0.297-1.704-0.193-3.637-0.101-5.343l0.023-0.424c0.048-0.923,0.22-1.833,0.386-2.714
			c0.138-0.734,0.28-1.486,0.348-2.24C32.612,35.126,32.436,35.158,32.254,35.17"/>
		<path style="fill:#FFFFFF;" d="M17.882,22.045c-0.105,2.067-0.087,4.037,0.051,5.946c0.039-0.099,0.081-0.201,0.127-0.31
			c0.109-0.284,0.273-0.527,0.481-0.713l0.052-0.046l0.066-0.023c0.822-0.29,1.691-0.425,2.734-0.425
			c0.712,0,1.435,0.063,2.134,0.125l0.381,0.034c0.218,0.034,0.412,0.078,0.591,0.133c1.133,0.348,1.722,1.149,1.75,2.383
			c0.018,0.763,0.059,2.548-0.376,4c-0.105,0.538-0.303,0.969-0.606,1.316c-0.544,0.778-1.3,1.173-2.25,1.173l-0.171-0.001
			c-1.22-0.011-2.87-0.027-3.858-0.923c0.265,1.079,0.573,2.15,0.931,3.221c1.749,5.237,2.569,10.482,2.443,15.619
			c1.541-3.245,2.077-6.7,2.641-10.329c0.174-1.125,0.355-2.289,0.567-3.431c0.333-1.793,0.896-3.594,1.442-5.335
			c0.323-1.034,0.649-2.079,0.931-3.132c0.008-0.167,0.023-0.334,0.057-0.499c0.057-0.277,0.101-0.562,0.143-0.837
			c0.094-0.606,0.195-1.245,0.45-1.792c0.158-1.165,0.206-2.338,0.077-3.514c0-0.001,0-0.002,0-0.004
			c-0.001,0-0.001-0.002-0.001-0.002c-0.358-3.245-1.989-6.19-3.565-9.039c-0.795-1.437-1.618-2.923-2.27-4.433
			c-0.029-0.067-0.062-0.152-0.099-0.248c-0.075-0.194-0.295-0.761-0.456-0.898c-0.005,0.005-0.012,0.012-0.02,0.019
			c-0.753,0.74-1.314,1.755-1.857,2.736c-0.105,0.19-0.209,0.379-0.313,0.561C18.801,15.65,18.058,18.566,17.882,22.045"/>
		<polyline style="fill:#FFFFFF;" points="9.825,26.436 9.823,26.437 9.825,26.446 9.825,26.436 		"/>
		<polyline style="fill:#FFFFFF;" points="9.825,26.436 9.823,26.437 9.825,26.446 9.825,26.436 		"/>
		<path style="fill:none;stroke:#FFFFFF;stroke-width:0.297;stroke-miterlimit:10;" d="M15.725,31.222
			c0.005-0.041,0.009-0.083,0.013-0.124c0.004-0.047,0.008-0.094,0.012-0.143c0.002-0.019,0.003-0.036,0.005-0.055
			c0.093-1.232,0.157-3.143-0.757-4.169c-0.039-0.046-0.079-0.089-0.121-0.13c-0.088-0.082-0.184-0.158-0.287-0.226
			c-0.102-0.069-0.21-0.129-0.325-0.182c-0.009,0.048-0.026,0.093-0.046,0.136c-0.003,0.009-0.008,0.017-0.012,0.026
			c-0.352,0.689-1.977,0.914-2.567,0.916c-0.252,0.002-0.587-0.033-0.906-0.112c-0.353-0.088-0.687-0.23-0.863-0.448
			c-0.02-0.04-0.037-0.081-0.048-0.125c-0.534,0.361-1.156,0.991-1.258,2.007c-0.005,0.053-0.007,0.106-0.01,0.16
			c-0.109,0.912,0.122,1.889,0.608,2.673c0.046,0.077,0.095,0.151,0.145,0.222c0.005,0.006,0.008,0.012,0.013,0.019
			c0.012,0.016,0.025,0.03,0.037,0.047c0.3,0.397,0.653,0.689,1.017,0.834c0.229,0.091,0.428,0.175,0.603,0.249
			c0.138,0.058,0.258,0.108,0.369,0.152c0.273,0.109,0.473,0.172,0.649,0.172c0.028,0,0.058-0.005,0.088-0.009
			c0.077-0.008,0.157-0.025,0.247-0.058c0.158-0.058,0.305-0.085,0.452-0.085c0.149,0,0.28,0.029,0.399,0.072
			c0.001,0,0.002,0,0.002,0c0.001,0.001,0.001,0.001,0.001,0.001c0.119,0.043,0.226,0.099,0.325,0.151
			c0.174,0.092,0.338,0.178,0.568,0.204c0.229,0.027,0.489-0.078,0.732-0.265c0.019-0.014,0.039-0.032,0.059-0.048
			c0.015-0.013,0.031-0.026,0.046-0.04c0.019-0.016,0.037-0.034,0.056-0.051c0.022-0.022,0.044-0.043,0.065-0.065
			c0.008-0.009,0.016-0.017,0.025-0.025c0.003-0.004,0.006-0.008,0.009-0.012c0.06-0.065,0.117-0.135,0.171-0.209
			c0.125-0.17,0.231-0.359,0.307-0.558c0.056-0.148,0.107-0.38,0.147-0.667c0.002-0.013,0.004-0.027,0.006-0.04
			C15.71,31.355,15.718,31.289,15.725,31.222z"/>
		<path style="fill:#FFFFFF;" d="M14.877,26.601C16.044,27.705,14.702,26.436,14.877,26.601"/>
		<path style="fill:#FFFFFF;" d="M9.702,26.733l0.616,0.254c0,0,0.559,0.352,1.759,0.184c1.2-0.168,1.775-0.502,1.971-0.754
			c0.197-0.252,0.253-0.341,0.253-0.341s-0.888-0.587-2.045-0.335c0,0-1.33,0.127-1.57,0.274
			C10.446,26.162,9.399,26.417,9.702,26.733"/>
		<path style="fill:none;stroke:#FFFFFF;stroke-width:0.298;stroke-miterlimit:10;" d="M25.457,28.683
			c-0.118-0.334-0.328-0.585-0.644-0.767c0.759,0.869-0.287,1.581-1.685,1.839c-0.372,0.023-0.735,0.03-1.031,0.047
			c-0.148-0.022-0.296-0.047-0.438-0.073c-0.481-0.092-1.196-0.16-1.717-0.409c-0.261-0.125-0.474-0.295-0.589-0.533
			c-0.217-0.344-0.301-0.725-0.269-1.006c-0.025,0.007-0.05,0.015-0.076,0.023c-0.003,0.002-0.005,0.007-0.008,0.01
			c-0.615,0.271-0.774,1.262-0.761,2.234c-0.016,0.188-0.024,0.377-0.016,0.566c0.048,0.346,0.101,0.692,0.158,1.035
			c0.025,0.107,0.05,0.213,0.074,0.318c0.163,0.713,0.03,0.131,0.003,0.013c0.19,0.829,0.356,1.544,0.97,2.156
			c0.381,0.381,0.96,0.574,1.587,0.673c0.001,0,0.002,0,0.002,0.001c0.638,0.101,1.571,0.226,2.353,0.089
			c0.266-0.035,0.506-0.114,0.722-0.24c0.017-0.01,0.033-0.019,0.049-0.029c0.033-0.021,0.065-0.04,0.096-0.063
			c0.011-0.008,0.023-0.014,0.033-0.022c0.027-0.02,0.052-0.044,0.078-0.065c0.137-0.115,0.263-0.25,0.378-0.41l0.027-0.034
			c0.191-0.206,0.323-0.469,0.41-0.789C25.753,31.861,25.98,29.854,25.457,28.683z"/>
		<path style="fill:#FFFFFF;" d="M19.048,27.634c0,0,0.158,1.566,0.976,1.731c0,0,2.34,0.489,3.462,0.342
			c0,0,1.611-0.743,1.592-1.221c-0.019-0.478-0.687-0.957-0.935-1.122c-0.247-0.166-0.909-0.293-2.249-0.293
			c-1.109,0-1.895,0.251-1.895,0.251L19.048,27.634z"/>
		<path style="fill:none;stroke:#FFFFFF;stroke-width:0.298;stroke-miterlimit:10;" d="M34.738,30.002
			c-0.054-0.103-0.078-0.218-0.089-0.292c-0.086-0.231-0.179-0.436-0.279-0.623c-0.08-0.151-0.168-0.283-0.261-0.407
			c-0.048-0.071-0.101-0.139-0.162-0.206c0.035,0.238-0.08,0.432-0.29,0.58c-0.007,0.003-0.014,0.006-0.021,0.01
			c-0.531,0.211-1.254,0.33-1.931,0.289c-0.867-0.111-1.695-0.491-1.889-1.172c-0.015-0.063-0.032-0.124-0.039-0.192
			c-0.052,0.034-0.1,0.071-0.145,0.109c-0.035,0.029-0.067,0.06-0.099,0.092c-0.004,0.005-0.009,0.009-0.013,0.013
			c-0.001,0.001-0.002,0.002-0.003,0.004c-0.667,0.689-0.634,1.947-0.813,2.8c-0.019,0.092-0.031,0.185-0.039,0.277
			c-0.003,0.033-0.005,0.066-0.006,0.099c-0.003,0.059-0.004,0.117-0.002,0.175c0.001,0.041,0.002,0.082,0.005,0.122
			c0.004,0.044,0.01,0.087,0.016,0.131c0.014,0.107,0.034,0.214,0.062,0.32c0.003,0.008,0.004,0.016,0.007,0.024
			c0.008,0.031,0.013,0.062,0.023,0.094c0.106,0.337,0.282,0.661,0.531,0.956c0.033,0.039,0.071,0.073,0.106,0.11
			c0.018,0.02,0.037,0.039,0.056,0.06c0.067,0.068,0.136,0.134,0.209,0.196c0.049,0.042,0.099,0.082,0.15,0.122
			c0.035,0.027,0.07,0.053,0.106,0.078c0.086,0.061,0.175,0.117,0.267,0.169c0.021,0.012,0.042,0.023,0.063,0.035
			c0.037,0.019,0.074,0.04,0.111,0.058c0.07,0.034,0.138,0.063,0.206,0.092c0.001,0,0.003,0.002,0.004,0.002
			c0.551,0.232,1.058,0.306,1.514,0.253c0.037-0.001,0.073,0.001,0.11-0.001c0.218-0.016,0.425-0.062,0.621-0.137
			c0.32-0.122,0.609-0.325,0.864-0.603c0.027-0.029,0.054-0.056,0.079-0.086c0.473-0.561,0.767-1.331,0.903-2.088
			c0.071-0.361,0.102-0.731,0.092-1.096C34.782,30.513,34.795,30.535,34.738,30.002z"/>
		<path style="fill:#FFFFFF;" d="M29.836,27.765c0,0-0.147,1.294,1.314,1.493c0,0,3.569,0.271,2.684-1.148
			c0,0-0.729-0.6-1.703-0.673c-0.974-0.073-1.405,0.037-1.405,0.037L29.836,27.765z"/>
	</g>
</g>
</svg>
