<?xml version="1.0" encoding="iso-8859-1"?>
<!-- Generator: Adobe Illustrator 18.0.0, SVG Export Plug-In . SVG Version: 6.00 Build 0)  -->
<!DOCTYPE svg PUBLIC "-//W3C//DTD SVG 1.1//EN" "http://www.w3.org/Graphics/SVG/1.1/DTD/svg11.dtd">
<svg version="1.1" id="Layer_1" xmlns="http://www.w3.org/2000/svg" xmlns:xlink="http://www.w3.org/1999/xlink" x="0px" y="0px"
	 viewBox="0 0 148.275 62.889" style="enable-background:new 0 0 148.275 62.889;" xml:space="preserve">
<g>
	<path style="fill:#FFFFFF;" d="M55.396,38.454c-0.739-0.246-1.551-0.362-2.42-0.362c-1.782,0-3.535,0.825-3.535,3.086
		c0,3.346,4.434,2.549,4.434,4.477c0,0.913-1.03,1.303-1.797,1.303c-0.797,0-1.594-0.246-2.29-0.623L49.6,48.162
		c1,0.246,1.493,0.391,2.594,0.391c2.043,0,3.796-0.84,3.796-3.057c0-3.391-4.433-2.652-4.433-4.404
		c0-1.102,0.898-1.407,1.593-1.407c0.71,0,1.42,0.159,2.057,0.436L55.396,38.454z"/>
	<path style="fill-rule:evenodd;clip-rule:evenodd;fill:#FFFFFF;" d="M56.819,44.7c0,2.144,1.435,3.853,3.897,3.853
		c2.478,0,3.912-1.709,3.912-3.853c0-2.464-1.696-3.957-3.912-3.957C58.514,40.743,56.819,42.236,56.819,44.7 M58.847,44.467
		c0-1.116,0.608-2.217,1.869-2.217c1.275,0,1.883,1.073,1.883,2.217c0,1.246-0.39,2.579-1.883,2.579
		C59.238,47.046,58.847,45.698,58.847,44.467"/>
	<path style="fill:#FFFFFF;" d="M72.644,40.917h-1.941v3.651c0,0.956-0.305,2.478-1.71,2.478c-1.247,0-1.26-1.233-1.26-2.145v-3.984
		h-1.942v4.709c0,1.68,0.768,2.926,2.535,2.926c1.015,0,1.855-0.463,2.449-1.188h0.028v1.014h1.841V40.917z"/>
	<path style="fill:#FFFFFF;" d="M74.922,46.133c0,1.478,0.841,2.419,2.362,2.419c0.579,0,1.028-0.057,1.434-0.174l-0.058-1.535
		c-0.203,0.131-0.536,0.203-0.884,0.203c-0.739,0-0.913-0.595-0.913-1.231v-3.478h1.724v-1.42h-1.724V38.8l-1.941,0.626v1.491
		h-1.434v1.42h1.434V46.133z"/>
	<path style="fill:#FFFFFF;" d="M79.56,48.378h1.941v-3.651c0-0.956,0.304-2.478,1.71-2.478c1.245,0,1.26,1.233,1.26,2.145v3.984
		h1.942v-4.709c0-1.68-0.768-2.926-2.536-2.926c-1.014,0-1.855,0.463-2.347,1.188h-0.029v-4.419H79.56V48.378z"/>
	<path style="fill-rule:evenodd;clip-rule:evenodd;fill:#FFFFFF;" d="M97.369,44.467h-2.956l1.464-4.173h0.029L97.369,44.467z
		 M90.849,48.378h2.102l0.883-2.317h4.1l0.869,2.317h2.246L97.08,38.266h-2.29L90.849,48.378z"/>
	<path style="fill:#FFFFFF;" d="M108.675,40.917h-1.941v3.651c0,0.956-0.304,2.478-1.71,2.478c-1.245,0-1.26-1.233-1.26-2.145
		v-3.984h-1.942v4.709c0,1.68,0.768,2.926,2.536,2.926c1.014,0,1.854-0.463,2.448-1.188h0.03v1.014h1.839V40.917z"/>
	<path style="fill:#FFFFFF;" d="M114.88,41.018c-0.609-0.131-1.203-0.275-2.115-0.275c-1.522,0-2.928,0.709-2.928,2.318
		c0,2.695,3.376,1.695,3.376,3.158c0,0.725-0.782,0.914-1.274,0.914c-0.667,0-1.304-0.189-1.913-0.494l-0.116,1.595
		c0.71,0.189,1.463,0.318,2.202,0.318c1.579,0,3.13-0.695,3.13-2.434c0-2.695-3.377-1.941-3.377-3.129
		c0-0.638,0.623-0.826,1.146-0.826c0.71,0,1.144,0.116,1.738,0.319L114.88,41.018z"/>
	<path style="fill:#FFFFFF;" d="M117.027,46.133c0,1.478,0.841,2.419,2.362,2.419c0.579,0,1.028-0.057,1.434-0.174l-0.058-1.535
		c-0.203,0.131-0.537,0.203-0.884,0.203c-0.739,0-0.913-0.595-0.913-1.231v-3.478h1.725v-1.42h-1.725V38.8l-1.941,0.626v1.491
		h-1.435v1.42h1.435V46.133z"/>
	<path style="fill:#FFFFFF;" d="M121.708,48.378h1.941v-2.739c0-1.07,0-3.042,1.58-3.042c0.348,0,0.695,0.059,0.869,0.16v-1.956
		c-0.203-0.058-0.405-0.058-0.594-0.058c-1.159,0-1.957,1.174-2.042,1.869h-0.03v-1.695h-1.724V48.378z"/>
	<path style="fill-rule:evenodd;clip-rule:evenodd;fill:#FFFFFF;" d="M127.33,42.974c0.652-0.492,1.477-0.811,2.303-0.811
		c1.146,0,1.682,0.405,1.682,1.608h-1.074c-0.81,0-1.767,0.073-2.506,0.434c-0.738,0.364-1.274,1.014-1.274,2.13
		c0,1.42,1.289,2.217,2.608,2.217c0.883,0,1.854-0.463,2.303-1.29h0.03c0.015,0.233,0.015,0.725,0.087,1.116h1.709
		c-0.044-0.58-0.073-1.1-0.087-1.666c-0.014-0.549-0.029-1.116-0.029-1.869v-0.956c0-2.202-0.942-3.144-3.217-3.144
		c-0.826,0-1.84,0.217-2.593,0.565L127.33,42.974z M128.315,46.219c0-1.144,1.29-1.289,2.159-1.289h0.841
		c0,0.58-0.087,1.116-0.407,1.535c-0.303,0.407-0.767,0.667-1.362,0.667C128.851,47.132,128.315,46.857,128.315,46.219"/>
	<rect x="134.679" y="37.512" style="fill:#FFFFFF;" width="1.941" height="10.866"/>
	<path style="fill-rule:evenodd;clip-rule:evenodd;fill:#FFFFFF;" d="M138.345,48.378h1.941v-7.461h-1.941V48.378z M138.345,39.556
		h1.941v-1.854h-1.941V39.556z"/>
	<path style="fill-rule:evenodd;clip-rule:evenodd;fill:#FFFFFF;" d="M142.358,42.974c0.653-0.492,1.477-0.811,2.303-0.811
		c1.146,0,1.682,0.405,1.682,1.608h-1.072c-0.811,0-1.768,0.073-2.508,0.434c-0.738,0.364-1.274,1.014-1.274,2.13
		c0,1.42,1.289,2.217,2.608,2.217c0.884,0,1.854-0.463,2.303-1.29h0.03c0.015,0.233,0.015,0.725,0.087,1.116h1.709
		c-0.044-0.58-0.073-1.1-0.087-1.666c-0.014-0.549-0.029-1.116-0.029-1.869v-0.956c0-2.202-0.942-3.144-3.217-3.144
		c-0.825,0-1.84,0.217-2.592,0.565L142.358,42.974z M143.343,46.219c0-1.144,1.29-1.289,2.159-1.289h0.841
		c0,0.58-0.087,1.116-0.407,1.535c-0.303,0.407-0.767,0.667-1.362,0.667C143.879,47.132,143.343,46.857,143.343,46.219"/>
	<path style="fill:#FFFFFF;" d="M57.801,24.015c-0.869-0.261-1.797-0.42-2.97-0.42c-3.434,0-5.549,1.941-5.549,5.405
		c0,3.418,2.274,5.056,5.549,5.056c1.086,0,2.201-0.232,3.275-0.522v-5.447h-4.087v1.593h2.144v2.637
		c-0.347,0.087-0.782,0.145-1.332,0.145c-2.159,0-3.434-1.551-3.434-3.608c0-2.072,1.304-3.665,3.665-3.665
		c0.811,0,1.826,0.173,2.608,0.536L57.801,24.015z"/>
	<path style="fill-rule:evenodd;clip-rule:evenodd;fill:#FFFFFF;" d="M59.226,30.201c0,2.146,1.435,3.856,3.897,3.856
		c2.478,0,3.912-1.71,3.912-3.856c0-2.462-1.696-3.955-3.912-3.955C60.921,26.246,59.226,27.739,59.226,30.201 M61.254,29.97
		c0-1.116,0.608-2.216,1.869-2.216c1.275,0,1.883,1.072,1.883,2.216c0,1.246-0.39,2.579-1.883,2.579
		C61.645,32.549,61.254,31.201,61.254,29.97"/>
	<polygon style="fill:#FFFFFF;" points="70.139,33.882 72.327,33.882 75.08,26.42 73.139,26.42 71.342,31.854 71.313,31.854 
		69.458,26.42 67.372,26.42 	"/>
	<path style="fill-rule:evenodd;clip-rule:evenodd;fill:#FFFFFF;" d="M77.27,29.42c0.087-1,0.638-1.754,1.724-1.754
		c1.087,0,1.521,0.811,1.581,1.754H77.27z M81.878,31.882c-0.725,0.405-1.536,0.754-2.479,0.754c-1.202,0-2.042-0.682-2.129-1.884
		h5.158c0-2.608-0.783-4.506-3.55-4.506c-2.318,0-3.463,1.782-3.463,3.941c0,2.449,1.435,3.869,3.899,3.869
		c1.042,0,1.854-0.203,2.564-0.595V31.882z"/>
	<path style="fill:#FFFFFF;" d="M83.633,33.882h1.941v-2.739c0-1.072,0-3.042,1.58-3.042c0.348,0,0.696,0.058,0.869,0.16v-1.957
		c-0.203-0.058-0.405-0.058-0.594-0.058c-1.159,0-1.955,1.174-2.042,1.869h-0.03V26.42h-1.724V33.882z"/>
	<path style="fill:#FFFFFF;" d="M89.126,33.882h1.941v-3.651c0-0.957,0.305-2.478,1.71-2.478c1.246,0,1.26,1.233,1.26,2.144v3.985
		h1.943v-4.709c0-1.681-0.769-2.927-2.536-2.927c-1.015,0-1.84,0.333-2.449,1.189h-0.028V26.42h-1.841V33.882z"/>
	<path style="fill:#FFFFFF;" d="M97.591,33.882h1.941V30.26c0-0.971,0.16-2.507,1.449-2.507c1.116,0,1.116,0.985,1.116,1.682v4.447
		h1.942V30.26c0-0.971,0.16-2.507,1.448-2.507c1.116,0,1.116,0.985,1.116,1.682v4.447h1.941v-4.709c0-1.666-0.521-2.927-2.361-2.927
		c-0.914,0-1.884,0.42-2.333,1.319c-0.42-0.927-1.159-1.319-2.202-1.319c-0.724,0-1.608,0.305-2.216,1.217h-0.029V26.42h-1.812
		V33.882z"/>
	<path style="fill-rule:evenodd;clip-rule:evenodd;fill:#FFFFFF;" d="M111.52,29.42c0.087-1,0.637-1.754,1.724-1.754
		c1.087,0,1.522,0.811,1.581,1.754H111.52z M116.128,31.882c-0.724,0.405-1.536,0.754-2.477,0.754c-1.203,0-2.044-0.682-2.131-1.884
		h5.159c0-2.608-0.782-4.506-3.551-4.506c-2.318,0-3.462,1.782-3.462,3.941c0,2.449,1.434,3.869,3.898,3.869
		c1.043,0,1.854-0.203,2.564-0.595V31.882z"/>
	<path style="fill:#FFFFFF;" d="M117.841,33.882h1.941v-3.651c0-0.957,0.305-2.478,1.71-2.478c1.245,0,1.26,1.233,1.26,2.144v3.985
		h1.943v-4.709c0-1.681-0.769-2.927-2.536-2.927c-1.015,0-1.841,0.333-2.449,1.189h-0.028V26.42h-1.841V33.882z"/>
	<path style="fill:#FFFFFF;" d="M126.972,31.636c0,1.478,0.841,2.42,2.362,2.42c0.579,0,1.028-0.058,1.434-0.174l-0.058-1.536
		c-0.202,0.131-0.536,0.203-0.884,0.203c-0.739,0-0.913-0.595-0.913-1.231V27.84h1.725v-1.42h-1.725v-2.115l-1.941,0.623v1.492
		h-1.434v1.42h1.434V31.636z"/>
	<path style="fill-rule:evenodd;clip-rule:evenodd;fill:#FFFFFF;" d="M134.797,30.201c0,2.146,1.434,3.856,3.897,3.856
		c2.478,0,3.913-1.71,3.913-3.856c0-2.462-1.695-3.955-3.913-3.955C136.493,26.246,134.797,27.739,134.797,30.201 M136.826,29.97
		c0-1.116,0.608-2.216,1.869-2.216c1.275,0,1.884,1.072,1.884,2.216c0,1.246-0.391,2.579-1.884,2.579
		C137.217,32.549,136.826,31.201,136.826,29.97"/>
	<path style="fill:#FFFFFF;" d="M144.479,33.882h1.941V27.84h1.695v-1.42h-1.695v-0.927c0-0.579,0.203-1.145,0.855-1.145
		c0.42,0,0.666,0.16,0.84,0.261l0.16-1.608c-0.376-0.087-0.927-0.159-1.419-0.159c-1.536,0-2.377,1.043-2.377,2.535v1.043h-1.435
		v1.42h1.435V33.882z"/>
	<path style="fill:#FFFFFF;" d="M30.788,31.407c-0.877-2.005-2.696-4.017-4.663-5.112c-3.458-2.127-8.853-1.956-12.104,0.499
		c-3.549,2.594-5.39,6.595-4.636,11.029c0.556,4.075,4.158,8.084,8.199,8.961c4.14,1.041,8.279-0.158,11.162-3.195
		C31.745,40.492,32.661,35.321,30.788,31.407 M17.716,46.626c-3.793-0.751-7.264-4.466-8.017-8.2
		c-1.06-4.558,0.779-8.906,4.533-11.552c3.15-2.299,8.239-2.509,11.605-0.525c1.927,1.01,3.746,2.942,4.662,4.873
		c1.914,3.688,1.181,8.829-1.571,11.894C26.067,46.365,21.966,47.642,17.716,46.626"/>
	<path style="fill:#FFFFFF;" d="M7.211,45.029l2.382-1.258c0.347-0.103,0.657,0.045,0.891,0.287l0.054-0.05l-0.734-1.337H9.699
		l0.054,0.367c-0.021,0.256-0.172,0.484-0.394,0.63c-0.943,0.43-1.768,1.295-2.855,1.203c-0.492-0.189-0.761-0.707-0.789-1.203
		c0.021-0.32,0.133-0.604,0.422-0.814l2.436-1.363l0.261-0.05c0.172,0.043,0.197,0.348,0.393,0.261
		c-0.221-0.531-0.557-1.015-0.837-1.52H8.311c-0.045,0.185,0.216,0.432-0.027,0.605L5.98,42.068
		c-0.265,0.159-0.571,0.393-0.63,0.707c-0.137,0.734,0.17,1.356,0.603,1.885C6.26,45.054,6.771,45.106,7.211,45.029"/>
	<path style="fill:#FFFFFF;" d="M35.401,43.903c0.282-0.486,0.49-1.048,0.732-1.574c-0.222-0.102-0.222,0.318-0.472,0.318
		l-3.117-1.417c-0.358-0.078-0.169-0.421-0.183-0.657h-0.079c-0.268,0.519-0.522,1.044-0.705,1.601
		c0.202-0.033,0.248-0.381,0.494-0.341l3.25,1.52c0.12,0.17,0,0.367,0,0.55H35.401z"/>
	<path style="fill:#FFFFFF;" d="M31.523,48.722c0.801-0.741,1.531-1.523,2.279-2.331l-0.916-1.259
		c-0.034,0.007-0.086-0.019-0.107,0.027c0.342,0.532,0.487,1.441,0.079,1.989c-0.17,0.198-0.381,0.597-0.706,0.448l-2.568-2.384
		c-0.158-0.241,0.172-0.38,0.132-0.578h-0.077l-1.156,1.18c0.112,0.283,0.321-0.243,0.552-0.079l2.592,2.438
		c0.079,0.196-0.13,0.341-0.154,0.523C31.484,48.708,31.497,48.728,31.523,48.722"/>
	<path style="fill:#FFFFFF;" d="M12.503,47.57c0.301-0.353,0.544-0.736,0.812-1.101v-0.158l-0.235,0.054
		c-0.145-0.104-0.204-0.248-0.263-0.392c-0.367-0.681-1.211-1.002-1.885-0.63c-1.48,0.997,0.458,2.102,0.156,3.273
		c-0.156,0.272-0.431,0.493-0.759,0.473c-0.341-0.005-0.597-0.263-0.812-0.497c-0.407-0.661,0.052-1.356,0.314-1.938H9.753
		c-0.361,0.412-0.755,0.856-1.128,1.283v0.129c0.138-0.025,0.262-0.078,0.369,0.055c0.319,0.569,0.863,1.151,1.545,1.204
		c0.385,0.019,0.72-0.105,0.995-0.366c1.04-1.061-0.498-1.993-0.369-3.092c0.106-0.249,0.361-0.451,0.63-0.473
		c0.224,0.044,0.446,0.094,0.604,0.288c0.555,0.533,0.175,1.323,0.025,1.888H12.503z"/>
	<path style="fill:#FFFFFF;" d="M17.691,49.221c0.089,0.183,0.025,0.458,0.156,0.602c0.118-0.485,0.197-0.983,0.237-1.494
		c-1.009-0.189-1.932-0.587-2.883-0.915l-0.314-0.209l-0.734,1.152c0,0.059-0.117,0.163,0,0.183
		c0.478-0.477,1.023-0.806,1.731-0.735c0.051,0.029,0.148,0.047,0.13,0.132c-0.44,1.152-0.792,2.34-1.31,3.458
		c-0.204,0.079-0.419-0.041-0.603,0v0.053c0.596,0.256,1.224,0.438,1.834,0.654l0.053-0.052c-0.118-0.176-0.433-0.164-0.472-0.419
		l1.256-3.486C17.245,48.278,17.578,48.782,17.691,49.221"/>
	<path style="fill:#FFFFFF;" d="M3.857,38.269c-0.032,0.009-0.11-0.018-0.104,0.025c0.04,0.527,0.092,1.115,0.183,1.653
		c0.19-0.032,0.039-0.355,0.262-0.445c1.284-0.753,2.574-1.541,3.852-2.252l-0.054-0.055c-0.379,0.055-0.694-0.543-1.02-0.156
		c-1.075-0.348-2.259-0.427-3.223-1.049c-0.125-0.111-0.099-0.354-0.288-0.367c0,0.48,0.092,0.984,0.156,1.467
		c0.23-0.039,0.086-0.366,0.315-0.469c0.381-0.244,0.819-0.009,1.18,0.103l0.13,1.284c-0.321,0.293-0.734,0.479-1.126,0.655
		C3.891,38.663,3.936,38.401,3.857,38.269 M6.766,37.143c-0.394,0.314-0.879,0.536-1.336,0.761l-0.105-1.126L6.766,37.143z"/>
	<path style="fill:#FFFFFF;" d="M21.199,50.765c0.671,0.445,0.874,1.225,1.311,1.833c0.407,0.021,0.786-0.029,1.18-0.049v-0.08
		c-0.669,0.044-0.82-0.713-1.102-1.126c-0.151-0.388-0.582-0.618-0.916-0.735c0.437-0.138,0.976-0.332,1.153-0.836
		c0.085-0.324-0.019-0.624-0.211-0.867c-0.816-0.754-2.094-0.323-3.145-0.366l-0.077,0.052c0.137,0.137,0.438,0.034,0.523,0.288
		l0.132,3.486c-0.08,0.263-0.386,0.129-0.499,0.315l0.054,0.051l1.572-0.051c0.079,0.013,0.197-0.028,0.156-0.131
		c-0.178-0.042-0.379-0.008-0.498-0.184l-0.078-1.547l0.053-0.078C20.938,50.747,21.081,50.718,21.199,50.765 M20.729,48.643
		c0.348,0.015,0.726-0.052,0.995,0.158c0.36,0.373,0.322,0.977,0.132,1.416c-0.262,0.344-0.681,0.306-1.075,0.34
		C20.722,49.933,20.671,49.28,20.729,48.643"/>
	<path style="fill:#FFFFFF;" d="M28.066,50.896c0.515-0.19,1.012-0.445,1.517-0.679v-0.053H29.19l-3.459-2.908l-0.05,0.053
		c0.189,0.366-0.293,0.889,0.207,1.048l0.158,2.408c0,0.439-0.044,0.938-0.418,1.231c0.453-0.111,0.91-0.387,1.362-0.577v-0.076
		h-0.365c-0.486-0.177-0.428-0.715-0.499-1.126c0.372-0.265,0.826-0.454,1.258-0.63L28.3,50.4
		C28.464,50.655,28.019,50.711,28.066,50.896 M26.178,49.952c-0.124-0.466-0.085-0.993-0.132-1.491
		c0.394,0.3,0.799,0.655,1.154,0.996L26.178,49.952z"/>
	<path style="fill:#FFFFFF;" d="M37.078,36.904c0.176,0.102,0.083,0.316,0.183,0.448l0.077-0.027
		c0.047-0.542,0.123-1.099,0.13-1.624c-0.176,0.027-0.076,0.262-0.235,0.343c-1.421,0.489-2.856,0.954-4.295,1.389v0.076
		c0.379,0.013,0.597,0.726,0.996,0.366l2.435,1.284c0.334,0.189,0.577,0.532,0.657,0.865c0.155-0.459,0.128-0.988,0.182-1.494
		c-0.216,0.047-0.202,0.367-0.448,0.422c-0.422,0.094-0.764-0.165-1.099-0.368l0.133-1.284
		C36.165,37.09,36.617,36.959,37.078,36.904 M35.504,38.48c-0.478-0.14-0.89-0.44-1.336-0.659c0.439-0.193,0.943-0.352,1.443-0.469
		L35.504,38.48z"/>
	<path style="fill:#FFFFFF;" d="M19.811,19.091c-0.562,0.021-1.216-0.046-1.781,0.053c0.072,0.204,0.4,0.02,0.498,0.263l0.079,2.67
		c0.019,0.38,0.125,0.716,0.445,0.97c0.544,0.354,1.323,0.434,1.966,0.237c1.158-0.381,0.681-1.808,0.76-2.672
		c0.019-0.459-0.087-0.964,0.26-1.285c0.119-0.143,0.359-0.099,0.421-0.262c-0.466-0.084-0.924,0.059-1.389-0.026l-0.183,0.052
		c0.116,0.137,0.387,0.144,0.523,0.342c0.393,0.713,0.118,1.709,0.235,2.54c0.02,0.419-0.117,0.793-0.446,1.049
		c-0.353,0.254-0.87,0.19-1.256,0.051c-0.263-0.123-0.503-0.399-0.55-0.681l-0.079-2.933l0.104-0.158
		C19.536,19.191,19.836,19.32,19.811,19.091"/>
	<path style="fill:#FFFFFF;" d="M24.764,23.782c-0.159,0-0.387-0.118-0.473,0c0.527,0.276,1.097,0.452,1.625,0.708
		c0.067,0.032,0.21,0.058,0.237-0.027c-0.158-0.156-0.421-0.203-0.473-0.446c0.46-1.158,0.893-2.324,1.415-3.457
		c0.411,0.151,0.681,0.589,0.812,0.969c0.059,0.249,0.093,0.536,0.158,0.759c0.144-0.483,0.248-0.981,0.316-1.493h-0.187
		L25.576,19.8l-0.341-0.236c-0.328,0.406-0.595,0.831-0.812,1.284c0.543-0.413,1.206-0.865,1.915-0.575
		c-0.362,1.047-0.846,2.042-1.208,3.089C25.039,23.513,25.026,23.814,24.764,23.782"/>
	<path style="fill:#FFFFFF;" d="M28.616,25.511c-0.23,0.25-0.43-0.132-0.63-0.104v0.078c0.381,0.38,0.798,0.799,1.179,1.178
		c0.28-0.104-0.216-0.314-0.079-0.522l1.258-1.284h0.08c0.398,0.419,0.857,0.811,1.203,1.254l-1.152,1.156
		c-0.217,0.366-0.473-0.138-0.68-0.028c0.326,0.426,0.765,0.808,1.152,1.205h0.129c0.007-0.182-0.233-0.27-0.182-0.47l2.515-2.567
		c0.228-0.146,0.354,0.144,0.55,0.156l0.05-0.078l-1.098-1.127c-0.064-0.02-0.149-0.15-0.211-0.027
		c0.636,0.662-0.593,1.067-0.89,1.599h-0.076c-0.394-0.438-0.852-0.752-1.208-1.23l1.075-1.102c0.237-0.151,0.346,0.15,0.55,0.158
		c0.045-0.02,0.02-0.072,0.027-0.105l-1.18-1.18c-0.288,0.112,0.211,0.301,0.078,0.551L28.616,25.511z"/>
	<path style="fill:#FFFFFF;" d="M7.97,24.28c-0.432,0.367-0.59,0.909-0.472,1.441c0.688,1.84,2.24-0.059,3.38,0.209
		c0.262,0.145,0.452,0.414,0.472,0.707c-0.006,0.407-0.328,0.774-0.682,0.942c-0.674,0.192-1.25-0.174-1.782-0.496l-0.051,0.051
		c0.426,0.433,0.884,0.892,1.362,1.26l0.052-0.054c-0.02-0.072-0.071-0.125-0.052-0.209c0.138-0.196,0.373-0.289,0.576-0.393
		c0.498-0.355,0.891-0.839,0.839-1.468c-0.073-0.367-0.216-0.734-0.551-0.969c-1.067-0.617-1.906,0.577-2.959,0.394
		c-0.211-0.152-0.393-0.356-0.42-0.603c0.045-0.262,0.151-0.498,0.392-0.681c0.569-0.459,1.305-0.053,1.86,0.158v-0.106
		l-1.126-0.917H8.729C8.846,24.051,8.213,24.004,7.97,24.28"/>
	<path style="fill:#FFFFFF;" d="M16.066,23.625c0.333-0.591,0.386-1.461,0.051-2.069c-0.438-0.859-1.342-1.278-2.305-1.206
		c-0.85,0.079-1.663,0.784-1.912,1.599c-0.19,0.694-0.033,1.44,0.367,1.99c0.497,0.622,1.185,0.883,1.965,0.865
		C14.985,24.75,15.679,24.281,16.066,23.625 M12.529,22.393c-0.105-0.491-0.079-1.053,0.287-1.413
		c0.356-0.328,0.865-0.499,1.337-0.315c0.714,0.295,1.133,1.087,1.389,1.754c0.189,0.492,0.229,1.252-0.131,1.678
		c-0.276,0.293-0.615,0.425-0.996,0.472C13.308,24.503,12.797,23.273,12.529,22.393"/>
	<path style="fill:#FFFFFF;" d="M20.577,17.692c7.808,0,14.486,4.883,17.11,11.766l2.079-0.769
		C36.823,20.956,29.342,15.46,20.577,15.46c-8.763,0-16.235,5.488-19.181,13.215l2.085,0.783
		C6.109,22.578,12.771,17.692,20.577,17.692"/>
	<path style="fill:#FFFFFF;" d="M20.577,54.276c-8.98,0-16.444-6.464-17.996-14.997l-2.194,0.416
		c1.746,9.563,10.12,16.813,20.19,16.813c10.069,0,18.446-7.25,20.193-16.816l-2.196-0.413
		C37.025,47.812,29.555,54.276,20.577,54.276"/>
	<path style="fill:#FFFFFF;" d="M28.771,37.194c0.253-0.125,0.586-0.067,0.863-0.147h-0.038l0.014-0.002h0.024
		c0.008-0.001,0.019-0.003,0.029-0.008c0.006-0.018,0.01-0.039,0.011-0.057c0.04-0.3-0.265-0.535-0.325-0.782l0.811-0.391
		c-0.014-0.294-0.388-0.394-0.497-0.629c0.243-0.178,0.511-0.281,0.761-0.446l0.025-0.131c-0.249-0.268-0.571-0.458-0.892-0.602
		l-0.026-0.079l0.575-0.524v-0.13c-0.228-0.229-0.575-0.192-0.837-0.34c0.017-0.036,0.038-0.067,0.062-0.095
		c0.168-0.208,0.496-0.312,0.54-0.587c-0.165-0.191-0.403-0.177-0.629-0.21c-0.151,0-0.32,0.106-0.444,0
		c0.163-0.302,0.523-0.452,0.6-0.784c-0.508-0.204-1.026,0.135-1.492,0.207c0.14-0.216,0.308-0.386,0.524-0.524
		c0.203-0.189,0.611-0.379,0.498-0.68c-0.503,0-0.922,0.195-1.335,0.419c-0.3,0.105-0.548,0.419-0.838,0.471
		c0.209-0.268,0.55-0.431,0.787-0.734c0.222-0.243,0.182-0.595,0.469-0.811c0.02-0.151,0.19-0.294,0.054-0.445
		c-0.708,0.177-1.337,0.706-1.808,1.281l-0.054-0.05c0.205-0.294,0.283-0.637,0.577-0.891c0.158-0.34,0.472-0.753,0.237-1.127
		c-0.703,0.211-1.055,0.984-1.468,1.493c-0.078-0.084-0.062-0.203-0.078-0.313c0.372-0.485,0.359-1.14,0.417-1.755
		c0.007-0.107-0.085-0.225-0.181-0.158c-0.414,0.308-0.524,0.779-0.708,1.205l-0.054-0.053v-1.048
		c-0.025-0.28-0.122-0.628-0.418-0.707c-0.3,0.294-0.184,0.761-0.314,1.126c-0.118,0-0.136-0.137-0.209-0.208
		c-0.04-0.04-0.13-0.04-0.157,0.026c-0.087,1.545,0.033,2.978,0.13,4.479c-0.062,0.122-0.114,0.249-0.155,0.378
		c-0.334,0.991-0.211,2.167-1.102,2.924c-0.231,0.175-0.511-0.006-0.786,0.052c-0.151-0.184-0.136-0.437-0.211-0.654
		c-0.359-1.003-1.441-1.265-2.278-1.6c-0.183-0.019-0.473-0.085-0.602,0.054c0.287,0.142,0.59,0.307,0.785,0.603l-0.052,0.051
		c-0.243-0.086-0.525-0.158-0.786-0.131c0.157,0.439,0.679,0.491,0.943,0.839c0.039,0.313,0.077,0.692-0.236,0.89
		c-0.216,0.143-0.313-0.144-0.499-0.157c-0.183-0.018-0.411,0.164-0.548-0.054c-0.065-0.542-0.826-0.797-0.655-1.438
		c-0.221-0.438-0.389-0.893-0.48-1.383c-0.04-0.221-0.066-0.452-0.07-0.687c0.164-1.356,0.811-2.744,0.34-4.141
		c-0.197,0.013-0.223,0.25-0.393,0.315l-0.054-0.052c0.015-0.421-0.011-0.82-0.076-1.204l-0.107-0.211
		c-0.235,0.123-0.393,0.412-0.443,0.681c0.129,0.628-0.022,1.27-0.028,1.912c-0.163-0.294-0.195-0.642-0.287-0.969
		c-0.165-0.347-0.23-0.87-0.655-0.969c-0.283,0.413-0.021,0.922-0.027,1.389c0.052,0.262,0.341,0.491,0.157,0.785l-0.603-0.838
		c-0.203-0.222-0.445-0.557-0.733-0.549c-0.059,0.549,0.276,0.935,0.445,1.387c0.066,0.224,0.308,0.406,0.288,0.629
		c-0.615-0.433-1.151-0.944-1.86-1.075c-0.064,0.584,0.577,0.943,0.866,1.416l-0.054,0.051c-0.353-0.156-0.694-0.339-1.021-0.55
		c-0.216-0.045-0.426-0.261-0.655-0.103c0,0.418,0.269,0.744,0.551,1.021c-0.354,0.046-0.748-0.204-1.101,0
		c0.072,0.312,0.452,0.504,0.55,0.811c-0.333,0.177-0.78,0.067-1.127,0.21c0.086,0.25,0.334,0.426,0.471,0.655l-0.077,0.079
		c-0.034,0-0.069,0.003-0.1,0.011c-0.229,0.034-0.413,0.183-0.608,0.303c0.032,0.315,0.426,0.486,0.575,0.786
		c-0.253,0.164-0.535,0.387-0.707,0.655c0.185,0.256,0.486,0.351,0.629,0.603c-0.19,0.256-0.563,0.41-0.576,0.761
		c0.183,0.207,0.485,0.22,0.708,0.391c-0.111,0.203-0.326,0.387-0.262,0.63c0.073,0.038,0.152,0.066,0.233,0.089
		c0.245,0.062,0.517,0.066,0.763,0.12c-0.086,0.211-0.152,0.425-0.183,0.653c0.197,0.257,0.622,0.144,0.89,0.211
		c-0.021,0.21-0.164,0.438-0.183,0.683c0.255,0.162,0.576,0.018,0.864,0.025c0.171-0.039,0.191,0.15,0.21,0.263
		c0.053,0.366,0.419,0.065,0.655,0.156l0.261,0.446c0.145,0.013,0.275-0.014,0.394-0.079c0.21-0.132,0.307,0.11,0.392,0.235
		c0.151,0.238,0.368,0,0.551,0c0.137,0.065,0.189,0.211,0.288,0.315c0.196,0.111,0.307-0.13,0.445-0.236
		c0.262-0.137,0.361,0.261,0.577,0.315c0.249-0.203,0.522-0.269,0.837-0.156c0.347-0.296,0.307-0.755,0.342-1.179
		c0.026-0.072,0.051-0.192,0.157-0.184c0.143,0.595,0.522,1.255,0.079,1.833c-0.287,0.204-0.535,0.525-0.809,0.781
		c-0.332,0.316-0.704,0.541-1.235,0.371c-0.393,0.35-1.114-0.057-1.414,0.447c-0.061,0.168-0.021,0.365,0.103,0.498
		c0.237,0.143,0.63,0.104,0.838,0.079c0.146,0.083,0.282,0.162,0.473,0.13c0.164-0.255,0.339-0.008,0.523,0.028
		c0.191,0.004,0.349-0.232,0.524-0.107c-0.175,0.289-0.38,0.559-0.444,0.892c-0.021,0.235,0.365,0.168,0.261,0.443
		c0.06,0.203,0.276,0.132,0.393,0.236c0.015,0.341,0.394,0.25,0.602,0.341c0.067,0.589,0.715-0.079,0.839,0.471
		c0.138,0,0.242-0.093,0.366-0.131c0.157,0.022,0.275,0.197,0.367,0.317c0.265,0.207,0.362-0.14,0.549-0.264l0.473,0.185
		l0.317-0.367c0.365,0.266,0.497-0.268,0.838-0.16c0.235,0.03,0.208-0.241,0.313-0.367c0.406,0.059,0.347-0.501,0.733-0.497
		c0.026-0.456-0.386-0.726-0.497-1.125c0.154-0.091,0.281,0.045,0.393,0.133c0.242,0.076,0.366-0.127,0.552-0.185
		c0.333,0.516,0.665-0.198,1.098-0.052c0.196-0.065,0.38-0.27,0.341-0.498c-0.047-0.107-0.112-0.243-0.236-0.261
		c-0.648,0.078-1.088-0.356-1.755-0.237l-0.335-0.32l-0.765-0.727c-0.565-0.387-0.347-1.063-0.211-1.573
		c0.013-0.081,0.1-0.21,0.211-0.158c0.254,0.353,0.111,0.918,0.523,1.231c0.125,0.073,0.262,0.098,0.367-0.024
		c0.171-0.159,0.354,0.044,0.448,0.181c0.135,0.02,0.22-0.089,0.314-0.181c0.194-0.166,0.364,0.068,0.548,0.102
		c0.099-0.078,0.175-0.21,0.262-0.315c0.159-0.091,0.262,0.085,0.393,0.134c0.241,0.073,0.249-0.296,0.418-0.419
		c0.192-0.007,0.327,0.117,0.524,0.104l0.211-0.367c0.21-0.244,0.471,0.018,0.733-0.024l0.34-0.499l0.552-0.029
		c0.142-0.156,0.136-0.379,0.129-0.6c0.275-0.177,0.662-0.086,0.97-0.184C29.002,37.666,28.862,37.418,28.771,37.194 M17.166,30.646
		c0.012,0.393,0.105,0.787-0.079,1.125C17.145,31.399,16.543,30.875,17.166,30.646 M16.669,31.274
		c0.162,0.211,0.135,0.545,0.209,0.812C16.734,31.871,16.49,31.55,16.669,31.274 M16.275,33.736
		c-0.065-0.091-0.092-0.195-0.078-0.314c0.129-0.058,0.247,0.223,0.392,0.053c-0.032-0.256-0.359-0.341-0.446-0.577
		c0.189-0.129,0.373,0.276,0.498,0c-0.01-0.023-0.02-0.045-0.035-0.065c-0.13-0.178-0.47-0.273-0.358-0.537l0.264,0.132
		c0.012-0.217-0.198-0.375-0.132-0.577c0.177,0.112,0.281,0.347,0.419,0.523c-0.031,0.155-0.06,0.306-0.084,0.457
		c-0.055,0.358-0.074,0.712,0.005,1.089C16.543,33.927,16.413,33.822,16.275,33.736 M18.003,36.54
		c-0.112,0.007-0.189-0.072-0.183-0.183c-0.046-0.087,0.098-0.159-0.025-0.211c-0.139,0.092-0.263,0.282-0.447,0.184
		c-0.064-0.184,0.105-0.334,0.158-0.499c-0.208-0.024-0.361,0.322-0.628,0.158c-0.059-0.221,0.13-0.341,0.235-0.496
		c-0.211-0.12-0.366,0.117-0.576,0c0.013-0.192,0.335-0.256,0.497-0.395c-0.143-0.098-0.373-0.228-0.393-0.443
		c0.242-0.13,0.408,0.247,0.63,0.077c0.005-0.195-0.23-0.367-0.105-0.55c0.092,0.039,0.156,0.137,0.236,0.211
		c0.162-0.047,0.019-0.211,0.026-0.315c0.235,0.326,0.038,0.883,0.471,1.152c0.262,0.172,0.334,0.465,0.419,0.733
		C18.338,36.206,18.206,36.415,18.003,36.54 M16.38,42.382c-0.229,0.013-0.589,0.113-0.734-0.105
		c0.085-0.384,0.609-0.136,0.916-0.208l0.053,0.051C16.621,42.245,16.484,42.351,16.38,42.382 M17.298,42.358
		c-0.192-0.021-0.315,0.045-0.473-0.054c0.026-0.09,0.077-0.171,0.158-0.235c0.13-0.04,0.315-0.04,0.445,0
		C17.5,42.178,17.428,42.342,17.298,42.358 M24.474,42.016c0.204,0.032,0.492-0.086,0.604,0.104
		c-0.079,0.432-0.629,0.157-0.944,0.238C24.154,42.178,24.35,42.101,24.474,42.016 M23.559,42.016
		c0.137,0.02,0.315-0.044,0.418,0.053c0.006,0.124-0.13,0.228-0.237,0.26c-0.125,0.053-0.3,0.029-0.365-0.077
		C23.342,42.106,23.46,42.054,23.559,42.016 M25.052,32.453c-0.03,0.147-0.148,0.265-0.28,0.378
		c-0.101,0.077-0.211,0.152-0.298,0.224c-0.021-0.078-0.012-0.153,0.016-0.224c0.079-0.193,0.304-0.368,0.455-0.535
		C25.031,32.284,25.072,32.382,25.052,32.453 M24.527,33.763c-0.071-0.149,0.176-0.235,0.29-0.288c0.038,0,0.11-0.007,0.103,0.053
		C24.933,33.777,24.645,33.659,24.527,33.763 M24.894,31.825c-0.033,0.248-0.249,0.483-0.42,0.708h-0.025
		C24.469,32.276,24.691,31.994,24.894,31.825 M24.188,30.96c0.148,0.007,0.136,0.178,0.209,0.261
		c-0.061,0.217-0.216,0.46-0.107,0.683c0.147-0.094,0.132-0.341,0.314-0.394c-0.024,0.281-0.13,0.59-0.314,0.838
		C24.095,31.949,24.108,31.406,24.188,30.96 M23.296,35.334c0.347-0.339,0.34-0.831,0.551-1.231c0.047,0.118-0.1,0.223,0.027,0.315
		c0.142-0.014,0.142-0.197,0.314-0.157c0.128,0.276-0.435,0.38-0.184,0.576c0.145-0.053,0.312-0.216,0.47-0.078
		c-0.005,0.216-0.286,0.216-0.34,0.394c0.23,0.012,0.446,0.098,0.577,0.288c0.039,0.105-0.079,0.143-0.158,0.128
		c-0.197,0.041-0.399-0.076-0.549,0c0.118,0.206,0.426,0.238,0.393,0.526c-0.269,0.103-0.441-0.177-0.682-0.21
		c-0.065,0.189,0.249,0.288,0.208,0.497c-0.24,0.079-0.416-0.164-0.602-0.261c-0.045,0.124,0.04,0.256,0.105,0.367
		c-0.189,0.092-0.38-0.046-0.47-0.21C22.693,35.906,23.185,35.648,23.296,35.334 M20.23,34.313c0.052,0.02,0.159-0.046,0.159,0.052
		c0.004,0.053-0.008,0.138-0.079,0.107h-0.08V34.313z M19.705,34.601c-0.184-0.014-0.325-0.111-0.468-0.208
		c0.176-0.086,0.436,0.176,0.599-0.028c0.035-0.268-0.233-0.411-0.391-0.602c0.26-0.014,0.458,0.184,0.443,0.447
		C19.831,34.339,19.925,34.582,19.705,34.601 M18.394,41.251c0.01-0.009,0.019-0.014,0.031-0.022
		c0.403,0.102,1.056-0.942,1.096,0.022v0.006c-0.28,0.591-1.013,0.51-1.595,0.469C17.956,41.547,18.216,41.385,18.394,41.251
		 M17.926,42.358c-0.02-0.131,0.117-0.225,0.209-0.289c0.105-0.04,0.261-0.04,0.366,0C18.35,42.153,18.201,42.54,17.926,42.358
		 M18.135,42.957c0.039-0.366,0.505-0.541,0.759-0.811l0.524-0.365c-0.335,0.446-0.823,0.732-1.204,1.176H18.135z M18.396,43.379
		h-0.052c0.164-0.539,0.761-0.918,1.153-1.336C19.347,42.547,18.64,42.86,18.396,43.379 M18.843,43.668
		c-0.045,0.019-0.074-0.028-0.105-0.055c0.295-0.55,0.642-1.127,1.072-1.57C19.628,42.637,19.11,43.103,18.843,43.668 M19.418,43.98
		c-0.077,0.072-0.177-0.032-0.209-0.104c0.144-0.662,0.524-1.225,0.786-1.833C19.943,42.71,19.608,43.332,19.418,43.98
		 M19.888,44.009H19.81c-0.03-0.65,0.23-1.201,0.42-1.732C20.24,42.84,20.513,43.64,19.888,44.009 M19.807,41.251
		c-0.097-0.221-0.168-0.452-0.231-0.678h0.183c-0.033-0.262-0.23-0.522-0.341-0.786c-0.132-0.202,0.17-0.607-0.156-0.602
		l-0.053,0.054c-0.419-0.762,0.104-1.437,0.272-2.194c0.034-0.162,0.053-0.332,0.04-0.505c0.075-0.172-0.168-0.472,0.159-0.445
		c0.458,0.014,0.858-0.229,1.099-0.629c0.139-0.21,0.034-0.564,0.29-0.682c0.361,0.163,0.492,0.565,0.5,0.944
		c-0.118,0.418-0.154,0.87-0.123,1.314l0.006,0.003h-0.006c0.002,0.026,0.005,0.052,0.007,0.079c0.048,0.511,0.188,1.01,0.402,1.433
		l-0.104,0.658c-0.35-0.055-0.1,0.364-0.211,0.521c-0.072,0.308-0.254,0.57-0.419,0.837l0.131,0.081
		c-0.061,0.2-0.136,0.401-0.226,0.597h-0.001c-0.136,0.285-0.317,0.553-0.585,0.765C20.138,41.833,19.946,41.554,19.807,41.251
		 M20.495,42.277h0.077c0.221,0.536,0.327,1.153,0.314,1.755C20.113,43.706,20.592,42.84,20.495,42.277 M21.437,43.953
		c-0.176-0.621-0.577-1.149-0.683-1.807h0.053c0.222,0.559,0.661,1.028,0.786,1.626C21.62,43.863,21.508,43.975,21.437,43.953
		 M22.091,43.772c-0.313-0.602-0.994-1.126-1.101-1.81l1.155,1.627C22.13,43.653,22.176,43.738,22.091,43.772 M22.485,43.589
		c-0.453-0.632-0.997-1.155-1.388-1.808h0.076c0.539,0.523,0.936,1.032,1.39,1.598C22.569,43.463,22.563,43.542,22.485,43.589
		 M22.746,43.089c-0.478-0.366-0.884-0.862-1.283-1.308c0.478,0.339,0.865,0.791,1.283,1.229V43.089z M22.851,42.358
		c-0.248,0.097-0.419-0.159-0.602-0.289c0.188-0.06,0.576-0.124,0.732,0.051C22.956,42.208,22.942,42.297,22.851,42.358
		 M22.249,40.995c0.102,0.081,0.203,0.167,0.301,0.256c0.146,0.132,0.287,0.273,0.406,0.424c-0.544-0.045-1.299,0.27-1.626-0.365
		l0.02-0.059l0.19-0.573C21.731,40.903,22.013,40.888,22.249,40.995 M25.078,33.134c-0.119,0.183-0.36,0.175-0.551,0.236
		c0.065-0.176,0.334-0.36,0.551-0.419C25.195,32.998,25.078,33.074,25.078,33.134"/>
	<rect x="0" y="35.818" style="fill:#FFFFFF;" width="2.219" height="0.559"/>
	
		<rect x="0.039" y="34.904" transform="matrix(0.9992 0.0394 -0.0394 0.9992 1.3886 -0.0177)" style="fill:#FFFFFF;" width="2.206" height="0.557"/>
	
		<rect x="0.111" y="34.028" transform="matrix(0.9969 0.0791 -0.0791 0.9969 2.7183 0.0118)" style="fill:#FFFFFF;" width="2.199" height="0.554"/>
	
		<rect x="0.218" y="33.149" transform="matrix(0.9927 0.1207 -0.1207 0.9927 4.0433 0.0855)" style="fill:#FFFFFF;" width="2.196" height="0.557"/>
	
		<rect x="0.362" y="32.271" transform="matrix(0.9873 0.1586 -0.1586 0.9873 5.1791 0.1803)" style="fill:#FFFFFF;" width="2.195" height="0.552"/>
	
		<rect x="0.504" y="31.393" transform="matrix(0.98 0.1988 -0.1988 0.98 6.3287 0.3135)" style="fill:#FFFFFF;" width="2.198" height="0.553"/>
	
		<rect x="0.717" y="30.532" transform="matrix(0.9715 0.2369 -0.2369 0.9715 7.3502 0.4454)" style="fill:#FFFFFF;" width="2.208" height="0.556"/>
	
		<rect x="0.967" y="29.67" transform="matrix(0.9612 0.2759 -0.2759 0.9612 8.344 0.5898)" style="fill:#FFFFFF;" width="2.218" height="0.559"/>
	<rect x="38.875" y="35.819" style="fill:#FFFFFF;" width="2.216" height="0.559"/>
	
		<rect x="38.848" y="34.903" transform="matrix(-0.9992 0.0394 -0.0394 -0.9992 81.2584 68.7618)" style="fill:#FFFFFF;" width="2.207" height="0.557"/>
	
		<rect x="38.783" y="34.028" transform="matrix(-0.9969 0.0791 -0.0791 -0.9969 82.3536 65.3462)" style="fill:#FFFFFF;" width="2.199" height="0.554"/>
	
		<rect x="38.675" y="33.146" transform="matrix(-0.993 0.1182 -0.1182 -0.993 83.2218 61.9138)" style="fill:#FFFFFF;" width="2.199" height="0.557"/>
	
		<rect x="38.535" y="32.272" transform="matrix(-0.9872 0.1594 -0.1594 -0.9872 83.9477 58.3634)" style="fill:#FFFFFF;" width="2.196" height="0.552"/>
	
		<rect x="38.39" y="31.392" transform="matrix(-0.9801 0.1987 -0.1987 -0.9801 84.4838 54.8624)" style="fill:#FFFFFF;" width="2.2" height="0.554"/>
	
		<rect x="38.17" y="30.532" transform="matrix(-0.9713 0.2379 -0.2379 -0.9713 84.7486 51.3904)" style="fill:#FFFFFF;" width="2.206" height="0.556"/>
	
		<rect x="37.908" y="29.671" transform="matrix(-0.9611 0.2763 -0.2763 -0.9611 84.7906 47.9522)" style="fill:#FFFFFF;" width="2.218" height="0.558"/>
</g>
</svg>
