<?xml version="1.0" encoding="iso-8859-1"?>
<!-- Generator: Adobe Illustrator 18.0.0, SVG Export Plug-In . SVG Version: 6.00 Build 0)  -->
<!DOCTYPE svg PUBLIC "-//W3C//DTD SVG 1.1//EN" "http://www.w3.org/Graphics/SVG/1.1/DTD/svg11.dtd">
<svg version="1.1" id="Layer_1" xmlns="http://www.w3.org/2000/svg" xmlns:xlink="http://www.w3.org/1999/xlink" x="0px" y="0px"
	 viewBox="0 0 152.727 63.85" style="enable-background:new 0 0 152.727 63.85;" xml:space="preserve">
<g>
	<polygon style="fill:#FFFFFF;" points="12.698,41.807 12.063,42.639 11.036,42.321 11.036,41.294 12.063,40.976 	"/>
	<polygon style="fill:#FFFFFF;" points="16.975,41.098 16.34,41.929 15.313,41.612 15.313,40.585 16.34,40.267 	"/>
	<polygon style="fill:#FFFFFF;" points="6.458,32.492 5.823,33.323 4.795,33.006 4.795,31.979 5.823,31.661 	"/>
	<polygon style="fill:#FFFFFF;" points="13.985,43.493 12.957,43.811 12.957,44.838 13.985,45.155 14.62,44.325 	"/>
	<polygon style="fill:#FFFFFF;" points="14.048,38.24 13.413,39.071 12.386,38.753 12.386,37.726 13.413,37.409 	"/>
	<polygon style="fill:#FFFFFF;" points="19.679,31.605 18.673,31.891 18.04,31.022 18.654,30.199 19.667,30.56 	"/>
	<polygon style="fill:#FFFFFF;" points="64.685,38.42 64.049,39.252 63.022,38.934 63.022,37.907 64.049,37.589 	"/>
	<polygon style="fill:#FFFFFF;" points="4.071,38.83 3.456,39.653 4.09,40.522 5.096,40.236 5.084,39.191 	"/>
	<polygon style="fill:#FFFFFF;" points="3.106,42.539 2.079,42.856 2.079,43.884 3.106,44.201 3.741,43.37 	"/>
	<polygon style="fill:#FFFFFF;" points="5.072,35.319 4.457,36.142 5.091,37.011 6.097,36.725 6.085,35.679 	"/>
	<polygon style="fill:#FFFFFF;" points="11.001,37.231 10.365,38.061 9.338,37.745 9.338,36.717 10.365,36.4 	"/>
	<polygon style="fill:#FFFFFF;" points="11.543,34.56 10.537,34.845 9.904,33.976 10.518,33.153 11.531,33.514 	"/>
	<polygon style="fill:#FFFFFF;" points="7.453,32.06 6.838,32.883 7.471,33.752 8.477,33.467 8.466,32.421 	"/>
	<polygon style="fill:#FFFFFF;" points="11.036,30.663 10.009,30.981 10.009,32.008 11.036,32.326 11.671,31.494 	"/>
	<polygon style="fill:#FFFFFF;" points="14.356,30.594 13.721,31.425 12.693,31.107 12.693,30.08 13.721,29.763 	"/>
	<polygon style="fill:#FFFFFF;" points="23.048,43.362 22.433,44.185 23.067,45.054 24.073,44.768 24.062,43.722 	"/>
	<polygon style="fill:#FFFFFF;" points="20.913,46.576 20.298,47.4 20.931,48.268 21.937,47.983 21.926,46.937 	"/>
	<polygon style="fill:#FFFFFF;" points="25.981,44.237 25.345,45.068 24.318,44.75 24.318,43.723 25.345,43.406 	"/>
	<polygon style="fill:#FFFFFF;" points="27.145,46.015 26.117,46.333 26.117,47.36 27.145,47.678 27.78,46.847 	"/>
	<polygon style="fill:#FFFFFF;" points="25.953,42.281 25.318,43.113 24.291,42.795 24.291,41.768 25.318,41.45 	"/>
	<polygon style="fill:#FFFFFF;" points="29.331,40.665 28.325,40.951 27.692,40.082 28.306,39.259 29.32,39.619 	"/>
	<polygon style="fill:#FFFFFF;" points="31.192,40.134 30.557,40.965 29.529,40.648 29.529,39.62 30.557,39.303 	"/>
	<polygon style="fill:#FFFFFF;" points="18.829,43.983 18.214,44.806 18.848,45.675 19.854,45.389 19.843,44.344 	"/>
	<polygon style="fill:#FFFFFF;" points="46.004,47.612 45.389,48.435 46.023,49.304 47.029,49.018 47.018,47.972 	"/>
	<polygon style="fill:#FFFFFF;" points="21.048,43.672 20.042,43.958 19.409,43.089 20.023,42.266 21.037,42.627 	"/>
	<polygon style="fill:#FFFFFF;" points="13.951,45.359 12.924,45.677 12.924,46.704 13.951,47.022 14.586,46.191 	"/>
	<polygon style="fill:#FFFFFF;" points="38.053,48.215 37.438,49.038 38.072,49.907 39.077,49.622 39.066,48.576 	"/>
	<polygon style="fill:#FFFFFF;" points="35.042,45.329 34.427,46.152 35.06,47.021 36.067,46.735 36.055,45.689 	"/>
	<polygon style="fill:#FFFFFF;" points="61.661,41.085 61.046,41.908 61.679,42.777 62.686,42.491 62.674,41.446 	"/>
	<polygon style="fill:#FFFFFF;" points="40.263,43.049 39.628,43.879 38.601,43.563 38.601,42.535 39.628,42.218 	"/>
	<polygon style="fill:#FFFFFF;" points="41.405,39.567 40.77,40.398 39.743,40.08 39.743,39.053 40.77,38.735 	"/>
	<polygon style="fill:#FFFFFF;" points="44.346,40.574 43.71,41.406 42.683,41.088 42.683,40.061 43.71,39.744 	"/>
	<polygon style="fill:#FFFFFF;" points="32.453,41.839 31.426,42.157 31.426,43.184 32.453,43.502 33.089,42.67 	"/>
	<polygon style="fill:#FFFFFF;" points="32.009,44.344 31.394,45.167 32.027,46.036 33.034,45.75 33.022,44.705 	"/>
	<polygon style="fill:#FFFFFF;" points="34.198,41.041 33.563,41.873 32.535,41.555 32.535,40.528 33.563,40.21 	"/>
	<polygon style="fill:#FFFFFF;" points="44.526,45.756 43.52,46.043 42.887,45.174 43.501,44.35 44.514,44.71 	"/>
	<polygon style="fill:#FFFFFF;" points="45.659,42.16 44.653,42.447 44.02,41.578 44.634,40.754 45.647,41.114 	"/>
	<polygon style="fill:#FFFFFF;" points="45.709,39.114 45.094,39.937 45.728,40.807 46.734,40.52 46.722,39.474 	"/>
	<polygon style="fill:#FFFFFF;" points="17.654,28.707 16.648,28.993 16.015,28.124 16.63,27.301 17.643,27.661 	"/>
	<polygon style="fill:#FFFFFF;" points="20.646,26.6 20.011,27.43 18.983,27.113 18.983,26.086 20.011,25.769 	"/>
	<polygon style="fill:#FFFFFF;" points="23.175,26.965 22.148,27.283 22.148,28.31 23.175,28.628 23.81,27.796 	"/>
	<polygon style="fill:#FFFFFF;" points="52.421,30.996 51.394,31.314 51.394,32.341 52.421,32.659 53.056,31.827 	"/>
	<polygon style="fill:#FFFFFF;" points="11.418,20.593 10.803,21.416 11.437,22.285 12.443,22 12.432,20.954 	"/>
	<polygon style="fill:#FFFFFF;" points="26.701,20.519 25.674,20.836 25.674,21.863 26.701,22.181 27.336,21.349 	"/>
	<polygon style="fill:#FFFFFF;" points="26.687,18.564 25.66,18.881 25.66,19.908 26.687,20.226 27.322,19.394 	"/>
	<polygon style="fill:#FFFFFF;" points="14.738,27.809 13.731,28.095 13.098,27.226 13.713,26.403 14.726,26.763 	"/>
	<polygon style="fill:#FFFFFF;" points="9.86,24.014 8.833,24.331 8.833,25.359 9.86,25.676 10.495,24.845 	"/>
	<polygon style="fill:#FFFFFF;" points="32.296,24.855 31.681,25.678 32.315,26.546 33.321,26.261 33.309,25.215 	"/>
	<polygon style="fill:#FFFFFF;" points="43.538,16.128 42.511,16.446 42.511,17.473 43.538,17.791 44.174,16.959 	"/>
	<polygon style="fill:#FFFFFF;" points="34.641,28.076 33.613,28.394 33.613,29.421 34.641,29.739 35.276,28.907 	"/>
	<polygon style="fill:#FFFFFF;" points="35.564,23.372 34.537,23.69 34.537,24.717 35.564,25.035 36.199,24.203 	"/>
	<polygon style="fill:#FFFFFF;" points="39.221,25.21 38.585,26.041 37.558,25.724 37.558,24.697 38.585,24.38 	"/>
	<polygon style="fill:#FFFFFF;" points="33.863,19.834 33.248,20.657 33.882,21.525 34.888,21.24 34.876,20.194 	"/>
	<polygon style="fill:#FFFFFF;" points="35.537,21.511 34.509,21.829 34.509,22.856 35.537,23.174 36.172,22.343 	"/>
	<polygon style="fill:#FFFFFF;" points="23.887,31.006 22.88,31.292 22.247,30.423 22.862,29.6 23.875,29.96 	"/>
	<polygon style="fill:#FFFFFF;" points="27.964,28.416 26.958,28.702 26.325,27.833 26.939,27.01 27.952,27.37 	"/>
	<polygon style="fill:#FFFFFF;" points="28.5,22.891 27.473,23.209 27.473,24.236 28.5,24.553 29.135,23.722 	"/>
	<polygon style="fill:#FFFFFF;" points="39.492,27.305 38.877,28.128 39.511,28.997 40.517,28.711 40.505,27.665 	"/>
	<polygon style="fill:#FFFFFF;" points="45.95,36.396 44.944,36.682 44.311,35.813 44.926,34.99 45.939,35.35 	"/>
	<polygon style="fill:#FFFFFF;" points="43.676,36.384 43.041,37.216 42.014,36.898 42.014,35.871 43.041,35.553 	"/>
	<polygon style="fill:#FFFFFF;" points="47.763,35.865 47.128,36.696 46.101,36.379 46.101,35.351 47.128,35.034 	"/>
	<polygon style="fill:#FFFFFF;" points="43.132,30.501 42.517,31.324 43.151,32.193 44.157,31.907 44.145,30.862 	"/>
	<polygon style="fill:#FFFFFF;" points="47.131,32.914 46.124,33.201 45.492,32.331 46.106,31.508 47.119,31.868 	"/>
	<polygon style="fill:#FFFFFF;" points="48.944,32.383 48.308,33.214 47.281,32.896 47.281,31.87 48.308,31.552 	"/>
	<polygon style="fill:#FFFFFF;" points="49.921,24.09 48.915,24.375 48.282,23.507 48.896,22.684 49.91,23.044 	"/>
	<polygon style="fill:#FFFFFF;" points="48.357,28.258 47.742,29.081 48.376,29.95 49.381,29.664 49.37,28.618 	"/>
	<polygon style="fill:#FFFFFF;" points="45.488,25.39 44.873,26.213 45.507,27.082 46.512,26.797 46.502,25.751 	"/>
	<polygon style="fill:#FFFFFF;" points="40.66,21.857 40.045,22.68 40.678,23.549 41.684,23.263 41.673,22.217 	"/>
	<polygon style="fill:#FFFFFF;" points="43.445,25.73 42.439,26.016 41.806,25.147 42.42,24.324 43.433,24.685 	"/>
	<polygon style="fill:#FFFFFF;" points="45.779,22.907 44.752,23.225 44.752,24.252 45.779,24.57 46.414,23.738 	"/>
	<polygon style="fill:#FFFFFF;" points="53.884,38.034 53.269,38.857 53.902,39.726 54.909,39.44 54.897,38.394 	"/>
	<polygon style="fill:#FFFFFF;" points="54.881,37.484 53.875,37.77 53.242,36.901 53.856,36.078 54.869,36.439 	"/>
	<polygon style="fill:#FFFFFF;" points="56.089,35.863 55.083,36.149 54.45,35.28 55.064,34.457 56.077,34.817 	"/>
	<polygon style="fill:#FFFFFF;" points="60.846,37.86 60.211,38.692 59.184,38.373 59.184,37.346 60.211,37.029 	"/>
	<polygon style="fill:#FFFFFF;" points="57.151,34.377 56.144,34.663 55.511,33.793 56.126,32.97 57.139,33.331 	"/>
	<polygon style="fill:#FFFFFF;" points="59.67,29.153 58.643,29.471 58.643,30.498 59.67,30.816 60.305,29.985 	"/>
	<polygon style="fill:#FFFFFF;" points="49.966,41.132 49.351,41.955 49.985,42.824 50.991,42.538 50.979,41.492 	"/>
	<polygon style="fill:#FFFFFF;" points="50.675,36.901 50.04,37.733 49.012,37.415 49.012,36.388 50.04,36.07 	"/>
	<polygon style="fill:#FFFFFF;" points="55.315,31.803 54.309,32.088 53.676,31.22 54.29,30.396 55.303,30.757 	"/>
	<polygon style="fill:#FFFFFF;" points="52.496,25.756 51.881,26.579 52.515,27.448 53.521,27.162 53.51,26.116 	"/>
	<polygon style="fill:#FFFFFF;" points="55.999,22.114 55.384,22.937 56.017,23.806 57.024,23.52 57.012,22.474 	"/>
	<polygon style="fill:#FFFFFF;" points="55.381,25.914 54.766,26.737 55.4,27.606 56.406,27.32 56.394,26.274 	"/>
	<polygon style="fill:#FFFFFF;" points="11.069,39.311 10.454,40.134 11.087,41.003 12.093,40.717 12.082,39.672 	"/>
	<polygon style="fill:#FFFFFF;" points="11.687,43.515 11.073,44.338 11.705,45.207 12.712,44.921 12.7,43.875 	"/>
	<polygon style="fill:#FFFFFF;" points="15.162,41.629 14.156,41.916 13.523,41.047 14.137,40.223 15.151,40.583 	"/>
	<polygon style="fill:#FFFFFF;" points="10.902,42.551 9.874,42.869 9.874,43.896 10.902,44.214 11.537,43.383 	"/>
	<polygon style="fill:#FFFFFF;" points="13.906,40.186 13.271,41.017 12.244,40.7 12.244,39.672 13.271,39.355 	"/>
	<polygon style="fill:#FFFFFF;" points="15.146,41.889 14.119,42.206 14.119,43.234 15.146,43.551 15.781,42.72 	"/>
	<polygon style="fill:#FFFFFF;" points="51.899,20.973 50.872,21.291 50.872,22.318 51.899,22.636 52.534,21.804 	"/>
	<polygon style="fill:#FFFFFF;" points="12.161,38.762 11.154,39.048 10.522,38.179 11.136,37.356 12.149,37.716 	"/>
	<polygon style="fill:#FFFFFF;" points="15.62,34.081 14.613,34.366 13.98,33.497 14.595,32.674 15.608,33.035 	"/>
	<polygon style="fill:#FFFFFF;" points="14.558,30.719 13.943,31.542 14.576,32.41 15.583,32.125 15.571,31.079 	"/>
	<polygon style="fill:#FFFFFF;" points="15.519,29.097 14.904,29.921 15.537,30.789 16.544,30.504 16.532,29.458 	"/>
	<polygon style="fill:#FFFFFF;" points="17.487,31.628 16.852,32.459 15.825,32.141 15.825,31.115 16.852,30.797 	"/>
	<polygon style="fill:#FFFFFF;" points="17.788,29.141 16.761,29.459 16.761,30.486 17.788,30.804 18.423,29.972 	"/>
	<polygon style="fill:#FFFFFF;" points="5.279,37.304 4.664,38.127 5.298,38.996 6.304,38.71 6.292,37.664 	"/>
	<polygon style="fill:#FFFFFF;" points="6.745,39.933 6.13,40.756 6.764,41.625 7.77,41.339 7.759,40.293 	"/>
	<polygon style="fill:#FFFFFF;" points="-0.205,36.839 -0.82,37.662 -0.186,38.531 0.82,38.245 0.809,37.199 	"/>
	<polygon style="fill:#FFFFFF;" points="9.043,39.977 8.016,40.294 8.016,41.321 9.043,41.639 9.678,40.807 	"/>
	<polygon style="fill:#FFFFFF;" points="10.285,38.355 9.257,38.672 9.257,39.699 10.285,40.017 10.92,39.186 	"/>
	<polygon style="fill:#FFFFFF;" points="8.116,36.356 7.501,37.179 8.134,38.048 9.14,37.762 9.129,36.716 	"/>
	<polygon style="fill:#FFFFFF;" points="12.252,35.704 11.617,36.535 10.589,36.217 10.589,35.19 11.617,34.872 	"/>
	<polygon style="fill:#FFFFFF;" points="13.403,34.076 12.768,34.906 11.741,34.589 11.741,33.562 12.768,33.245 	"/>
	<polygon style="fill:#FFFFFF;" points="13.755,31.69 12.728,32.007 12.728,33.034 13.755,33.352 14.391,32.521 	"/>
	<polygon style="fill:#FFFFFF;" points="8.577,33.764 7.55,34.082 7.55,35.109 8.577,35.427 9.212,34.596 	"/>
	<polygon style="fill:#FFFFFF;" points="9.755,32.163 8.728,32.481 8.728,33.508 9.755,33.826 10.39,32.994 	"/>
	<polygon style="fill:#FFFFFF;" points="9.847,27.035 9.232,27.858 9.865,28.726 10.871,28.441 10.86,27.395 	"/>
	<polygon style="fill:#FFFFFF;" points="7.833,28.859 7.218,29.682 7.851,30.551 8.857,30.265 8.846,29.219 	"/>
	<polygon style="fill:#FFFFFF;" points="11.056,28.736 10.029,29.054 10.029,30.081 11.056,30.398 11.691,29.567 	"/>
	<polygon style="fill:#FFFFFF;" points="12.169,27.115 11.142,27.433 11.142,28.46 12.169,28.777 12.804,27.946 	"/>
	<polygon style="fill:#FFFFFF;" points="61.921,31.509 60.894,31.826 60.894,32.854 61.921,33.171 62.557,32.34 	"/>
	<polygon style="fill:#FFFFFF;" points="3.21,32.184 2.183,32.501 2.183,33.528 3.21,33.846 3.845,33.015 	"/>
	<polygon style="fill:#FFFFFF;" points="24.942,45.971 24.327,46.794 24.961,47.663 25.967,47.378 25.955,46.332 	"/>
	<polygon style="fill:#FFFFFF;" points="24.158,49.142 23.131,49.459 23.131,50.487 24.158,50.804 24.793,49.973 	"/>
	<polygon style="fill:#FFFFFF;" points="23.143,46.48 22.115,46.798 22.115,47.825 23.143,48.143 23.778,47.311 	"/>
	<polygon style="fill:#FFFFFF;" points="19.996,47.623 18.968,47.94 18.968,48.968 19.996,49.285 20.631,48.454 	"/>
	<polygon style="fill:#FFFFFF;" points="31.473,47.859 30.445,48.177 30.445,49.204 31.473,49.522 32.109,48.691 	"/>
	<polygon style="fill:#FFFFFF;" points="24.045,42.718 23.039,43.003 22.406,42.135 23.02,41.312 24.034,41.672 	"/>
	<polygon style="fill:#FFFFFF;" points="27.195,43.763 26.188,44.049 25.555,43.18 26.17,42.357 27.183,42.717 	"/>
	<polygon style="fill:#FFFFFF;" points="28.199,42.198 27.193,42.484 26.56,41.615 27.174,40.792 28.187,41.152 	"/>
	<polygon style="fill:#FFFFFF;" points="14.082,52.038 13.076,52.324 12.443,51.455 13.057,50.632 14.071,50.992 	"/>
	<polygon style="fill:#FFFFFF;" points="29.405,40.836 28.378,41.153 28.378,42.181 29.405,42.498 30.04,41.667 	"/>
	<polygon style="fill:#FFFFFF;" points="15.936,42.881 15.321,43.704 15.955,44.573 16.961,44.287 16.95,43.241 	"/>
	<polygon style="fill:#FFFFFF;" points="14.934,48.002 14.319,48.825 14.952,49.694 15.958,49.408 15.947,48.362 	"/>
	<polygon style="fill:#FFFFFF;" points="17.171,39.309 16.556,40.132 17.19,41.001 18.196,40.715 18.185,39.669 	"/>
	<polygon style="fill:#FFFFFF;" points="18.074,42.666 17.068,42.952 16.435,42.083 17.049,41.26 18.063,41.62 	"/>
	<polygon style="fill:#FFFFFF;" points="17.785,45.58 17.17,46.403 17.804,47.272 18.81,46.986 18.799,45.94 	"/>
	<polygon style="fill:#FFFFFF;" points="20.066,45.679 19.039,45.997 19.039,47.024 20.066,47.341 20.702,46.51 	"/>
	<polygon style="fill:#FFFFFF;" points="18.6,51.279 17.573,51.597 17.573,52.624 18.6,52.941 19.236,52.111 	"/>
	<polygon style="fill:#FFFFFF;" points="19.887,42.134 19.252,42.966 18.225,42.648 18.225,41.621 19.252,41.304 	"/>
	<polygon style="fill:#FFFFFF;" points="21.032,43.932 20.005,44.25 20.005,45.277 21.032,45.595 21.667,44.763 	"/>
	<polygon style="fill:#FFFFFF;" points="22.861,43.141 22.226,43.972 21.199,43.655 21.199,42.627 22.226,42.31 	"/>
	<polygon style="fill:#FFFFFF;" points="35.069,47.284 34.454,48.107 35.088,48.976 36.094,48.691 36.083,47.645 	"/>
	<polygon style="fill:#FFFFFF;" points="38.039,46.355 37.424,47.178 38.058,48.047 39.064,47.762 39.052,46.716 	"/>
	<polygon style="fill:#FFFFFF;" points="38.452,43.846 37.425,44.164 37.425,45.191 38.452,45.509 39.087,44.678 	"/>
	<polygon style="fill:#FFFFFF;" points="40.299,46.494 39.271,46.812 39.271,47.839 40.299,48.157 40.934,47.326 	"/>
	<polygon style="fill:#FFFFFF;" points="41.531,44.948 40.504,45.266 40.504,46.293 41.531,46.611 42.166,45.779 	"/>
	<polygon style="fill:#FFFFFF;" points="38.412,43.58 37.406,43.866 36.773,42.997 37.388,42.174 38.401,42.534 	"/>
	<polygon style="fill:#FFFFFF;" points="39.525,42.054 38.519,42.34 37.886,41.471 38.5,40.648 39.514,41.008 	"/>
	<polygon style="fill:#FFFFFF;" points="41.617,41.749 41.002,42.572 41.636,43.441 42.642,43.156 42.63,42.11 	"/>
	<polygon style="fill:#FFFFFF;" points="40.798,40.691 39.771,41.01 39.771,42.036 40.798,42.354 41.433,41.523 	"/>
	<polygon style="fill:#FFFFFF;" points="43.869,41.757 42.842,42.076 42.842,43.102 43.869,43.42 44.504,42.589 	"/>
	<polygon style="fill:#FFFFFF;" points="42.682,43.415 41.655,43.733 41.655,44.761 42.682,45.077 43.318,44.247 	"/>
	<polygon style="fill:#FFFFFF;" points="40.706,38.572 39.699,38.858 39.066,37.989 39.681,37.166 40.694,37.526 	"/>
	<polygon style="fill:#FFFFFF;" points="56.605,42.948 55.599,43.233 54.966,42.365 55.58,41.541 56.594,41.902 	"/>
	<polygon style="fill:#FFFFFF;" points="54.031,47.27 53.024,47.557 52.392,46.687 53.006,45.864 54.019,46.224 	"/>
	<polygon style="fill:#FFFFFF;" points="42.703,38.172 42.088,38.995 42.721,39.864 43.727,39.579 43.716,38.533 	"/>
	<polygon style="fill:#FFFFFF;" points="42.566,38.041 41.931,38.872 40.903,38.555 40.903,37.528 41.931,37.209 	"/>
	<polygon style="fill:#FFFFFF;" points="44.905,38.121 43.878,38.439 43.878,39.466 44.905,39.784 45.54,38.952 	"/>
	<polygon style="fill:#FFFFFF;" points="28.068,47.669 27.453,48.492 28.087,49.361 29.093,49.075 29.081,48.029 	"/>
	<polygon style="fill:#FFFFFF;" points="30.194,41.805 29.579,42.628 30.213,43.497 31.219,43.211 31.207,42.165 	"/>
	<polygon style="fill:#FFFFFF;" points="28.258,43.109 27.643,43.932 28.277,44.801 29.283,44.515 29.271,43.469 	"/>
	<polygon style="fill:#FFFFFF;" points="26.142,44.356 25.527,45.179 26.161,46.049 27.167,45.762 27.156,44.716 	"/>
	<polygon style="fill:#FFFFFF;" points="47.116,26.294 46.501,27.117 47.134,27.986 48.141,27.7 48.129,26.654 	"/>
	<polygon style="fill:#FFFFFF;" points="30.713,44.107 29.686,44.424 29.686,45.451 30.713,45.769 31.348,44.937 	"/>
	<polygon style="fill:#FFFFFF;" points="35.428,42.846 34.4,43.163 34.4,44.191 35.428,44.508 36.063,43.677 	"/>
	<polygon style="fill:#FFFFFF;" points="34.221,44.394 33.194,44.712 33.194,45.739 34.221,46.057 34.856,45.226 	"/>
	<polygon style="fill:#FFFFFF;" points="35.373,42.58 34.367,42.866 33.734,41.997 34.348,41.174 35.361,41.535 	"/>
	<polygon style="fill:#FFFFFF;" points="33.215,42.796 32.6,43.619 33.234,44.488 34.24,44.202 34.229,43.156 	"/>
	<polygon style="fill:#FFFFFF;" points="37.214,42.049 36.579,42.88 35.552,42.562 35.552,41.535 36.579,41.218 	"/>
	<polygon style="fill:#FFFFFF;" points="43.453,47.549 42.426,47.866 42.426,48.894 43.453,49.211 44.088,48.38 	"/>
	<polygon style="fill:#FFFFFF;" points="44.661,46.023 43.634,46.34 43.634,47.368 44.661,47.685 45.296,46.854 	"/>
	<polygon style="fill:#FFFFFF;" points="44.757,42.71 44.142,43.533 44.776,44.402 45.782,44.116 45.77,43.07 	"/>
	<polygon style="fill:#FFFFFF;" points="48.007,39.158 46.98,39.476 46.98,40.503 48.007,40.82 48.642,39.989 	"/>
	<polygon style="fill:#FFFFFF;" points="17.752,25.716 17.137,26.539 17.77,27.407 18.776,27.122 18.765,26.076 	"/>
	<polygon style="fill:#FFFFFF;" points="20.761,29.714 19.755,30 19.122,29.131 19.736,28.308 20.749,28.668 	"/>
	<polygon style="fill:#FFFFFF;" points="20.772,26.769 20.157,27.592 20.79,28.461 21.797,28.175 21.785,27.129 	"/>
	<polygon style="fill:#FFFFFF;" points="18.898,27.39 17.87,27.707 17.87,28.735 18.898,29.052 19.533,28.221 	"/>
	<polygon style="fill:#FFFFFF;" points="22.674,29.348 22.039,30.179 21.012,29.861 21.012,28.835 22.039,28.517 	"/>
	<polygon style="fill:#FFFFFF;" points="8.378,42.634 7.351,42.952 7.351,43.979 8.378,44.296 9.013,43.465 	"/>
	<polygon style="fill:#FFFFFF;" points="17.724,23.855 17.109,24.678 17.742,25.546 18.748,25.261 18.737,24.215 	"/>
	<polygon style="fill:#FFFFFF;" points="19.518,22.114 18.903,22.937 19.536,23.806 20.543,23.52 20.531,22.474 	"/>
	<polygon style="fill:#FFFFFF;" points="20.81,24.717 20.195,25.54 20.829,26.409 21.835,26.123 21.823,25.077 	"/>
	<polygon style="fill:#FFFFFF;" points="20.358,17.696 19.331,18.014 19.331,19.041 20.358,19.359 20.993,18.527 	"/>
	<polygon style="fill:#FFFFFF;" points="23.161,25.01 22.134,25.328 22.134,26.355 23.161,26.673 23.796,25.841 	"/>
	<polygon style="fill:#FFFFFF;" points="24.355,23.483 23.328,23.801 23.328,24.828 24.355,25.146 24.991,24.314 	"/>
	<polygon style="fill:#FFFFFF;" points="22.605,21.656 21.99,22.479 22.624,23.348 23.63,23.062 23.619,22.016 	"/>
	<polygon style="fill:#FFFFFF;" points="22.058,17.744 21.444,18.567 22.077,19.435 23.083,19.15 23.072,18.104 	"/>
	<polygon style="fill:#FFFFFF;" points="12.82,23.871 12.205,24.694 12.839,25.564 13.844,25.277 13.834,24.231 	"/>
	<polygon style="fill:#FFFFFF;" points="16.863,24.853 15.835,25.171 15.835,26.198 16.863,26.516 17.498,25.685 	"/>
	<polygon style="fill:#FFFFFF;" points="14.865,23.054 14.25,23.877 14.883,24.746 15.89,24.46 15.878,23.415 	"/>
	<polygon style="fill:#FFFFFF;" points="18.167,21.571 17.139,21.889 17.139,22.916 18.167,23.234 18.802,22.402 	"/>
	<polygon style="fill:#FFFFFF;" points="32.183,27.795 31.177,28.081 30.544,27.212 31.158,26.389 32.171,26.749 	"/>
	<polygon style="fill:#FFFFFF;" points="50.231,26.75 49.224,27.036 48.591,26.167 49.206,25.344 50.219,25.704 	"/>
	<polygon style="fill:#FFFFFF;" points="34.091,27.358 33.456,28.19 32.428,27.872 32.428,26.845 33.456,26.528 	"/>
	<polygon style="fill:#FFFFFF;" points="32.343,28.032 31.728,28.855 32.362,29.725 33.368,29.438 33.356,28.392 	"/>
	<polygon style="fill:#FFFFFF;" points="30.918,17.173 30.303,17.996 30.937,18.865 31.943,18.58 31.931,17.534 	"/>
	<polygon style="fill:#FFFFFF;" points="36.309,27.269 35.302,27.554 34.67,26.685 35.284,25.862 36.297,26.223 	"/>
	<polygon style="fill:#FFFFFF;" points="37.361,25.741 36.354,26.027 35.721,25.158 36.336,24.335 37.349,24.696 	"/>
	<polygon style="fill:#FFFFFF;" points="34.556,24.842 33.528,25.159 33.528,26.186 34.556,26.504 35.191,25.672 	"/>
	<polygon style="fill:#FFFFFF;" points="37.758,19.026 37.144,19.849 37.777,20.718 38.783,20.432 38.771,19.386 	"/>
	<polygon style="fill:#FFFFFF;" points="38.572,22.519 37.544,22.837 37.544,23.864 38.572,24.181 39.207,23.35 	"/>
	<polygon style="fill:#FFFFFF;" points="23.979,27.958 23.364,28.781 23.998,29.65 25.004,29.364 24.993,28.319 	"/>
	<polygon style="fill:#FFFFFF;" points="26.912,28.928 26.276,29.759 25.249,29.442 25.249,28.414 26.276,28.097 	"/>
	<polygon style="fill:#FFFFFF;" points="13.698,16.318 13.083,17.142 13.717,18.01 14.723,17.725 14.712,16.679 	"/>
	<polygon style="fill:#FFFFFF;" points="34.029,16.271 33.414,17.094 34.047,17.963 35.054,17.677 35.042,16.631 	"/>
	<polygon style="fill:#FFFFFF;" points="34.908,50.139 34.293,50.962 34.927,51.832 35.933,51.545 35.921,50.499 	"/>
	<polygon style="fill:#FFFFFF;" points="28.134,25.483 27.519,26.306 28.152,27.176 29.158,26.889 29.147,25.843 	"/>
	<polygon style="fill:#FFFFFF;" points="26.154,26.046 25.126,26.364 25.126,27.391 26.154,27.708 26.789,26.878 	"/>
	<polygon style="fill:#FFFFFF;" points="27.334,24.473 26.306,24.79 26.306,25.817 27.334,26.135 27.969,25.303 	"/>
	<polygon style="fill:#FFFFFF;" points="29.777,27.885 29.142,28.716 28.114,28.398 28.114,27.372 29.142,27.053 	"/>
	<polygon style="fill:#FFFFFF;" points="30.336,25.527 29.309,25.844 29.309,26.872 30.336,27.189 30.971,26.358 	"/>
	<polygon style="fill:#FFFFFF;" points="26.269,22.895 25.654,23.718 26.288,24.587 27.294,24.301 27.282,23.255 	"/>
	<polygon style="fill:#FFFFFF;" points="29.19,23.95 28.575,24.773 29.209,25.642 30.215,25.356 30.204,24.31 	"/>
	<polygon style="fill:#FFFFFF;" points="30.347,22.338 29.732,23.161 30.365,24.03 31.371,23.744 31.36,22.698 	"/>
	<polygon style="fill:#FFFFFF;" points="30.191,19.928 29.164,20.246 29.164,21.273 30.191,21.591 30.826,20.759 	"/>
	<polygon style="fill:#FFFFFF;" points="31.45,23.908 30.422,24.226 30.422,25.253 31.45,25.57 32.085,24.739 	"/>
	<polygon style="fill:#FFFFFF;" points="47.434,43.774 46.406,44.091 46.406,45.119 47.434,45.436 48.068,44.605 	"/>
	<polygon style="fill:#FFFFFF;" points="43.731,36.517 43.116,37.34 43.75,38.209 44.756,37.923 44.745,36.877 	"/>
	<polygon style="fill:#FFFFFF;" points="62.556,26.412 61.921,27.243 60.894,26.925 60.894,25.899 61.921,25.581 	"/>
	<polygon style="fill:#FFFFFF;" points="39.342,27.172 38.707,28.003 37.68,27.686 37.68,26.659 38.707,26.342 	"/>
	<polygon style="fill:#FFFFFF;" points="45.969,31.376 45.334,32.208 44.307,31.889 44.307,30.863 45.334,30.545 	"/>
	<polygon style="fill:#FFFFFF;" points="44.27,28.872 43.655,29.695 44.288,30.564 45.295,30.278 45.283,29.233 	"/>
	<polygon style="fill:#FFFFFF;" points="47.163,29.88 46.548,30.703 47.181,31.572 48.188,31.286 48.176,30.24 	"/>
	<polygon style="fill:#FFFFFF;" points="46.482,28.859 45.454,29.177 45.454,30.204 46.482,30.522 47.117,29.69 	"/>
	<polygon style="fill:#FFFFFF;" points="50,30.755 49.365,31.586 48.338,31.268 48.338,30.242 49.365,29.924 	"/>
	<polygon style="fill:#FFFFFF;" points="50.56,28.302 49.532,28.619 49.532,29.646 50.56,29.964 51.195,29.133 	"/>
	<polygon style="fill:#FFFFFF;" points="46.601,23.864 45.986,24.688 46.62,25.556 47.626,25.271 47.614,24.225 	"/>
	<polygon style="fill:#FFFFFF;" points="43.04,30.376 42.405,31.207 41.377,30.889 41.377,29.863 42.405,29.545 	"/>
	<polygon style="fill:#FFFFFF;" points="8.263,25.225 7.628,26.056 6.6,25.738 6.6,24.711 7.628,24.394 	"/>
	<polygon style="fill:#FFFFFF;" points="40.456,26.745 39.45,27.032 38.817,26.162 39.431,25.339 40.445,25.699 	"/>
	<polygon style="fill:#FFFFFF;" points="42.284,29.279 41.277,29.565 40.644,28.696 41.259,27.873 42.272,28.233 	"/>
	<polygon style="fill:#FFFFFF;" points="42.316,26.214 41.681,27.045 40.654,26.727 40.654,25.701 41.681,25.383 	"/>
	<polygon style="fill:#FFFFFF;" points="43.462,27.916 42.434,28.234 42.434,29.261 43.462,29.579 44.097,28.747 	"/>
	<polygon style="fill:#FFFFFF;" points="44.694,26.294 43.666,26.612 43.666,27.639 44.694,27.957 45.329,27.125 	"/>
	<polygon style="fill:#FFFFFF;" points="39.404,23.383 38.789,24.206 39.423,25.075 40.428,24.789 40.417,23.744 	"/>
	<polygon style="fill:#FFFFFF;" points="42.841,18.836 42.226,19.659 42.86,20.529 43.866,20.242 43.854,19.196 	"/>
	<polygon style="fill:#FFFFFF;" points="39.976,17.126 38.949,17.443 38.949,18.471 39.976,18.788 40.611,17.957 	"/>
	<polygon style="fill:#FFFFFF;" points="43.301,22.161 42.274,22.478 42.274,23.506 43.301,23.823 43.936,22.992 	"/>
	<polygon style="fill:#FFFFFF;" points="45.754,21.028 44.727,21.346 44.727,22.373 45.754,22.691 46.389,21.859 	"/>
	<polygon style="fill:#FFFFFF;" points="44.68,24.435 43.652,24.752 43.652,25.779 44.68,26.097 45.315,25.265 	"/>
	<polygon style="fill:#FFFFFF;" points="52.816,41.684 52.201,42.507 52.835,43.376 53.841,43.09 53.829,42.044 	"/>
	<polygon style="fill:#FFFFFF;" points="56.364,38.976 55.337,39.294 55.337,40.321 56.364,40.639 56.999,39.807 	"/>
	<polygon style="fill:#FFFFFF;" points="59.695,39.915 59.06,40.746 58.033,40.429 58.033,39.402 59.06,39.085 	"/>
	<polygon style="fill:#FFFFFF;" points="56.844,37.086 56.229,37.909 56.862,38.778 57.869,38.492 57.857,37.446 	"/>
	<polygon style="fill:#FFFFFF;" points="58.105,35.473 57.49,36.296 58.123,37.165 59.129,36.88 59.118,35.834 	"/>
	<polygon style="fill:#FFFFFF;" points="56.059,36.122 55.031,36.439 55.031,37.467 56.059,37.784 56.694,36.953 	"/>
	<polygon style="fill:#FFFFFF;" points="57.333,34.51 56.306,34.828 56.306,35.855 57.333,36.173 57.968,35.341 	"/>
	<polygon style="fill:#FFFFFF;" points="59.161,33.94 58.546,34.763 59.18,35.632 60.186,35.346 60.174,34.3 	"/>
	<polygon style="fill:#FFFFFF;" points="57.316,29.308 56.701,30.131 57.334,31 58.341,30.714 58.329,29.668 	"/>
	<polygon style="fill:#FFFFFF;" points="58.444,26.816 57.829,27.639 58.463,28.509 59.469,28.222 59.458,27.176 	"/>
	<polygon style="fill:#FFFFFF;" points="48.862,37.433 47.856,37.718 47.223,36.85 47.837,36.027 48.851,36.387 	"/>
	<polygon style="fill:#FFFFFF;" points="46.788,37.581 46.173,38.405 46.806,39.273 47.813,38.988 47.801,37.942 	"/>
	<polygon style="fill:#FFFFFF;" points="50.812,37.033 50.197,37.856 50.83,38.726 51.837,38.439 51.825,37.394 	"/>
	<polygon style="fill:#FFFFFF;" points="49.022,37.596 47.995,37.914 47.995,38.941 49.022,39.259 49.657,38.428 	"/>
	<polygon style="fill:#FFFFFF;" points="51.915,38.604 50.887,38.921 50.887,39.949 51.915,40.266 52.55,39.435 	"/>
	<polygon style="fill:#FFFFFF;" points="53.062,37.077 52.034,37.395 52.034,38.422 53.062,38.739 53.697,37.908 	"/>
	<polygon style="fill:#FFFFFF;" points="52.388,30.701 51.382,30.987 50.749,30.118 51.363,29.295 52.377,29.655 	"/>
	<polygon style="fill:#FFFFFF;" points="57.263,31.398 56.648,32.221 57.281,33.09 58.287,32.804 58.276,31.758 	"/>
	<polygon style="fill:#FFFFFF;" points="54.249,30.17 53.614,31 52.586,30.683 52.586,29.656 53.614,29.339 	"/>
	<polygon style="fill:#FFFFFF;" points="56.028,32.798 55.393,33.629 54.366,33.311 54.366,32.285 55.393,31.967 	"/>
	<polygon style="fill:#FFFFFF;" points="56.521,30.402 55.494,30.72 55.494,31.747 56.521,32.064 57.156,31.233 	"/>
	<polygon style="fill:#FFFFFF;" points="53.586,27.383 52.559,27.7 52.559,28.727 53.586,29.045 54.221,28.213 	"/>
	<polygon style="fill:#FFFFFF;" points="56.554,28.004 55.527,28.321 55.527,29.348 56.554,29.666 57.189,28.834 	"/>
	<polygon style="fill:#FFFFFF;" points="7.365,35.376 6.338,35.693 6.338,36.721 7.365,37.038 8,36.207 	"/>
	<g>
		<path style="fill:#FFFFFF;" d="M149.702,30.326c-0.807,0.808-1.925,1.307-3.11,1.307c-1.186,0-2.285-0.498-3.076-1.307
			c-0.79-0.79-1.288-1.89-1.288-3.11c0-1.221,0.498-2.32,1.288-3.111c0.791-0.808,1.891-1.306,3.076-1.306
			c1.186,0,2.303,0.498,3.11,1.306c0.773,0.79,1.272,1.874,1.272,3.111C150.974,28.453,150.475,29.535,149.702,30.326
			 M150.939,22.868c-1.117-1.117-2.647-1.822-4.348-1.822c-1.684,0-3.23,0.704-4.33,1.822c-1.082,1.117-1.787,2.647-1.787,4.348
			c0,1.701,0.705,3.23,1.787,4.347c1.1,1.134,2.646,1.822,4.33,1.822c1.701,0,3.231-0.688,4.348-1.822
			c1.082-1.117,1.787-2.646,1.787-4.347C152.727,25.515,152.022,23.985,150.939,22.868"/>
		<path style="fill:#FFFFFF;" d="M136.74,30.326c-0.808,0.808-1.925,1.307-3.111,1.307c-1.186,0-2.285-0.498-3.076-1.307
			c-0.791-0.79-1.289-1.89-1.289-3.11c0-1.221,0.498-2.32,1.289-3.111c0.79-0.808,1.89-1.306,3.076-1.306
			c1.186,0,2.303,0.498,3.111,1.306c0.773,0.79,1.271,1.874,1.271,3.111C138.011,28.453,137.513,29.535,136.74,30.326
			 M137.977,22.868c-1.117-1.117-2.646-1.822-4.348-1.822c-1.684,0-3.23,0.704-4.33,1.822c-1.082,1.117-1.787,2.647-1.787,4.348
			c0,1.701,0.705,3.23,1.787,4.347c1.1,1.134,2.646,1.822,4.33,1.822c1.702,0,3.231-0.688,4.348-1.822
			c1.082-1.117,1.787-2.646,1.787-4.347C139.764,25.515,139.059,23.985,137.977,22.868"/>
		<path style="fill:#FFFFFF;" d="M121.069,27.955l4.382,5.276h2.251l-3.798-4.52c2.062-0.361,3.11-1.977,3.11-3.678
			c0-1.907-1.306-3.832-3.918-3.832h-4.382V33.23h1.718V22.954h2.663c1.461,0,2.183,1.048,2.183,2.079
			c0,1.049-0.722,2.096-2.183,2.096h-2.027V27.955z"/>
		<path style="fill:#FFFFFF;" d="M111.069,28.058l1.513-4.245l1.478,4.245H111.069z M113.2,21.047h-1.272l-4.829,12.184h1.873
			c0.378-0.997,0.98-2.44,1.443-3.54h4.313l1.444,3.54h1.856L113.2,21.047z"/>
		<path style="fill:#FFFFFF;" d="M107.888,25.515c-0.636-3.197-3.42-4.382-5.723-4.382c-3.316,0-5.911,2.544-5.911,6.101
			c0,3.541,2.543,6.084,5.911,6.084c2.183,0,4.657-1.478,5.482-3.781v0.017c0.155-0.395,0.241-1.065,0.327-2.079h-6.479v1.736h4.451
			c-0.721,1.752-2.302,2.44-3.78,2.44c-2.355,0-4.177-1.873-4.177-4.416c0-2.527,1.822-4.365,4.177-4.365
			c1.529,0,3.385,0.705,3.866,2.647H107.888z"/>
	</g>
	<polygon style="fill:#FFFFFF;" points="88.228,33.23 88.228,24.827 94.036,33.23 95.411,33.23 95.411,21.201 93.693,21.201 
		93.693,29.673 87.833,21.194 86.493,21.194 86.493,33.23 	"/>
	<g>
		<path style="fill:#FFFFFF;" d="M79.013,28.058l1.513-4.245l1.478,4.245H79.013z M81.144,21.046h-1.272L75.043,33.23h1.873
			c0.378-0.997,0.98-2.44,1.443-3.54h4.313l1.444,3.54h1.856L81.144,21.046z"/>
	</g>
	<polygon style="fill:#FFFFFF;" points="67.773,27.662 72.361,33.23 74.63,33.23 69.56,27.182 74.148,21.218 71.966,21.218 
		67.773,26.786 	"/>
	<rect x="65.728" y="21.219" style="fill:#FFFFFF;" width="1.718" height="27.115"/>
	<g>
		<path style="fill:#FFFFFF;" d="M111.39,46.537h-2.578v-8.541h2.578c2.784,0,4.194,2.148,4.194,4.279
			C115.583,44.406,114.174,46.537,111.39,46.537 M111.39,36.26h-4.313v12.012h4.313c3.935,0,5.912-2.99,5.912-5.997
			S115.326,36.26,111.39,36.26"/>
	</g>
	<polygon style="fill:#FFFFFF;" points="98.946,48.273 98.946,39.869 104.754,48.273 106.129,48.273 106.129,36.243 104.41,36.243 
		104.41,44.715 98.55,36.243 97.21,36.243 97.21,48.273 	"/>
	<g>
		<path style="fill:#FFFFFF;" d="M89.604,43.1l1.513-4.245l1.478,4.245H89.604z M91.735,36.088h-1.272l-4.829,12.184h1.873
			c0.378-0.997,0.98-2.44,1.443-3.541h4.314l1.443,3.541h1.856L91.735,36.088z"/>
	</g>
	<polygon style="fill:#FFFFFF;" points="79.464,36.26 77.728,36.26 77.728,48.273 85.118,48.273 85.118,46.537 79.464,46.537 	"/>
	<g>
		<path style="fill:#FFFFFF;" d="M76.549,39.285c-0.31-2.2-2.234-3.162-4.09-3.162c-1.392,0-2.836,0.55-3.644,1.598
			c-0.516,0.671-0.721,1.478-0.653,2.286V39.99c0.189,2.509,2.389,2.922,4.262,3.11c1.203,0.12,2.44,0.274,2.646,1.186
			c0.035,0.155,0.052,0.292,0.052,0.412c0,1.237-1.409,1.959-2.698,1.959c-1.117,0-2.475-0.584-2.595-1.701v0.068l-0.017-0.257
			l-1.753,0.034l0.018,0.326c0.223,2.148,2.475,3.248,4.33,3.248c2.166,0,4.468-1.34,4.468-3.66c0-0.241-0.034-0.533-0.085-0.79
			c-0.464-1.925-2.51-2.354-4.159-2.561c-1.289-0.12-2.647-0.275-2.733-1.513c-0.034-0.412,0.052-0.808,0.293-1.117
			c0.481-0.619,1.374-0.894,2.182-0.911c1.049-0.017,2.218,0.446,2.457,1.53L76.549,39.285z"/>
	</g>
	<polygon style="fill:#FFFFFF;" points="78.344,21.772 77.728,22.596 78.362,23.467 78.983,23.29 79.361,22.337 79.358,22.133 	"/>
	<polygon style="fill:#FFFFFF;" points="78.983,23.29 79.37,23.18 79.361,22.337 	"/>
	<polygon style="fill:#FFFFFF;" points="88.397,40.715 87.368,41.033 87.368,42.062 88.016,42.263 88.551,40.916 	"/>
	<polygon style="fill:#FFFFFF;" points="88.55,40.916 88.017,42.263 88.397,42.38 89.032,41.547 	"/>
	<polygon style="fill:#FFFFFF;" points="70.311,35.017 69.303,35.303 68.67,34.433 69.285,33.608 70.3,33.969 	"/>
</g>
</svg>
