<?xml version="1.0" encoding="utf-8"?>
<!-- Generator: Adobe Illustrator 19.0.0, SVG Export Plug-In . SVG Version: 6.00 Build 0)  -->
<svg version="1.1" id="Layer_1" xmlns="http://www.w3.org/2000/svg" xmlns:xlink="http://www.w3.org/1999/xlink" x="0px" y="0px"
	 width="152.5px" height="62.9px" viewBox="51 -6.9 152.5 62.9" style="enable-background:new 51 -6.9 152.5 62.9;"
	 xml:space="preserve">
<style type="text/css">
	.st0{fill:#FFFFFF;}
	.st1{fill:none;stroke:#FFFFFF;stroke-width:0.297;stroke-miterlimit:10;}
	.st2{fill:none;stroke:#FFFFFF;stroke-width:0.298;stroke-miterlimit:10;}
</style>
<g>
	<polygon class="st0" points="102.7,11.9 105.5,11.9 109.8,20.4 109.8,20.4 109.8,11.9 112,11.9 112,23.3 109.2,23.3 104.9,14.8 
		104.9,14.8 104.9,23.3 102.7,23.3 	"/>
	<g>
		<path class="st0" d="M114.2,15.4c0.8-0.4,2-0.6,2.9-0.6c2.6,0,3.6,1.1,3.6,3.5v1.1c0,0.8,0,1.5,0,2.1c0,0.6,0,1.2,0.1,1.9h-1.9
			c-0.1-0.4-0.1-1-0.1-1.3h0c-0.5,0.9-1.6,1.5-2.6,1.5c-1.5,0-2.9-0.9-2.9-2.5c0-1.3,0.6-2,1.4-2.4s1.9-0.5,2.8-0.5h1.2
			c0-1.4-0.6-1.8-1.9-1.8c-0.9,0-1.9,0.4-2.6,0.9L114.2,15.4z M116.7,21.9c0.7,0,1.2-0.3,1.5-0.8c0.4-0.5,0.5-1.1,0.5-1.7h-0.9
			c-1,0-2.4,0.2-2.4,1.5C115.3,21.6,115.9,21.9,116.7,21.9"/>
		<path class="st0" d="M122.8,16.5h-1.6v-1.6h1.6v-1.7l2.2-0.7v2.4h1.9v1.6H125v3.9c0,0.7,0.2,1.4,1,1.4c0.4,0,0.8-0.1,1-0.2
			l0.1,1.7c-0.5,0.1-1,0.2-1.6,0.2c-1.7,0-2.7-1.1-2.7-2.7V16.5z"/>
		<path class="st0" d="M127.9,11.3h2.2v2.1h-2.2V11.3z M127.9,14.9h2.2v8.4h-2.2V14.9z"/>
		<path class="st0" d="M135.6,14.7c2.5,0,4.4,1.7,4.4,4.5c0,2.4-1.6,4.3-4.4,4.3c-2.8,0-4.4-1.9-4.4-4.3
			C131.2,16.4,133.1,14.7,135.6,14.7 M135.6,21.8c1.7,0,2.1-1.5,2.1-2.9c0-1.3-0.7-2.5-2.1-2.5c-1.4,0-2.1,1.2-2.1,2.5
			C133.5,20.3,133.9,21.8,135.6,21.8"/>
		<path class="st0" d="M141.1,14.9h2.1v1.1h0c0.7-1,1.6-1.3,2.8-1.3c2,0,2.9,1.4,2.9,3.3v5.3h-2.2v-4.5c0-1,0-2.4-1.4-2.4
			c-1.6,0-1.9,1.7-1.9,2.8v4.1h-2.2C141.1,23.3,141.1,14.9,141.1,14.9z"/>
		<path class="st0" d="M150.7,15.4c0.8-0.4,2-0.6,2.9-0.6c2.6,0,3.6,1.1,3.6,3.5v1.1c0,0.8,0,1.5,0,2.1c0,0.6,0,1.2,0.1,1.9h-1.9
			c-0.1-0.4-0.1-1-0.1-1.3h0c-0.5,0.9-1.6,1.5-2.6,1.5c-1.5,0-2.9-0.9-2.9-2.5c0-1.3,0.6-2,1.4-2.4s1.9-0.5,2.8-0.5h1.2
			c0-1.4-0.6-1.8-1.9-1.8c-0.9,0-1.9,0.4-2.6,0.9L150.7,15.4z M153.3,21.9c0.7,0,1.2-0.3,1.5-0.8c0.4-0.5,0.5-1.1,0.5-1.7h-0.9
			c-1,0-2.4,0.2-2.4,1.5C151.9,21.6,152.5,21.9,153.3,21.9"/>
		<rect x="158.8" y="11.1" class="st0" width="2.2" height="12.2"/>
		<path class="st0" d="M167,11.9h2.9c2.5,0,4.7,0.7,4.7,3.4c0,2.7-1.9,3.6-4.4,3.6h-1v4.3H167V11.9z M169.3,17.2h0.8
			c1.1,0,2.2-0.4,2.2-1.7c0-1.3-1-1.8-2.2-1.8h-0.8V17.2z"/>
		<path class="st0" d="M175.6,15.4c0.8-0.4,2-0.6,2.9-0.6c2.6,0,3.6,1.1,3.6,3.5v1.1c0,0.8,0,1.5,0,2.1c0,0.6,0,1.2,0.1,1.9h-1.9
			c-0.1-0.4-0.1-1-0.1-1.3h0c-0.5,0.9-1.6,1.5-2.6,1.5c-1.5,0-2.9-0.9-2.9-2.5c0-1.3,0.6-2,1.4-2.4s1.9-0.5,2.8-0.5h1.2
			c0-1.4-0.6-1.8-1.9-1.8c-0.9,0-1.9,0.4-2.6,0.9L175.6,15.4z M178.2,21.9c0.7,0,1.2-0.3,1.5-0.8c0.4-0.5,0.5-1.1,0.5-1.7h-0.9
			c-1,0-2.4,0.2-2.4,1.5C176.8,21.6,177.4,21.9,178.2,21.9"/>
		<path class="st0" d="M183.7,14.9h1.9v1.9h0c0.1-0.8,1-2.1,2.3-2.1c0.2,0,0.4,0,0.7,0.1V17c-0.2-0.1-0.6-0.2-1-0.2
			c-1.8,0-1.8,2.2-1.8,3.4v3.1h-2.2L183.7,14.9L183.7,14.9z"/>
		<polygon class="st0" points="189.3,11.1 191.5,11.1 191.5,18.3 191.5,18.3 194.1,14.9 196.7,14.9 193.6,18.7 197.1,23.3 
			194.3,23.3 191.5,19.2 191.5,19.2 191.5,23.3 189.3,23.3 		"/>
		<path class="st0" d="M202.9,16.7c-0.7-0.2-1.2-0.4-2-0.4c-0.6,0-1.3,0.2-1.3,0.9c0,1.3,3.8,0.5,3.8,3.5c0,2-1.7,2.7-3.5,2.7
			c-0.8,0-1.7-0.1-2.5-0.4l0.1-1.8c0.7,0.3,1.4,0.6,2.2,0.6c0.6,0,1.4-0.2,1.4-1c0-1.6-3.8-0.5-3.8-3.6c0-1.8,1.6-2.6,3.3-2.6
			c1,0,1.7,0.2,2.4,0.3L202.9,16.7z"/>
		<path class="st0" d="M102.6,37.3c0.6,0.4,1.5,0.7,2.5,0.7c0.7,0,1.3-0.2,1.8-0.6c0.5-0.4,0.7-1,0.7-1.8c0-0.6-0.3-1-0.8-1.4
			c-0.2-0.2-0.5-0.4-0.8-0.6c-0.3-0.2-0.6-0.3-1-0.5c-0.3-0.2-0.6-0.4-0.9-0.6c-0.3-0.2-0.6-0.4-0.8-0.7c-0.5-0.5-0.8-1.1-0.8-1.8
			c0-0.9,0.4-1.7,1.1-2.2c0.7-0.5,1.5-0.8,2.5-0.8c0.3,0,0.6,0,1,0.1c0.4,0.1,0.8,0.2,1.2,0.3l-0.2,1c-0.6-0.3-1.2-0.4-2.1-0.4
			c-0.3,0-0.6,0-0.9,0.1c-0.3,0.1-0.5,0.2-0.8,0.3c-0.2,0.1-0.4,0.3-0.6,0.6c-0.2,0.3-0.2,0.6-0.2,0.9c0,0.3,0.1,0.5,0.2,0.8
			c0.2,0.2,0.3,0.4,0.6,0.6c0.3,0.2,0.5,0.4,0.8,0.5c0.3,0.2,0.6,0.4,0.9,0.5c0.7,0.3,1.3,0.7,1.8,1.2c0.3,0.2,0.5,0.5,0.6,0.8
			c0.1,0.3,0.2,0.7,0.2,1.1c0,1.1-0.4,2-1.2,2.5c-0.8,0.5-1.6,0.8-2.5,0.8c-1.1,0-2-0.2-2.6-0.5L102.6,37.3z"/>
		<path class="st0" d="M109.6,34.6c0-1.2,0.3-2.2,0.9-3c0.6-0.9,1.6-1.3,2.9-1.3c1.3,0,2.3,0.5,3,1.3c0.6,0.8,0.9,1.9,0.9,3
			c0,1.2-0.3,2.2-0.9,3c-0.6,0.9-1.6,1.3-3,1.3c-1.3,0-2.3-0.5-2.9-1.3C110,36.8,109.6,35.8,109.6,34.6 M110.8,34.6
			c0,1,0.2,1.8,0.7,2.4c0.5,0.7,1.1,1,2,1c0.9,0,1.6-0.4,2.1-1c0.5-0.6,0.7-1.5,0.7-2.4c0-1-0.2-1.8-0.7-2.5c-0.5-0.7-1.2-1-2.1-1
			c-0.9,0-1.6,0.3-2,1C111,32.8,110.8,33.6,110.8,34.6"/>
		<path class="st0" d="M125.1,36.8c0,0.6,0,1.3,0.1,2h-1v-1.5h0c-0.1,0.2-0.2,0.4-0.3,0.6c-0.1,0.2-0.3,0.4-0.5,0.6
			c-0.2,0.2-0.5,0.3-0.8,0.4c-0.3,0.1-0.7,0.2-1.1,0.2c-1,0-1.7-0.3-2.2-0.9c-0.4-0.6-0.7-1.3-0.7-2.3v-5.3h1v5.1
			c0,0.8,0.2,1.4,0.5,1.9c0.3,0.5,0.8,0.7,1.5,0.7c0.5,0,0.9-0.1,1.2-0.3c0.3-0.2,0.6-0.4,0.8-0.7c0.2-0.3,0.3-0.6,0.4-1
			c0.1-0.3,0.1-0.7,0.1-1v-4.6h1L125.1,36.8L125.1,36.8z"/>
		<path class="st0" d="M130.5,31.4h-1.9v5.4c0,0.4,0.1,0.7,0.3,1c0.2,0.3,0.4,0.4,0.8,0.4c0.4,0,0.7-0.1,0.9-0.2l0.1,0.8
			c-0.1,0-0.3,0.1-0.5,0.1c-0.2,0.1-0.5,0.1-0.8,0.1c-0.4,0-0.8-0.1-1.1-0.2c-0.3-0.2-0.4-0.4-0.6-0.6c-0.1-0.3-0.2-0.6-0.2-0.9
			c0-0.3,0-0.7,0-1.1v-4.9h-1.6v-0.9h1.6v-2l1-0.4v2.4h1.9C130.5,30.5,130.5,31.4,130.5,31.4z"/>
		<path class="st0" d="M131.5,26.6h1v5.3h0c0.2-0.5,0.6-0.9,1-1.2c0.4-0.3,1-0.4,1.6-0.4c1.1,0,1.9,0.3,2.3,1
			c0.4,0.7,0.6,1.5,0.6,2.6v5h-1v-5c0-0.4,0-0.7-0.1-1c0-0.3-0.1-0.6-0.3-0.8c-0.3-0.5-0.8-0.8-1.6-0.8c-0.9,0-1.5,0.4-1.9,1
			c-0.4,0.7-0.6,1.4-0.6,2.2v4.5h-1L131.5,26.6L131.5,26.6z"/>
		<path class="st0" d="M147.9,27.4h1.3l4.5,11.4h-1.2l-1.2-3.1h-5.7l-1.2,3.1h-1.1L147.9,27.4z M146,34.8h4.9l-2.5-6.3L146,34.8z"/>
		<path class="st0" d="M160.8,36.8c0,0.6,0,1.3,0.1,2h-1v-1.5h0c-0.1,0.2-0.2,0.4-0.3,0.6c-0.1,0.2-0.3,0.4-0.5,0.6
			c-0.2,0.2-0.5,0.3-0.8,0.4c-0.3,0.1-0.7,0.2-1.1,0.2c-1,0-1.7-0.3-2.2-0.9c-0.4-0.6-0.7-1.3-0.7-2.3v-5.3h1v5.1
			c0,0.8,0.2,1.4,0.5,1.9c0.3,0.5,0.8,0.7,1.5,0.7c0.5,0,0.9-0.1,1.2-0.3c0.3-0.2,0.6-0.4,0.8-0.7c0.2-0.3,0.3-0.6,0.4-1
			c0.1-0.3,0.1-0.7,0.1-1v-4.6h1L160.8,36.8L160.8,36.8z"/>
		<path class="st0" d="M164,38.1c0.5,0,0.9-0.1,1.3-0.4c0.3-0.2,0.5-0.6,0.5-1.1c0-0.5-0.2-0.9-0.6-1.2c-0.4-0.3-0.9-0.5-1.4-0.7
			c-0.3-0.1-0.5-0.2-0.7-0.4c-0.2-0.1-0.4-0.3-0.7-0.4c-0.2-0.2-0.3-0.4-0.5-0.6c-0.1-0.2-0.2-0.5-0.2-0.8c0-0.8,0.3-1.4,0.8-1.8
			c0.5-0.3,1.2-0.5,1.9-0.5c0.2,0,0.5,0,0.9,0.1c0.4,0.1,0.8,0.2,1.1,0.3l-0.1,0.9c-0.6-0.3-1.2-0.4-1.8-0.4c-0.5,0-1,0.1-1.3,0.3
			c-0.2,0.1-0.3,0.2-0.4,0.4c-0.1,0.2-0.1,0.4-0.1,0.7c0,0.2,0.1,0.3,0.2,0.5c0.1,0.1,0.3,0.3,0.5,0.4c0.2,0.1,0.4,0.2,0.7,0.3
			c0.3,0.1,0.5,0.2,0.7,0.4c0.5,0.2,1,0.5,1.4,0.9c0.4,0.4,0.6,0.9,0.6,1.6c0,0.4-0.1,0.8-0.3,1.1c-0.2,0.3-0.4,0.6-0.7,0.7
			c-0.6,0.4-1.3,0.5-1.9,0.5c-0.8,0-1.6-0.1-2.3-0.4l0.1-1C162.5,37.9,163.2,38.1,164,38.1"/>
		<path class="st0" d="M171.9,31.4H170v5.4c0,0.4,0.1,0.7,0.3,1c0.2,0.3,0.4,0.4,0.8,0.4c0.4,0,0.7-0.1,0.9-0.2l0.1,0.8
			c-0.1,0-0.3,0.1-0.5,0.1c-0.2,0.1-0.5,0.1-0.8,0.1c-0.4,0-0.8-0.1-1.1-0.2c-0.3-0.2-0.4-0.4-0.6-0.6c-0.1-0.3-0.2-0.6-0.2-0.9
			c0-0.3,0-0.7,0-1.1v-4.9h-1.6v-0.9h1.6v-2l1-0.4v2.4h1.9V31.4z"/>
		<path class="st0" d="M172.9,32.3c0-0.8,0-1.4-0.1-1.9h1v1.6h0c0.2-0.5,0.5-0.9,0.8-1.3c0.3-0.3,0.8-0.5,1.3-0.5
			c0.3,0,0.5,0,0.7,0.1v1.1c-0.2-0.1-0.5-0.1-0.8-0.1c-0.4,0-0.7,0.1-1,0.3c-0.3,0.2-0.5,0.5-0.6,0.8c-0.2,0.3-0.3,0.7-0.3,1.1
			c-0.1,0.4-0.1,0.8-0.1,1.2v4.1h-1C172.9,38.8,172.9,32.3,172.9,32.3z"/>
		<path class="st0" d="M182.2,37.5L182.2,37.5c-0.3,0.5-0.6,0.9-1.1,1.1c-0.5,0.3-1,0.4-1.6,0.4c-0.6,0-1-0.1-1.4-0.3
			c-0.4-0.2-0.7-0.4-0.8-0.6c-0.3-0.5-0.5-1-0.5-1.5c0-0.7,0.2-1.2,0.5-1.6c0.3-0.4,0.7-0.7,1.3-0.9c0.5-0.2,1.1-0.3,1.7-0.4
			c0.6,0,1.2,0,1.7,0h0.2v-0.4c0-1.4-0.6-2.1-1.9-2.1c-0.9,0-1.7,0.2-2.4,0.7v-1c0.8-0.4,1.6-0.6,2.4-0.6c2,0,2.9,1,2.9,3.1v3.7
			c0,0.6,0,1.2,0.1,1.7h-1L182.2,37.5L182.2,37.5z M182.1,34.6h-0.3c-0.4,0-0.9,0-1.3,0c-0.5,0-0.9,0.1-1.3,0.3
			c-0.4,0.1-0.7,0.3-0.9,0.6c-0.3,0.3-0.4,0.6-0.4,1.1c0,0.5,0.2,0.9,0.5,1.1c0.3,0.2,0.7,0.4,1.2,0.4c0.6,0,1.1-0.1,1.4-0.4
			c0.3-0.2,0.6-0.5,0.7-0.8c0.2-0.3,0.3-0.7,0.3-1c0-0.3,0-0.6,0-0.8L182.1,34.6L182.1,34.6z"/>
		<rect x="184.8" y="26.6" class="st0" width="1" height="12.2"/>
		<path class="st0" d="M188.6,28.3h-1v-1.4h1V28.3z M187.5,30.5h1v8.3h-1V30.5z"/>
		<path class="st0" d="M195.1,37.5L195.1,37.5c-0.3,0.5-0.6,0.9-1.1,1.1c-0.5,0.3-1,0.4-1.6,0.4c-0.6,0-1-0.1-1.4-0.3
			c-0.4-0.2-0.7-0.4-0.8-0.6c-0.3-0.5-0.5-1-0.5-1.5c0-0.7,0.2-1.2,0.5-1.6c0.3-0.4,0.7-0.7,1.3-0.9c0.5-0.2,1.1-0.3,1.7-0.4
			c0.6,0,1.2,0,1.7,0h0.2v-0.4c0-1.4-0.6-2.1-1.9-2.1c-0.9,0-1.7,0.2-2.4,0.7v-1c0.8-0.4,1.6-0.6,2.4-0.6c2,0,2.9,1,2.9,3.1v3.7
			c0,0.6,0,1.2,0.1,1.7h-1L195.1,37.5L195.1,37.5z M195,34.6h-0.3c-0.4,0-0.9,0-1.3,0c-0.5,0-0.9,0.1-1.3,0.3
			c-0.4,0.1-0.7,0.3-0.9,0.6c-0.3,0.3-0.4,0.6-0.4,1.1c0,0.5,0.2,0.9,0.5,1.1c0.3,0.2,0.7,0.4,1.2,0.4c0.6,0,1.1-0.1,1.4-0.4
			c0.3-0.2,0.6-0.5,0.7-0.8c0.2-0.3,0.3-0.7,0.3-1c0-0.3,0-0.6,0-0.8L195,34.6L195,34.6z"/>
		<path class="st0" d="M78,45.1C78,45.1,78,45.1,78,45.1c-0.1,0-0.1,0-0.1,0C77.9,45.2,78,45.1,78,45.1"/>
		<path class="st0" d="M79.8,46c0,0.1-0.1,0.2-0.2,0.3c0,0,0,0-0.1,0c0,0,0.1,0,0.1,0c0.6,0.7,1.9,1.5,3.4,2.2c0,0,0,0,0,0
			c-0.5,0.2-1,1.1-0.5,2.1c0.5,1.1,2.2,2.2,2.5,2.1c0,0,0.6-1.9,0.1-3c-0.1-0.2-0.2-0.4-0.4-0.6c0.8,0.3,1.6,0.6,2.4,0.9
			c-0.5,0.2-0.9,1.1-0.4,2.1c0.5,1.1,2.2,2.2,2.5,2.1c0,0,0.6-1.9,0.1-3c-0.1-0.3-0.3-0.5-0.6-0.7c2.4,0.7,4.3,1.2,4.3,1.2l-0.3-1
			c-0.6-0.2-1.2-0.3-1.8-0.5c0.2-0.1,0.4-0.1,0.5-0.2c1-0.6,2-2.5,1.8-2.7c0,0-0.5-0.1-1.1-0.1c-0.7,0-1.5,0.1-2.1,0.4
			c-0.6,0.4-0.9,1-1,1.5v0.6c-1-0.3-1.9-0.6-2.7-0.9c0.1,0,0.2-0.1,0.4-0.2c1-0.6,2-2.5,1.8-2.7c0,0-0.5-0.1-1.1-0.1
			c-0.7,0-1.5,0.1-2.1,0.4c-0.7,0.4-1,1.1-1.1,1.7c-1.7-0.8-2.7-1.6-3.3-2.1c3.2-0.8,6.4-1.9,9.4-3.1l0.7-1.9v0c0,0-2.4,1.4-8,2.9
			c0.3-0.3,0.5-0.7,0.6-1.2c0.1-1.1-1.1-2.7-1.1-2.7h0c-0.3,0-1.6,1.6-1.8,2.7c-0.1,0.8,0.3,1.4,0.7,1.7c-0.7,0.2-1.4,0.3-2.1,0.5
			C79.8,45.1,79.9,45.5,79.8,46"/>
		<path class="st0" d="M79.3,46.3c-0.6-0.3-1-0.7-1.3-1.1c0,0-0.1,0-0.1,0c0,0,0.1-0.1,0.1-0.1c-0.4-0.6-0.7-1.4-0.9-2.1
			c-0.1-0.4-0.3-0.8-0.4-1.1c-0.1-0.3-0.2-0.6-0.3-0.9c-0.6,0.7-1.4,1.7-1.5,2.6c-0.2,0.9,0.2,1.7,0.7,2.1c-1.9,0.4-3.9,0.7-6.2,1
			c0.5-0.4,0.9-1,1.1-1.8C70.7,43.3,69,41,69,41h0c-0.4,0-2.4,2.1-2.6,3.6c-0.2,1.1,0.3,1.9,0.9,2.3c-1.3,0.2-2.6,0.3-4,0.5
			c-0.2,0-0.4,0-0.6,0c-0.3,0-0.7,0-1,0c-0.6-0.1-1.1-0.2-1.6-0.4c-0.1,0-0.2-0.1-0.2-0.1c-0.5-0.3-0.9-0.7-1.4-1.1
			c-0.2-0.2-0.2-0.3-0.2-0.3l0,0.1c-0.1-0.1-0.1-0.1-0.2-0.2c0.1,0,0.2,0.1,0.3,0.1c0.4,0,1.5-0.6,1.7-1.8c0.1-1.1-1.1-2.7-1.1-2.7
			h0c-0.3,0-1.6,1.6-1.8,2.7c-0.1,0.5,0.1,0.9,0.3,1.2c-1.9-1.5-3.6-3-4.4-3.5L52,42.7v0c0.5,0.3,1.1,0.7,1.7,1.1
			c-0.2,0-0.4,0-0.6,0.1C52,44.3,51,46,51,46c0.1,0.2,2.2,0.7,3.3,0.3c0.7-0.2,1.1-0.7,1.2-1.2c1.3,1.1,2.4,2.1,3,2.7
			c-1.9,0.2-4,0.3-6.1,0.4l-1.1,1.5v0h4c2.2-0.1,5.3-0.4,8.8-0.8c0,0-0.1,0.1-0.1,0.1c-0.4,0.3-0.7,1.7,0.2,2.7
			c0.8,0.9,2.7,1.3,3.3,1.5h0.2c0.2-0.4-0.1-2.5-1-3.5c-0.5-0.5-1-0.8-1.5-0.9c1.3-0.2,2.6-0.4,4-0.6c-0.4,0.5-0.7,1.8,0.2,2.9
			c0.8,1.1,3,1.7,3.6,1.9h0.2c0.2-0.4,0.1-2.8-0.8-4c-0.4-0.6-1-0.9-1.5-1c1-0.2,2-0.3,3-0.5c0,0-0.1,0.1-0.1,0.1
			c-0.4,0.4-0.6,2,0.6,3.2c0.8,0.7,2.4,1,3.4,1.2h1c0.1-0.5-0.5-2.9-1.7-4c-0.5-0.5-1.1-0.7-1.6-0.8c1.3-0.3,2.7-0.6,4-0.9
			c0,0,0,0-0.1,0C79.4,46.3,79.4,46.3,79.3,46.3"/>
		<path class="st0" d="M62.7,2.5c-1.2,3-1.8,5.6-2,7.9c-0.1,1.9,0.2,3.6,0.6,5.3c0.1,0,0.1,0,0.1,0c0.6-0.2,1.4-0.3,2.2-0.3
			c1.2,0,2.1,0.3,2.7,0.9c1.5,1.5,1.2,5.6,0.8,6.5c-0.3,0.9-1.2,1.8-2.1,1.8c-0.1,0-0.1,0-0.2,0c-0.4,0-0.6-0.2-0.8-0.3
			c-0.3-0.1-0.4-0.2-0.6-0.1c-0.2,0.1-0.3,0.1-0.4,0.1c0.1,1.7,0,3.3-0.2,4.8c-0.1,0.4-0.7,2.6-1.2,4.4c-0.4,1.4-0.7,2.3-0.9,2.9
			c0.2-0.2,0.5-0.5,0.9-0.8c0.1,0,0.1-0.1,0.1-0.1c0.6-0.6,1.2-1.3,1.6-1.9c0.5-0.7,1.3-1.8,2.1-3.1c0,0.4-0.1,0.8-0.1,1.2
			c-0.1,0.4-0.1,0.8-0.1,1.2c-0.1,1.6-0.3,3.2-0.6,4.8c-0.6,2.9-1.5,6.5-3.6,9.2c0.9-0.4,1.7-1,2.7-1.8c3.1-2.7,5.4-6.8,7.2-12.7
			c0.1-0.2,0.1-0.4,0.2-0.6c-0.3-1.1-0.6-2.2-1-3.3c-1.7-5.1-2.4-10.3-2.1-16.2c0.1-2.3,0.5-4.4,1.1-6.2C69.1,6.1,69,6,69,5.8
			c-1.3-1.4-2.4-3-3.3-4.7c-0.1-0.2-0.2-0.6-0.3-1c-0.1-0.4-0.3-1.3-0.5-1.4c0,0-0.1,0-0.2,0.2C63.7-0.1,63.2,1.3,62.7,2.5"/>
		<path class="st0" d="M80.4,14.9c0,0.1,0,0.1,0,0.2l0,0h0c0,0.1,0,0.3,0,0.4c0.1,0.7,0.1,1.3,0.1,2c0.3-0.2,0.8-0.3,1.3-0.3
			c1.1-0.1,1.9,0,2.6,0.3c0-0.4,0-0.8,0-1.1c0-0.8,0.1-1.7,0-2.5c-0.2-1.7-1-3-1.9-4.4c-1-1.5-1.5-3-1.7-4.6c0-0.3,0-0.6,0-0.8
			c0-0.2,0-0.4,0-0.6c-0.1,0.1-0.1,0.2-0.2,0.3c0,0.1-0.1,0.1-0.1,0.1c-0.2,0.4-0.5,0.8-0.8,1.2c-0.7,1-1.3,2-1.6,3.2
			c0.5,1.1,1,2.2,1.3,3.3C80,12.7,80.3,13.8,80.4,14.9C80.4,14.9,80.4,14.9,80.4,14.9"/>
		<path class="st0" d="M83.3,25.6c-0.1,0-0.2,0-0.3,0c-1.3,0-2.4-0.5-3.2-1.5c-0.1-0.1-0.2-0.3-0.3-0.4c-0.1,0.5-0.3,0.9-0.4,1.4
			c-1.2,3.6-1.8,7.2-2.5,11l-0.1,0.7c-0.1,0.9-0.2,1.4,0,2.2l0.1,0.3c0.2,0.8,0.5,1.6,0.8,2.4c0.2,0.3,0.3,0.7,0.4,1.1
			c0.3,0.9,0.7,1.9,1.3,2.5c0-0.3-0.1-0.5-0.1-0.8c-0.1-0.5-0.2-0.9-0.2-1.4c0-1.3,0.1-2.6,0.3-3.8c0.1-0.9,0.3-2,0.8-3.1
			c0.1-0.2,0.1-0.3,0.2-0.5c0.2-0.3,0.3-0.6,0.3-0.6l1.2-1.8c0,0.1,0,0.2,0,0.3c-0.7,1.4,0.2,3.4,1.4,4.9c0.5,0.6,1,1.2,1.5,1.7
			c0.1,0.1,0.2,0.2,0.4,0.3c-0.2-0.3-0.3-0.6-0.5-0.9c-0.5-1-1.1-2.1-1.3-3.3c-0.3-1.7-0.2-3.6-0.1-5.3l0-0.4c0-0.9,0.2-1.8,0.4-2.7
			c0.1-0.7,0.3-1.5,0.3-2.2C83.6,25.5,83.4,25.6,83.3,25.6"/>
		<path class="st0" d="M68.9,12.5c-0.1,2.1-0.1,4,0.1,5.9c0-0.1,0.1-0.2,0.1-0.3c0.1-0.3,0.3-0.5,0.5-0.7l0.1,0l0.1,0
			c0.8-0.3,1.7-0.4,2.7-0.4c0.7,0,1.4,0.1,2.1,0.1l0.4,0c0.2,0,0.4,0.1,0.6,0.1c1.1,0.3,1.7,1.1,1.8,2.4c0,0.8,0.1,2.5-0.4,4
			c-0.1,0.5-0.3,1-0.6,1.3c-0.5,0.8-1.3,1.2-2.2,1.2l-0.2,0c-1.2,0-2.9,0-3.9-0.9c0.3,1.1,0.6,2.2,0.9,3.2
			c1.7,5.2,2.6,10.5,2.4,15.6c1.5-3.2,2.1-6.7,2.6-10.3c0.2-1.1,0.4-2.3,0.6-3.4c0.3-1.8,0.9-3.6,1.4-5.3c0.3-1,0.6-2.1,0.9-3.1
			c0-0.2,0-0.3,0.1-0.5c0.1-0.3,0.1-0.6,0.1-0.8c0.1-0.6,0.2-1.2,0.4-1.8c0.2-1.2,0.2-2.3,0.1-3.5c0,0,0,0,0,0c0,0,0,0,0,0
			c-0.4-3.2-2-6.2-3.6-9c-0.8-1.4-1.6-2.9-2.3-4.4c0-0.1-0.1-0.2-0.1-0.2c-0.1-0.2-0.3-0.8-0.5-0.9c0,0,0,0,0,0
			c-0.8,0.7-1.3,1.8-1.9,2.7c-0.1,0.2-0.2,0.4-0.3,0.6C69.8,6.1,69.1,9,68.9,12.5"/>
		<polyline class="st0" points="60.8,16.8 60.8,16.9 60.8,16.9 60.8,16.8 		"/>
		<polyline class="st0" points="60.8,16.8 60.8,16.9 60.8,16.9 60.8,16.8 		"/>
		<path class="st1" d="M66.7,21.6c0,0,0-0.1,0-0.1c0,0,0-0.1,0-0.1c0,0,0,0,0-0.1c0.1-1.2,0.2-3.1-0.8-4.2c0,0-0.1-0.1-0.1-0.1
			c-0.1-0.1-0.2-0.2-0.3-0.2c-0.1-0.1-0.2-0.1-0.3-0.2c0,0,0,0.1,0,0.1c0,0,0,0,0,0c-0.4,0.7-2,0.9-2.6,0.9c-0.3,0-0.6,0-0.9-0.1
			c-0.4-0.1-0.7-0.2-0.9-0.4c0,0,0-0.1,0-0.1c-0.5,0.4-1.2,1-1.3,2c0,0.1,0,0.1,0,0.2c-0.1,0.9,0.1,1.9,0.6,2.7
			c0,0.1,0.1,0.2,0.1,0.2c0,0,0,0,0,0c0,0,0,0,0,0c0.3,0.4,0.7,0.7,1,0.8c0.2,0.1,0.4,0.2,0.6,0.2c0.1,0.1,0.3,0.1,0.4,0.2
			c0.3,0.1,0.5,0.2,0.6,0.2c0,0,0.1,0,0.1,0c0.1,0,0.2,0,0.2-0.1c0.2-0.1,0.3-0.1,0.5-0.1c0.1,0,0.3,0,0.4,0.1c0,0,0,0,0,0
			c0,0,0,0,0,0c0.1,0,0.2,0.1,0.3,0.2c0.2,0.1,0.3,0.2,0.6,0.2c0.2,0,0.5-0.1,0.7-0.3c0,0,0,0,0.1,0c0,0,0,0,0,0c0,0,0,0,0.1-0.1
			c0,0,0,0,0.1-0.1c0,0,0,0,0,0c0,0,0,0,0,0c0.1-0.1,0.1-0.1,0.2-0.2c0.1-0.2,0.2-0.4,0.3-0.6c0.1-0.1,0.1-0.4,0.1-0.7c0,0,0,0,0,0
			C66.7,21.8,66.7,21.7,66.7,21.6z"/>
		<path class="st0" d="M65.9,17C67,18.1,65.7,16.8,65.9,17"/>
		<path class="st0" d="M60.7,17.1l0.6,0.3c0,0,0.6,0.4,1.8,0.2s1.8-0.5,2-0.8c0.2-0.3,0.3-0.3,0.3-0.3s-0.9-0.6-2-0.3
			c0,0-1.3,0.1-1.6,0.3C61.4,16.6,60.4,16.8,60.7,17.1"/>
		<path class="st2" d="M76.5,19.1c-0.1-0.3-0.3-0.6-0.6-0.8c0.8,0.9-0.3,1.6-1.7,1.8c-0.4,0-0.7,0-1,0c-0.1,0-0.3,0-0.4-0.1
			c-0.5-0.1-1.2-0.2-1.7-0.4c-0.3-0.1-0.5-0.3-0.6-0.5c-0.2-0.3-0.3-0.7-0.3-1c0,0,0,0-0.1,0c0,0,0,0,0,0c-0.6,0.3-0.8,1.3-0.8,2.2
			c0,0.2,0,0.4,0,0.6c0,0.3,0.1,0.7,0.2,1c0,0.1,0,0.2,0.1,0.3c0.2,0.7,0,0.1,0,0c0.2,0.8,0.4,1.5,1,2.2c0.4,0.4,1,0.6,1.6,0.7
			c0,0,0,0,0,0c0.6,0.1,1.6,0.2,2.4,0.1c0.3,0,0.5-0.1,0.7-0.2c0,0,0,0,0,0c0,0,0.1,0,0.1-0.1c0,0,0,0,0,0c0,0,0.1,0,0.1-0.1
			c0.1-0.1,0.3-0.2,0.4-0.4l0,0c0.2-0.2,0.3-0.5,0.4-0.8C76.8,22.3,77,20.3,76.5,19.1z"/>
		<path class="st0" d="M70,18c0,0,0.2,1.6,1,1.7c0,0,2.3,0.5,3.5,0.3c0,0,1.6-0.7,1.6-1.2c0-0.5-0.7-1-0.9-1.1
			c-0.2-0.2-0.9-0.3-2.2-0.3c-1.1,0-1.9,0.3-1.9,0.3L70,18z"/>
		<path class="st2" d="M85.7,20.4c-0.1-0.1-0.1-0.2-0.1-0.3c-0.1-0.2-0.2-0.4-0.3-0.6c-0.1-0.2-0.2-0.3-0.3-0.4
			c0-0.1-0.1-0.1-0.2-0.2c0,0.2-0.1,0.4-0.3,0.6c0,0,0,0,0,0c-0.5,0.2-1.3,0.3-1.9,0.3c-0.9-0.1-1.7-0.5-1.9-1.2c0-0.1,0-0.1,0-0.2
			c-0.1,0-0.1,0.1-0.1,0.1c0,0-0.1,0.1-0.1,0.1c0,0,0,0,0,0c0,0,0,0,0,0c-0.7,0.7-0.6,1.9-0.8,2.8c0,0.1,0,0.2,0,0.3
			c0,0,0,0.1,0,0.1c0,0.1,0,0.1,0,0.2c0,0,0,0.1,0,0.1c0,0,0,0.1,0,0.1c0,0.1,0,0.2,0.1,0.3c0,0,0,0,0,0c0,0,0,0.1,0,0.1
			c0.1,0.3,0.3,0.7,0.5,1c0,0,0.1,0.1,0.1,0.1c0,0,0,0,0.1,0.1c0.1,0.1,0.1,0.1,0.2,0.2c0,0,0.1,0.1,0.2,0.1c0,0,0.1,0.1,0.1,0.1
			c0.1,0.1,0.2,0.1,0.3,0.2c0,0,0,0,0.1,0c0,0,0.1,0,0.1,0.1c0.1,0,0.1,0.1,0.2,0.1c0,0,0,0,0,0c0.6,0.2,1.1,0.3,1.5,0.3
			c0,0,0.1,0,0.1,0c0.2,0,0.4-0.1,0.6-0.1c0.3-0.1,0.6-0.3,0.9-0.6c0,0,0.1-0.1,0.1-0.1c0.5-0.6,0.8-1.3,0.9-2.1
			c0.1-0.4,0.1-0.7,0.1-1.1C85.8,20.9,85.8,20.9,85.7,20.4z"/>
		<path class="st0" d="M80.8,18.2c0,0-0.1,1.3,1.3,1.5c0,0,3.6,0.3,2.7-1.1c0,0-0.7-0.6-1.7-0.7s-1.4,0-1.4,0L80.8,18.2z"/>
	</g>
</g>
</svg>
