<?xml version="1.0" encoding="iso-8859-1"?>
<!-- Generator: Adobe Illustrator 18.0.0, SVG Export Plug-In . SVG Version: 6.00 Build 0)  -->
<!DOCTYPE svg PUBLIC "-//W3C//DTD SVG 1.1//EN" "http://www.w3.org/Graphics/SVG/1.1/DTD/svg11.dtd">
<svg version="1.1" id="Layer_1" xmlns="http://www.w3.org/2000/svg" xmlns:xlink="http://www.w3.org/1999/xlink" x="0px" y="0px"
	 viewBox="0 0 143 63" style="enable-background:new 0 0 143 63;" xml:space="preserve">
<g>
	<path style="fill:#FFFFFF;" d="M131.659,38.316v-6.635h5.468v6.635h4.51v-16.81h-4.51v6.232h-5.468v-6.232h-4.51v16.81H131.659z
		 M126.409,21.506h-13.172v3.79h4.294v13.02h4.512v-13.02h4.366V21.506z M88.926,21.229c-5.161,0-8.357,3.894-8.357,8.786
		c0,4.661,2.873,8.581,8.09,8.581h0.02c5.167,0,8.413-3.443,8.413-8.856C97.092,25.244,94.343,21.229,88.926,21.229 M88.879,35.023
		h-0.051c-2.161,0-3.517-2.089-3.494-5.114c0-2.917,1.333-5.112,3.494-5.112c2.202,0,3.492,2.195,3.492,5.087
		C92.32,32.934,91.056,35.023,88.879,35.023 M107.983,31.057c0,2.673-0.866,3.966-2.671,3.966c-1.773,0-2.647-1.418-2.647-3.966
		v-9.551h-4.509v9.18c0,5.382,2.443,7.91,7.037,7.91c4.714,0,7.307-2.627,7.307-7.814v-9.276h-4.517V31.057z M72.912,34.885
		c-1.697,0-3.346-0.533-4.371-1.059l-0.848,3.723c0.952,0.496,2.917,1.018,4.936,1.018c4.915,0,7.174-2.464,7.174-5.362
		c0-2.345-1.357-3.938-4.378-5.063c-2.123-0.8-3.022-1.126-3.022-1.972c0-0.748,0.752-1.249,2.128-1.249
		c1.668,0,2.917,0.472,3.642,0.799l0.947-3.613c-1.098-0.479-2.547-0.853-4.535-0.853c-4.244,0-6.76,2.3-6.76,5.264
		c0,2.492,1.884,4.044,4.736,5.062c1.893,0.65,2.636,1.097,2.636,1.925C75.197,34.352,74.454,34.885,72.912,34.885 M70.949,41.368
		l-2.408,7.109h0.952l0.732-2.244h2.52l0.761,2.244h0.982l-2.429-7.109H70.949z M70.418,45.515l0.694-2.054
		c0.138-0.425,0.254-0.875,0.346-1.279h0.027c0.104,0.404,0.212,0.826,0.362,1.291l0.707,2.042H70.418z M82.481,45.576
		c0,1.565-0.69,2.26-1.726,2.26c-0.952,0-1.654-0.678-1.654-2.26v-4.208h-0.933v4.178c0,2.217,1.095,3.034,2.548,3.034
		c1.538,0,2.685-0.883,2.685-3.065v-4.147h-0.92V45.576z M90.101,44.445c-0.988-0.385-1.422-0.712-1.422-1.362
		c0-0.483,0.374-1.065,1.34-1.065c0.637,0,1.115,0.199,1.338,0.337l0.246-0.757c-0.296-0.164-0.836-0.336-1.556-0.336
		c-1.376,0-2.293,0.826-2.293,1.93c0,0.987,0.72,1.6,1.877,2.002c0.952,0.352,1.341,0.741,1.341,1.408
		c0,0.72-0.555,1.204-1.488,1.204c-0.64,0-1.23-0.202-1.637-0.455l-0.236,0.758c0.37,0.255,1.119,0.464,1.812,0.464
		c1.675,0,2.469-0.96,2.469-2.045C91.892,45.483,91.292,44.919,90.101,44.445 M107.802,45.085v-0.038
		c0.733-0.246,1.334-0.868,1.334-1.798c0-0.553-0.208-1.041-0.559-1.347c-0.446-0.403-1.083-0.588-2.067-0.588
		c-0.62,0-1.291,0.063-1.752,0.159v7.004h0.916v-3.09h0.857c0.836,0.032,1.225,0.407,1.426,1.383
		c0.204,0.886,0.358,1.488,0.474,1.707h0.952c-0.147-0.284-0.313-0.962-0.548-1.955C108.666,45.786,108.335,45.271,107.802,45.085
		 M106.612,44.696h-0.938v-2.587c0.156-0.039,0.459-0.082,0.911-0.082c0.959,0,1.626,0.4,1.626,1.316
		C108.211,44.154,107.587,44.696,106.612,44.696 M115.375,41.368l-2.417,7.109h0.945l0.74-2.244h2.517l0.756,2.244h0.978
		l-2.417-7.109H115.375z M114.828,45.515l0.697-2.054c0.139-0.425,0.254-0.875,0.355-1.279h0.023
		c0.111,0.404,0.216,0.826,0.362,1.291l0.702,2.042H114.828z M123.835,41.368h-0.929v7.109h3.955v-0.78h-3.026V41.368z
		 M95.532,42.148h2.153v6.329h0.929v-6.329h2.174v-0.78h-5.256V42.148z M139.221,41.368h-1.107l-2.412,7.109h0.947l0.733-2.244
		h2.524l0.752,2.244h0.979L139.221,41.368z M137.571,45.515l0.697-2.054c0.139-0.425,0.255-0.875,0.346-1.279h0.036
		c0.103,0.404,0.212,0.826,0.354,1.291l0.705,2.042H137.571z M130.738,48.477h0.929v-7.109h-0.929V48.477z"/>
	<polygon style="fill:#FFFFFF;" points="65.141,23.744 28.998,1.159 0,19.278 8.634,45.808 23.115,36.76 23.115,21.505 
		42.029,21.505 42.029,44.024 53.595,48.477 	"/>
	<polygon style="fill:#FFFFFF;" points="40.545,22.993 24.602,22.993 24.602,37.328 25.545,37.702 25.545,25.116 37.147,25.116 
		37.147,42.149 40.545,43.448 	"/>
	<polygon style="fill:#FFFFFF;" points="27.034,26.603 27.034,28.726 32.892,28.726 32.892,40.513 35.659,41.572 35.659,26.603 	"/>
	<g style="opacity:0.8;">
		<g>
			<g>
				<polygon style="fill:#FFFFFF;" points="53.595,0.111 46.966,12.388 65.141,23.744 				"/>
			</g>
		</g>
	</g>
</g>
</svg>
