<svg xmlns="http://www.w3.org/2000/svg" width="72.26mm" height="28mm" viewBox="0 0 204.82 79.37">
  <defs>
    <style>
      .a {
        fill: #fff;
      }

      .b {
        fill: none;
      }
    </style>
  </defs>
  <title>logo-npsa</title>
  <g>
    <path class="a" d="M79.63,24.26V31.2H77.48V20.86h2.21l4.69,6.69V20.86h2.15V31.2H84.46Z" transform="translate(0)"/>
    <path class="a" d="M92.59,30.42a3,3,0,0,1-2.32,1,2.46,2.46,0,0,1-2.54-2.48,2.33,2.33,0,0,1,2.54-2.38,2.93,2.93,0,0,1,2.32.91v-1c0-.76-.63-1.25-1.6-1.25a3,3,0,0,0-2.14.88l-.73-1.31a4.72,4.72,0,0,1,3.2-1.18c1.67,0,3.2.68,3.2,2.83V31.2H92.59Zm0-2a1.89,1.89,0,0,0-1.54-.65c-.76,0-1.38.42-1.38,1.13s.62,1.1,1.38,1.1a1.89,1.89,0,0,0,1.54-.65Z" transform="translate(0)"/>
    <path class="a" d="M96.37,29.34V25.43H95.16V23.71h1.21v-2h1.94v2H99.8v1.72H98.31v3.38c0,.46.24.82.67.82a1,1,0,0,0,.66-.22l.42,1.49a2.38,2.38,0,0,1-1.61.48A1.85,1.85,0,0,1,96.37,29.34Z" transform="translate(0)"/>
    <path class="a" d="M100.61,21.44a1.18,1.18,0,0,1,1.15-1.18,1.18,1.18,0,1,1-1.15,1.18Zm.19,2.27h1.93V31.2H100.8Z" transform="translate(0)"/>
    <path class="a" d="M103.72,27.45a3.88,3.88,0,1,1,7.75,0,3.88,3.88,0,1,1-7.75,0Zm5.75,0a1.9,1.9,0,1,0-3.75,0,1.9,1.9,0,1,0,3.75,0Z" transform="translate(0)"/>
    <path class="a" d="M117.46,26.67c0-1-.53-1.39-1.35-1.39a2.05,2.05,0,0,0-1.66.88v5h-1.93V23.71h1.93v1A3.31,3.31,0,0,1,117,23.53a2.15,2.15,0,0,1,2.38,2.38V31.2h-1.93Z" transform="translate(0)"/>
    <path class="a" d="M125.29,30.42a3,3,0,0,1-2.32,1,2.47,2.47,0,0,1-2.55-2.48A2.33,2.33,0,0,1,123,26.52a3,3,0,0,1,2.32.91v-1c0-.76-.64-1.25-1.61-1.25a3,3,0,0,0-2.14.88l-.73-1.31a4.74,4.74,0,0,1,3.2-1.18c1.67,0,3.2.68,3.2,2.83V31.2h-1.92Zm0-2a1.93,1.93,0,0,0-1.55-.65c-.76,0-1.38.42-1.38,1.13s.62,1.1,1.38,1.1a1.93,1.93,0,0,0,1.55-.65Z" transform="translate(0)"/>
    <path class="a" d="M128.69,20.86h1.92V31.2h-1.92Z" transform="translate(0)"/>
    <path class="a" d="M135.76,20.86h4.73a3.19,3.19,0,0,1,3.39,3.33,3.18,3.18,0,0,1-3.39,3.3h-2.58V31.2h-2.15Zm4.44,1.89h-2.29V25.6h2.29a1.39,1.39,0,0,0,1.49-1.42A1.41,1.41,0,0,0,140.2,22.75Z" transform="translate(0)"/>
    <path class="a" d="M149.1,30.42a3,3,0,0,1-2.32,1,2.47,2.47,0,0,1-2.55-2.48,2.34,2.34,0,0,1,2.55-2.38,2.93,2.93,0,0,1,2.32.91v-1c0-.76-.63-1.25-1.6-1.25a3,3,0,0,0-2.14.88l-.73-1.31a4.74,4.74,0,0,1,3.2-1.18c1.67,0,3.2.68,3.2,2.83V31.2H149.1Zm0-2a1.89,1.89,0,0,0-1.54-.65c-.76,0-1.38.42-1.38,1.13s.62,1.1,1.38,1.1a1.89,1.89,0,0,0,1.54-.65Z" transform="translate(0)"/>
    <path class="a" d="M152.5,23.71h1.93v1a3.09,3.09,0,0,1,2.33-1.2v1.92a2.53,2.53,0,0,0-.53,0,2.42,2.42,0,0,0-1.8.83V31.2H152.5Z" transform="translate(0)"/>
    <path class="a" d="M160.29,28.31l-.88,1V31.2h-1.93V20.86h1.93V27l2.77-3.33h2.37l-2.9,3.4,3,4.09h-2.41Z" transform="translate(0)"/>
    <path class="a" d="M165.51,28.84a4.17,4.17,0,0,0,2.54,1c.83,0,1.22-.29,1.22-.76s-.63-.71-1.47-.88c-1.26-.25-2.88-.56-2.88-2.34,0-1.25,1.08-2.35,3-2.35a4.56,4.56,0,0,1,3,1l-.76,1.35a3.07,3.07,0,0,0-2.17-.87c-.7,0-1.15.26-1.15.7s.57.63,1.39.8c1.26.25,2.94.59,2.94,2.45,0,1.38-1.13,2.4-3.17,2.4a4.84,4.84,0,0,1-3.27-1.16Z" transform="translate(0)"/>
    <path class="a" d="M81.83,46.76a3,3,0,0,1-2.32,1A2.45,2.45,0,0,1,77,45.24a2.33,2.33,0,0,1,2.54-2.38,2.93,2.93,0,0,1,2.32.91v-1c0-.76-.64-1.26-1.61-1.26a3.08,3.08,0,0,0-2.13.88l-.73-1.31a4.7,4.7,0,0,1,3.2-1.18c1.67,0,3.2.68,3.2,2.83v4.84H81.83Zm0-1.95a1.91,1.91,0,0,0-1.54-.65c-.76,0-1.38.42-1.38,1.13s.62,1.1,1.38,1.1a1.91,1.91,0,0,0,1.54-.65Z" transform="translate(0)"/>
    <path class="a" d="M90.17,43c0-1-.53-1.4-1.35-1.4a2.05,2.05,0,0,0-1.66.88v5H85.23V40.06h1.93v1a3.32,3.32,0,0,1,2.56-1.16,2.15,2.15,0,0,1,2.38,2.38v5.29H90.17Z" transform="translate(0)"/>
    <path class="a" d="M98.66,46.59a2.84,2.84,0,0,1-2.26,1.13c-1.85,0-3.24-1.42-3.24-3.92s1.38-3.93,3.24-3.93A2.79,2.79,0,0,1,98.66,41V37.21h1.94V47.54H98.66Zm0-4.12A2.1,2.1,0,0,0,97,41.62a1.94,1.94,0,0,0-1.85,2.18A1.93,1.93,0,0,0,97,46a2.08,2.08,0,0,0,1.67-.85Z" transform="translate(0)"/>
    <path class="a" d="M111.71,40.44,110,47.54h-2.29l-2.9-10.33h2.41L109,44.67l1.92-7.46h1.69l1.91,7.46,1.76-7.46h2.42l-2.88,10.33h-2.29Z" transform="translate(0)"/>
    <path class="a" d="M119.2,37.78A1.15,1.15,0,1,1,120.35,39,1.18,1.18,0,0,1,119.2,37.78Zm.19,2.28h1.93v7.48h-1.93Z" transform="translate(0)"/>
    <path class="a" d="M122.8,37.21h1.92V47.54H122.8Z" transform="translate(0)"/>
    <path class="a" d="M131.31,46.59A2.87,2.87,0,0,1,129,47.72c-1.84,0-3.24-1.42-3.24-3.92s1.38-3.93,3.24-3.93A2.82,2.82,0,0,1,131.31,41V37.21h1.93V47.54h-1.93Zm0-4.12a2.13,2.13,0,0,0-1.67-.85,1.93,1.93,0,0,0-1.85,2.18A1.93,1.93,0,0,0,129.64,46a2.11,2.11,0,0,0,1.67-.85Z" transform="translate(0)"/>
    <path class="a" d="M134.73,37.21h1.93V47.54h-1.93Z" transform="translate(0)"/>
    <path class="a" d="M137.94,37.78A1.16,1.16,0,1,1,139.09,39,1.18,1.18,0,0,1,137.94,37.78Zm.2,2.28h1.92v7.48h-1.92Z" transform="translate(0)"/>
    <path class="a" d="M142,41.78h-1.22V40.06H142v-.41a2.39,2.39,0,0,1,2.47-2.6,3,3,0,0,1,1.39.31l-.39,1.39a1.28,1.28,0,0,0-.63-.15c-.54,0-.9.37-.9,1.09v.37h1.48v1.72H144v5.76H142Z" transform="translate(0)"/>
    <path class="a" d="M149.47,39.87c2.18,0,3.66,1.67,3.66,4.12v.43h-5.44a2,2,0,0,0,2.11,1.74,2.93,2.93,0,0,0,1.95-.75l.85,1.27a4.43,4.43,0,0,1-3,1,3.93,3.93,0,0,1-.12-7.85Zm-1.81,3.22h3.61a1.71,1.71,0,0,0-1.8-1.65A1.78,1.78,0,0,0,147.66,43.09Z" transform="translate(0)"/>
    <path class="a" d="M158.25,44.41a4.38,4.38,0,0,0,3.21,1.39c1.19,0,1.76-.57,1.76-1.16,0-.77-.88-1-2-1.32-1.66-.38-3.78-.85-3.78-3.16,0-1.71,1.46-3.11,3.84-3.11a5.58,5.58,0,0,1,3.94,1.44L164,40.1a4.29,4.29,0,0,0-2.9-1.13c-1,0-1.48.44-1.48,1.05s.85.92,2,1.2c1.66.38,3.79.9,3.79,3.19,0,1.89-1.32,3.31-4,3.31a5.77,5.77,0,0,1-4.29-1.64Z" transform="translate(0)"/>
    <path class="a" d="M169.81,39.87c2.18,0,3.67,1.67,3.67,4.12v.43H168a2,2,0,0,0,2.11,1.74,3,3,0,0,0,2-.75l.85,1.27a4.45,4.45,0,0,1-3,1,3.93,3.93,0,0,1-.12-7.85ZM168,43.09h3.61a1.7,1.7,0,0,0-1.8-1.65A1.78,1.78,0,0,0,168,43.09Z" transform="translate(0)"/>
    <path class="a" d="M174.49,40.06h1.92v1a3.11,3.11,0,0,1,2.34-1.19v1.92a2.61,2.61,0,0,0-.54-.05,2.43,2.43,0,0,0-1.8.84v4.94h-1.92Z" transform="translate(0)"/>
    <path class="a" d="M179,40.06H181l1.91,5.2,1.91-5.2h2.08L184,47.54h-2.08Z" transform="translate(0)"/>
    <path class="a" d="M187.28,37.78A1.15,1.15,0,1,1,188.43,39,1.17,1.17,0,0,1,187.28,37.78Zm.19,2.28h1.93v7.48h-1.93Z" transform="translate(0)"/>
    <path class="a" d="M194.27,39.87a3.35,3.35,0,0,1,2.89,1.36l-1.25,1.2a1.79,1.79,0,0,0-1.55-.81,2.18,2.18,0,0,0,0,4.35,1.85,1.85,0,0,0,1.55-.8l1.25,1.19a3.35,3.35,0,0,1-2.89,1.36,3.93,3.93,0,0,1,0-7.85Z" transform="translate(0)"/>
    <path class="a" d="M201.15,39.87c2.19,0,3.67,1.67,3.67,4.12v.43h-5.44a2,2,0,0,0,2.11,1.74,2.93,2.93,0,0,0,1.95-.75l.85,1.27a4.44,4.44,0,0,1-3,1,3.93,3.93,0,0,1-.12-7.85Zm-1.8,3.22H203a1.71,1.71,0,0,0-1.81-1.65A1.77,1.77,0,0,0,199.35,43.09Z" transform="translate(0)"/>
    <path class="a" d="M77.8,61.45A4.24,4.24,0,0,0,81,62.92c1.81,0,2.38-1,2.38-1.78,0-1.24-1.23-1.58-2.56-2-1.62-.44-3.43-.9-3.43-2.93,0-1.7,1.49-2.87,3.48-2.87a4.72,4.72,0,0,1,3.59,1.44l-.76,1a3.84,3.84,0,0,0-2.93-1.24c-1.21,0-2.07.66-2.07,1.64s1.17,1.35,2.45,1.7c1.66.45,3.54,1,3.54,3.15,0,1.5-1,3-3.73,3a5,5,0,0,1-3.89-1.64Z" transform="translate(0)"/>
    <path class="a" d="M85.75,60.13a3.64,3.64,0,1,1,3.63,3.93A3.64,3.64,0,0,1,85.75,60.13Zm6,0c0-1.52-.86-2.88-2.42-2.88s-2.44,1.36-2.44,2.88.88,2.9,2.44,2.9S91.8,61.66,91.8,60.13Z" transform="translate(0)"/>
    <path class="a" d="M99.42,62.83a3.61,3.61,0,0,1-2.61,1.23,2.08,2.08,0,0,1-2.34-2.38V56.4h1.14v4.92c0,1.32.65,1.71,1.64,1.71a2.82,2.82,0,0,0,2.17-1.13V56.4h1.13v7.48H99.42Z" transform="translate(0)"/>
    <path class="a" d="M102.77,62.31V57.42h-1.21v-1h1.21v-2h1.14v2h1.49v1h-1.49v4.64c0,.56.24,1,.74,1a1.1,1.1,0,0,0,.78-.31l.33.87a1.87,1.87,0,0,1-1.36.47C103.32,64.06,102.77,63.43,102.77,62.31Z" transform="translate(0)"/>
    <path class="a" d="M111.69,59c0-1.32-.66-1.71-1.65-1.71a2.88,2.88,0,0,0-2.17,1.16v5.47h-1.13V53.55h1.13v3.93a3.63,3.63,0,0,1,2.63-1.27,2.08,2.08,0,0,1,2.33,2.39v5.28h-1.14Z" transform="translate(0)"/>
    <path class="a" d="M124.74,61.59h-5.13l-.89,2.29h-1.39l4.06-10.33H123L127,63.88h-1.4ZM120,60.44h4.38l-2.18-5.75Z" transform="translate(0)"/>
    <path class="a" d="M132.8,62.83a3.59,3.59,0,0,1-2.61,1.23,2.08,2.08,0,0,1-2.33-2.38V56.4H129v4.92c0,1.32.66,1.71,1.64,1.71a2.78,2.78,0,0,0,2.17-1.13V56.4h1.14v7.48H132.8Z" transform="translate(0)"/>
    <path class="a" d="M135.84,62.05a3.29,3.29,0,0,0,2.41,1.07c1.12,0,1.73-.51,1.73-1.24s-.9-1.08-1.88-1.33c-1.25-.29-2.66-.64-2.66-2.18,0-1.17,1-2.16,2.73-2.16a3.7,3.7,0,0,1,2.72,1.08l-.53.81a2.85,2.85,0,0,0-2.19-.94c-1,0-1.62.46-1.62,1.13s.83,1,1.79,1.19c1.27.29,2.74.66,2.74,2.32,0,1.26-1,2.26-2.88,2.26a3.84,3.84,0,0,1-2.95-1.17Z" transform="translate(0)"/>
    <path class="a" d="M143,62.31V57.42h-1.22v-1H143v-2h1.13v2h1.49v1h-1.49v4.64c0,.56.25,1,.74,1a1.08,1.08,0,0,0,.78-.31l.33.87a1.86,1.86,0,0,1-1.36.47C143.53,64.06,143,63.43,143,62.31Z" transform="translate(0)"/>
    <path class="a" d="M147,56.4h1.14v1.21a3.07,3.07,0,0,1,2.44-1.37v1.19a2.13,2.13,0,0,0-.46,0,2.66,2.66,0,0,0-2,1.19v5.3H147Z" transform="translate(0)"/>
    <path class="a" d="M156.19,63a3.11,3.11,0,0,1-2.42,1,2.45,2.45,0,0,1-2.56-2.47,2.42,2.42,0,0,1,2.56-2.47,3,3,0,0,1,2.42,1V58.8a1.62,1.62,0,0,0-1.84-1.58,2.9,2.9,0,0,0-2.25,1l-.53-.81a3.82,3.82,0,0,1,2.93-1.24c1.54,0,2.83.71,2.83,2.52v5.15h-1.14Zm0-2.14a2.42,2.42,0,0,0-2-.93,1.64,1.64,0,1,0,0,3.27,2.42,2.42,0,0,0,2-.93Z" transform="translate(0)"/>
    <path class="a" d="M159.22,53.55h1.14V63.88h-1.14Z" transform="translate(0)"/>
    <path class="a" d="M162.06,54.35a.77.77,0,1,1,1.54,0,.77.77,0,1,1-1.54,0Zm.2,2h1.14v7.48h-1.14Z" transform="translate(0)"/>
    <path class="a" d="M169.83,63a3.14,3.14,0,0,1-2.43,1,2.46,2.46,0,0,1-2.56-2.47,2.42,2.42,0,0,1,2.56-2.47,3,3,0,0,1,2.43,1V58.8c0-1-.79-1.58-1.85-1.58a2.88,2.88,0,0,0-2.24,1l-.53-.81a3.82,3.82,0,0,1,2.92-1.24c1.55,0,2.84.71,2.84,2.52v5.15h-1.14Zm0-2.14a2.43,2.43,0,0,0-2-.93,1.64,1.64,0,1,0,0,3.27,2.43,2.43,0,0,0,2-.93Z" transform="translate(0)"/>
  </g>
  <path class="a" d="M66.35,40.51a33.05,33.05,0,0,0-33.14-32l-1.2,0A33.23,33.23,0,0,0,14.12,68.91a8.12,8.12,0,0,0-2.81,2,.84.84,0,0,0-.21.84.54.54,0,0,0,.05.11,9.8,9.8,0,0,0-2.35-.25H8.19A3.78,3.78,0,0,0,5.36,73a.83.83,0,0,0,0,.94c.16.22.82,1,2.85,1a11.63,11.63,0,0,0,1.49-.11,2.8,2.8,0,0,0-.32.62,2.53,2.53,0,0,1-.84,1.25.84.84,0,0,0-.35.94A.82.82,0,0,0,9,78.2H9a5.31,5.31,0,0,0,2.77-1.06v0A4.48,4.48,0,0,1,12,78.27a.82.82,0,0,0,.37.75.9.9,0,0,0,.44.13.8.8,0,0,0,.4-.11,2.66,2.66,0,0,0,.7-.62.87.87,0,0,0,.16.64.83.83,0,0,0,.65.31.77.77,0,0,0,.36-.09,9.46,9.46,0,0,0,1.86-1.23,3.6,3.6,0,0,0,.57-.62,5,5,0,0,0,1.21-3.35A3.07,3.07,0,0,0,18,72.33l.52-.27a3.37,3.37,0,0,0,.49-.3,33.23,33.23,0,0,0,14.11,3.11c.4,0,.8,0,1.2,0A33.1,33.1,0,0,0,47.77,71.5a9.67,9.67,0,0,1,0,2.45.83.83,0,0,0,.53.86.92.92,0,0,0,.28,0,.81.81,0,0,0,.68-.36l.47-.7.37-.51.1-.14.49-.69a6.09,6.09,0,0,0,1.11-2.79.46.46,0,0,0,.07.07l.11.12a1.84,1.84,0,0,0,1.35.76,1.41,1.41,0,0,0,.44-.08,2.59,2.59,0,0,0,1-.8l.1-.11a.8.8,0,0,0,.23-.64.87.87,0,0,0-.35-.59l-1-.73a33.37,33.37,0,0,0,8-9.2l.2-.08a.85.85,0,0,0,.46-.78,1.18,1.18,0,0,0,0-.2,1.79,1.79,0,0,0,.34,0,1.29,1.29,0,0,0,1.06-.56A1.23,1.23,0,0,0,64,55.61a1.24,1.24,0,0,0-.47-.57A33,33,0,0,0,66.35,40.51ZM63.17,56.38a.49.49,0,0,1-.41.25,2.91,2.91,0,0,1-.55-.12,13.89,13.89,0,0,0-2-.27c-.43,0-.87-.05-1.31-.05a1.58,1.58,0,0,1,.41.35,11.49,11.49,0,0,0,2.37,1.11,6.49,6.49,0,0,1-2.64.46h-.18a1.82,1.82,0,0,1-1.7-1.9h-.27a13.52,13.52,0,0,0-4.29.76,3.11,3.11,0,0,1,1.52.76,2.15,2.15,0,0,0,1.14.2,12.45,12.45,0,0,0,1.44-.1l-2.23,1.4a3.24,3.24,0,0,1-1.18.24,2.14,2.14,0,0,1-.65-.1c0,.07-.11.26-.2.5s-.12.35-.19.55c-.65,1.38.06,2.89-.49,4.25a7.07,7.07,0,0,1-.37.92c-.15.29-.33.6-.54.94,1.21.81,2.36,1.72,3.56,2.55a2.49,2.49,0,0,1-.82.7l-.17,0c-.36,0-.63-.37-.87-.63a11,11,0,0,0-1.76-1.39,2.75,2.75,0,0,1,.14.3A4.5,4.5,0,0,1,50.06,72c-.15.22-.31.45-.48.67l-.48.68-.47.69a11.71,11.71,0,0,0-.31-4,1.84,1.84,0,0,1,.6-2.09,2.14,2.14,0,0,1,.41-.29,3.25,3.25,0,0,1,.53-.22l.21-.07-.92-.62a25.87,25.87,0,0,0-3.17-2,4.06,4.06,0,0,0-1.79-.35c-.37,0-.74,0-1.1.06-3.06.24-6.13.33-9.2.53-2.87.18-5.7.48-8.55.86-1.11.15-2.71,0-3.58.79a9.58,9.58,0,0,0-1.35,2.09,5.73,5.73,0,0,1-2.22,2.61c-.53.27-1.05.56-1.58.85a2.28,2.28,0,0,1,1.27,2,4.14,4.14,0,0,1-1.05,2.79,2.25,2.25,0,0,1-.44.48,8.42,8.42,0,0,1-1.7,1.14c1.34-1.58.87-3.48,1.08-5.35a2.05,2.05,0,0,1,.25-.71h0a9.55,9.55,0,0,1-1.94.62,1.75,1.75,0,0,0-.8.36c.75.42.76,1.73.76,1.73,0,2.44-1.26,3.14-1.26,3.14a5.18,5.18,0,0,0-.24-1.4,4.49,4.49,0,0,1-.23-1.69.75.75,0,0,1-.07.12,4.26,4.26,0,0,1-3.29,2,3.22,3.22,0,0,0,1.19-1.66,4.25,4.25,0,0,1,1.92-1.92.69.69,0,0,1,0-.2c-.38.08-1.09.2-2.44.39a10.25,10.25,0,0,1-1.45.11C6.44,74.1,6,73.5,6,73.5a2.91,2.91,0,0,1,2.19-1.11H8.8c2.23,0,3.15.53,3.5.85.69-.88,2-1.14,3-1.55h-.51a23.75,23.75,0,0,1-2.93-.24c1.52-1.47,2.51-1.9,3.24-1.9a1.81,1.81,0,0,1,.87.23,1,1,0,0,1,.52,1.34,8.63,8.63,0,0,0,2.63-2,7.41,7.41,0,0,0,1-1.92c.25-.63-.05-.86-.58-.86h-.24c-.48,0-4.08.72-4.76.72a.2.2,0,0,1-.11,0c-.07-.23.59-.91.72-1.06a5.27,5.27,0,0,1,1.64-1.44,7.61,7.61,0,0,1,2.37-.46c1.08-.15,2.16-.31,3.25-.38,2.48-.18,4.94-.51,7.42-.58.76,0,1.51-.08,2.27-.08h.51c.68,0,.47-.56.4-.63a53,53,0,0,0-5.25-4.19l-1.25-.93q-.24.35-.48.66l1.24.92.23.17c1.42,1,2.78,2,4.08,3.18l-.87,0-.9,0c-1.54,0-3.07.18-4.57.32a23.07,23.07,0,0,1-2.81-1.29l-.57.32a3.33,3.33,0,0,1-1.43.47,1,1,0,0,1-.81-.36c-.61-.77.32-1.86.71-2.32.09-.1.16-.2.24-.3a2.71,2.71,0,0,1-1.15.47h0c-.38,0,.1-1.75,1.35-2.43a10.44,10.44,0,0,1,1.25-.53c.13-.31.26-.63.38-1a10.7,10.7,0,0,0-2,.78,3.92,3.92,0,0,0-1.78,2.22,23.17,23.17,0,0,1-2.18-2.14l.68-.06a4.47,4.47,0,0,0,2.5-1.07,6,6,0,0,0,1.15-1.27l.14.09c.19.11.39.23.72.46l.9.64c.09-.27.17-.55.24-.83l-.67-.48c-.75-.52-.86-.51-1.6-1a5.66,5.66,0,0,1-1.4,1.8,3.77,3.77,0,0,1-2.09.89,9.11,9.11,0,0,1-1.07.08,4.25,4.25,0,0,1-2-.44c1.27-1.18,2.4-2.86,4.34-2.86h.54a8.22,8.22,0,0,1,1.07.07c-1-.74-2.65-2-3.65-2.81a33.92,33.92,0,0,0-5.51-3.25c.31.29.6.94.41,2.41a8.64,8.64,0,0,1-1.78,4.36,12.1,12.1,0,0,1-.81-4.21,2.75,2.75,0,0,1,1.63-2.78h.1l-.44-.21c-1.24-.59-2.46-1.24-3.74-1.73a13.19,13.19,0,0,0-1.6-.56c-.59-.14-.69-.2-.78-.82-.06-.39-.1-.56.25-.56H4.1a1.53,1.53,0,0,1,.69.21c.23,0,.63.39.87.49s.77.33,1.15.51c.7.34,1.4.69,2.11,1A3.68,3.68,0,0,1,8,42.53c-.34-2.77,3.24-4.72,3.24-4.72a23.39,23.39,0,0,1,.11,4.74,6.36,6.36,0,0,1-.92,2.7,26.62,26.62,0,0,1,4.4,2.29,7.1,7.1,0,0,1-.88-2.6c-.32-2.07.57-4.28,2.56-4.92a2.28,2.28,0,0,1,.49-.13,8.17,8.17,0,0,0,.28,2.57,6,6,0,0,1,.09,3.65A9.76,9.76,0,0,1,16,48.31c1.12.8,2.19,1.66,3.32,2.44a2,2,0,0,1,.31-.79c-.56-.39-1.12-.8-1.66-1.21l-.81-.6a10,10,0,0,0,1-1.72,6.29,6.29,0,0,0,0-4l0-.18A7.69,7.69,0,0,1,17.83,40a.79.79,0,0,0-.24-.67.82.82,0,0,0-.57-.24h-.1a3.67,3.67,0,0,0-.67.17c-2.48.8-3.44,3.53-3.09,5.82,0,.2.07.4.11.6-.57-.31-1.14-.59-1.68-.83a8.1,8.1,0,0,0,.59-2.18,23.61,23.61,0,0,0-.11-4.95.83.83,0,0,0-.44-.63.81.81,0,0,0-.37-.09h0a22.46,22.46,0,0,1,8.07-12.93c0-.68.08-1.42.18-2.22a36.25,36.25,0,0,1,2.43-8.77,1.89,1.89,0,0,1,.81-1.1,2,2,0,0,1,1.61-.15c.61.15,1,1,1.17,2.42s1.64,3.1,2.21,3.64l0,0a5.36,5.36,0,0,1,.41.51,30.87,30.87,0,0,1,2-4.45c.24-.51.76-1.32,1.52-1.21A1.89,1.89,0,0,1,33.06,14a33.77,33.77,0,0,0,2.78,5.47,3,3,0,0,1,.34.42l0,0h0a20.17,20.17,0,0,1,1-2.09c.05-.1.1-.19.14-.28s.06-.41.09-.6a7.06,7.06,0,0,1,.19-.79,2,2,0,0,1,.77-1.13,1.48,1.48,0,0,1,.79-.23,1.88,1.88,0,0,1,1.32.6l.18.16.08.22a13.93,13.93,0,0,0,2.45,3.75c.32.39.64.77.95,1.18l0,0a12.65,12.65,0,0,1,.86,1.58,4.07,4.07,0,0,1,.18.44,22.42,22.42,0,0,1,9.13,26.1,7.58,7.58,0,0,0-.8.28l-.52.26a7.36,7.36,0,0,0-2.73,2.89,4.51,4.51,0,0,0-.31.74,3.63,3.63,0,0,0-.18.76,3.55,3.55,0,0,0,.1,1.6c0,.09.07.19.11.29a17.88,17.88,0,0,0-1.8,1,11.19,11.19,0,0,0-.86-4.05c-.14-.41-.26-.69-.26-.69a.81.81,0,0,0-.6-.49l-.16,0a.86.86,0,0,0-.58.24,7.49,7.49,0,0,0-1.2,1.76,5.94,5.94,0,0,0,.34.71l0,.05a1.74,1.74,0,0,0,.1.19,6.65,6.65,0,0,1,1.31-2.13s.12.27.27.7a11.77,11.77,0,0,1,.78,5.39L48,58a15.21,15.21,0,0,1,3.27-1.89,2.29,2.29,0,0,1-.54-.88A2.82,2.82,0,0,1,50.68,54a4.8,4.8,0,0,1,.15-.63,5.32,5.32,0,0,1,.26-.61,6.41,6.41,0,0,1,2.41-2.55,3.17,3.17,0,0,1,.45-.23,6.12,6.12,0,0,1,.94-.32,4.13,4.13,0,0,0-1.53,2.57,12.51,12.51,0,0,0-.25,1.51,4.93,4.93,0,0,1-.5,1.88,16.89,16.89,0,0,1,4.08-.43c-.19-.56-.43-2,1-4.4a3.42,3.42,0,0,1,1.71-1.57s.38.48-.59,3.48a14.13,14.13,0,0,1-1.3,2.46h0c.54,0,1.08,0,1.63,0a13.35,13.35,0,0,1,2,.13C61.69,55.28,63.86,55.48,63.17,56.38ZM14.58,73.82l.33-.09c0,.34,0,.67,0,1a6,6,0,0,1-.42,2.71,5.85,5.85,0,0,0,.39-2.24A3.83,3.83,0,0,0,14.58,73.82Zm-.25-20A22.34,22.34,0,0,1,12,49a6.12,6.12,0,0,0,.06-.83,29.07,29.07,0,0,1,3.73,2.33l1.17.91.55.43A6.27,6.27,0,0,0,14.33,53.84Z" transform="translate(0)"/>
  <path class="a" d="M51.44,57.43c-.27.14-.55.28-.82.44A8.17,8.17,0,0,0,46.81,62l.18,0c.31,0,.77-.11,1.13-.11a.6.6,0,0,1,.51.17c.18.23-.13.46-.19.74-.09.46.25,1-.29,1.16-.36.1-1-.11-.65.46.11.17.5.34.67.46a7.83,7.83,0,0,0,.81.57c.32.19.65.36,1,.53A3.27,3.27,0,0,1,49,62.39a5,5,0,0,1,3.51-3,1.69,1.69,0,0,1-.62-.4A1.56,1.56,0,0,1,51.44,57.43Z" transform="translate(0)"/>
  <path class="a" d="M46.08,59.82c.2-.24.41-.47.63-.7a3.06,3.06,0,0,1-2-2.49,3.71,3.71,0,0,1-.83-.35,3.74,3.74,0,0,0,1.5,3c-.21.26-.4.54-.58.81s-.33.5-.5.71V60.8s0,0,0-.07.35-3.89-4-6a.73.73,0,0,0-.36-.08l-.14,0c0,.36,0,.74-.06,1.12-.07,1.67,0,3.31,0,4.15,0,.13,0,.23,0,.31a1,1,0,0,1-.1.69,5.14,5.14,0,0,0,.3.78c-.38,0-.8.1-1.28.18h-.08c0-.19,0-.5,0-.69v0a1.9,1.9,0,0,1-.41-.29l-.05,0a3.4,3.4,0,0,1-.32-.33c0,.2,0,.4,0,.6-.08.83-.15,1.59.69,1.59l.29,0c.62-.1,1.25-.19,1.87-.23a.39.39,0,0,0,.3-.4c-.28-.94-.23-.28-.7-1.92a8,8,0,0,1-.37-3c0-.82,0-1.66,0-1.66,3.85,1.89,3.51,5.19,3.51,5.19a2.77,2.77,0,0,1-1.27,1.83h.29a2.73,2.73,0,0,0,2-.72A17.26,17.26,0,0,0,46.08,59.82Z" transform="translate(0)"/>
  <path class="a" d="M20.75,51.67h0s0,0,0,0Z" transform="translate(0)"/>
  <path class="a" d="M35.55,55c0,.09,0,.18,0,.27s0,.26,0,.39c0,.66,0,1.32-.08,2,0,.3,0,.59,0,.89l0,1c0,.63,0,1.27-.08,1.9l0,0-.76-.58L34,60.34l-.12-.09a2.23,2.23,0,0,1-.41.72l0,0,1.31,1a3.25,3.25,0,0,1,.35.31c.09.07.41.54.68.54a.24.24,0,0,0,.19-.11c.15-.2.08-.66.1-1,.07-1.07.1-2.14.15-3.21,0-.38,0-.77,0-1.16C36.07,56.73,35.81,55.94,35.55,55Z" transform="translate(0)"/>
  <path class="a" d="M31.63,59.53c0-.3,0-.63,0-1l-.22-.17c-.59-.45-1.85-1.44-3-2.33l-.76-.6c-.13.25-.27.49-.41.72,1.28,1,2.94,2.32,3.65,2.86l.67.51Z" transform="translate(0)"/>
  <path class="a" d="M22.21,39c0,.76,0,1.57-.08,2.45-.46,7.07-1.54,8.84-1.58,8.91l-.19.35a3,3,0,0,0,.55-.47l0,0a13.73,13.73,0,0,0,3-4.87c.1-.24.24-.3.34-.3h.08c.3.07.27.41.25.61s0,.32,0,.44,0,.26,0,.52c.06,6.2-1.11,10.76-3.48,13.55a3.36,3.36,0,0,0-.66,1,2.45,2.45,0,0,0,.93-.34c3.95-2.1,6.89-7.23,8.71-15.26-.92-3.06-1.57-5.9-1.65-6.23a12.39,12.39,0,0,1-1-7.92,9.57,9.57,0,0,1-.71-4.07A24.64,24.64,0,0,1,28,20.07a10.5,10.5,0,0,0-1-1.47c-.08-.07-2.28-2.19-2.51-4.25-.13-1.21-.38-1.5-.43-1.55a1,1,0,0,0-.8,0,.88.88,0,0,0-.36.52l0,.06A35.7,35.7,0,0,0,20.52,22a24.44,24.44,0,0,0,.14,7.13c0,.23.07.43.09.62a3.31,3.31,0,0,0-.61.37,5.63,5.63,0,0,0-1.65,4.51,4.69,4.69,0,0,0,.2,1.13,4.11,4.11,0,0,0,.53,1.12A5.31,5.31,0,0,0,22.21,39ZM19.1,34.56a5.05,5.05,0,0,1,1.42-4,3.24,3.24,0,0,1,2-.6c.39,0,.79,0,1.18.07l.92.06a2.45,2.45,0,0,1,.82.44c.88.62,1.34,1.77,1.4,3.51a5.58,5.58,0,0,1-1.21,4.17,1.34,1.34,0,0,1-.81.46h-.5a5.26,5.26,0,0,1-4.63-2.18,3.69,3.69,0,0,1-.46-1A4.45,4.45,0,0,1,19.1,34.56Z" transform="translate(0)"/>
  <path class="a" d="M21.8,34.33l.36.09.36,0h.09c.85,0,2.14.1,2.67-.43a1,1,0,0,0,.25-.77,5.74,5.74,0,0,0-.08-.78c-.05-.27-.11-.5-.15-.65a1.34,1.34,0,0,0-.6-.73.63.63,0,0,0-.49-.08h-.05c-.2,0-.41,0-.63,0a8,8,0,0,1-1.76-.21,1,1,0,0,0-.56.16l-.16.17a4,4,0,0,0-.28.3,1.77,1.77,0,0,0-.17.24,1.64,1.64,0,0,0-.09,1.52A1.88,1.88,0,0,0,21.8,34.33Z" transform="translate(0)"/>
  <path class="a" d="M29.06,39.11l0,.06s.9,4,2.14,7.76c.08.35,1.79,8,1.42,12.71a1.69,1.69,0,0,0,0,.7,2.29,2.29,0,0,0,.38-.8v0s1.65-3.56,2.48-11.56c.08-.74.15-1.51.21-2.29a.29.29,0,0,1,.33-.28.3.3,0,0,1,.28.33c-.06.78-.13,1.56-.21,2.3-.12,1.21-.27,2.3-.42,3.31h0c1.2,5.94,2.49,8,3.13,8.63,0-.85-.09-2.51,0-4.19.05-1.39.17-2.83.31-4a6.33,6.33,0,0,1,.41-1.93,3.82,3.82,0,0,1-.28-1.2.32.32,0,0,1,.3-.32.3.3,0,0,1,.31.3,3.24,3.24,0,0,0,.32,1.18l0,.07c1.76,3.7,3.31,5,4.2,5.52a7.36,7.36,0,0,1-.37-.65c-.07-.12-2.12-3.53-1.7-9.93.15-2.27.27-4.22.36-6a1.63,1.63,0,0,1-.45.06,3.69,3.69,0,0,1-.93-.15l-.3-.07-.54-.08A2.85,2.85,0,0,1,39,38.06a2.61,2.61,0,0,1-.69-1.35c0,.11-.06.23-.09.37-.1.45-.23,1-.38,1.68a.3.3,0,0,1-.3.24h-.06a.32.32,0,0,1-.24-.37c.15-.68.28-1.24.38-1.69s.22-.94.27-1.24c.28-1.68.47-3.68.5-3.9a26.27,26.27,0,0,0-.8-5.11l0-.08a.31.31,0,0,1,.6-.14l0,.08A27.31,27.31,0,0,1,39,31.8v.06a8.47,8.47,0,0,0,.86.25l.12,0a3.1,3.1,0,0,0,.76.13.54.54,0,0,0,.35-.09c.21-.17.13-.48,0-.8s-.19-.73.12-.93l.07,0,0,.06a1.75,1.75,0,0,0,.94.57l.4.16a1.81,1.81,0,0,1,.43.27l.06-1.13a11.8,11.8,0,0,0-2.36-8.07,12.72,12.72,0,0,1-1.41-5.65c0-.14-.08-.36-.15-.39h0a.41.41,0,0,0-.19.08,1.85,1.85,0,0,0-.23.53,7.42,7.42,0,0,1-.65,1.55,18.86,18.86,0,0,0-1.53,3.38A11.94,11.94,0,0,1,37,23a.32.32,0,0,1-.24.37.31.31,0,0,1-.36-.24A8.21,8.21,0,0,0,36,21.86v0a4.32,4.32,0,0,0-.9-1.62c-.91-1-2.9-5.59-3-5.79s-.3-.61-.55-.65a2,2,0,0,0-.46.66c-.05.09-3.68,6.41-3.68,12.94a9,9,0,0,0,.71,3.9l0,.11,0,.1A11.82,11.82,0,0,0,29.06,39.11Zm6.47.14a6.08,6.08,0,0,1-3.05,1,3.52,3.52,0,0,1-2.5-1c-2.49-2.4-1.37-5.72-1-6.81l0-.12a1,1,0,0,1,1-.67,1.78,1.78,0,0,1,.61.1,1.86,1.86,0,0,0,1.09.4.79.79,0,0,0,.27,0,5.15,5.15,0,0,1,2.17-.67,1,1,0,0,1,.72.21c1.16.37,1.7,4,1.55,5.79A2.37,2.37,0,0,1,35.53,39.25Zm.68,5.43h-.05a.31.31,0,0,1-.25-.35L36,44a.31.31,0,0,1,.36-.25.3.3,0,0,1,.25.35l-.06.36A.32.32,0,0,1,36.21,44.68Zm.53-4.35a.3.3,0,0,1,.6.1c-.14.86-.37,1.81-.59,2.7a.32.32,0,0,1-.3.24h-.07a.31.31,0,0,1-.23-.38C36.37,42.1,36.6,41.17,36.74,40.33Z" transform="translate(0)"/>
  <path class="a" d="M45.28,25.48l-.11-.14-.49-.58c0-.14,0-.27,0-.4a5.78,5.78,0,0,0-.44-1.57,10.93,10.93,0,0,0-.79-1.43l-.92-1.14A15.73,15.73,0,0,1,40,16.52v.06c0,.05.07,3.4,1.32,5.34a12.68,12.68,0,0,1,2.43,6.53,1.79,1.79,0,0,0,0,.23c0,.53,0,1.08,0,1.68l-.09,1.73,0,0a5.8,5.8,0,0,1,.6,4.66,3.2,3.2,0,0,1-1,1.69c-.08,1.57-.18,3.27-.3,5.22a1.34,1.34,0,0,0,.07.18c.09.24.17.46.27.69s.15.37.23.56l.28.57a13.78,13.78,0,0,0,3.48,3.95l.14.09a3.1,3.1,0,0,0,.68.43h0a1.34,1.34,0,0,0-.2-.45c-.06-.12-.13-.23-.17-.32-.27-.6-.53-1.22-.78-1.89l-.23-.66,0-.17a19.36,19.36,0,0,1-.51-2l-.18-1,.7.72c.52.53,1.07,1,1.56,1a.2.2,0,0,0,.19-.1c.09-.22-.22-.78-.48-1.07l0,0-.57-.85a14,14,0,0,1-1.68-3,8.37,8.37,0,0,1-.3-.93,7.74,7.74,0,0,1-.27-3c0-.33.08-.65.11-1a2.88,2.88,0,0,0,2.18-1.41c2.13-3.61.2-6.36-.73-7.11A13.86,13.86,0,0,1,45.28,25.48Zm1.21,2.09a4.14,4.14,0,0,1,.93,1.28,3.34,3.34,0,0,1,.46,1.78A5.57,5.57,0,0,1,47,33.82a2.24,2.24,0,0,1-1.65,1.11,1.47,1.47,0,0,1-.42-.06l-.08,0,0-.08a6.56,6.56,0,0,0,.25-3c-.08-.35-.19-.72-.29-1.07A7.63,7.63,0,0,1,44.38,28l0-.31h0c.21-1.38.26-1.81.26-1.81l0-.18.11.14A15.83,15.83,0,0,0,46,27.1a2.88,2.88,0,0,1,.36.31Z" transform="translate(0)"/>
  <path class="a" d="M45.91,27.85a1.69,1.69,0,0,0-.66-.43.19.19,0,0,0-.1,0s0,0-.08.16a.58.58,0,0,1,.23,0c.31,0,.51.37.57.55a6.28,6.28,0,0,1,.22,1.67c0,.13,0,.26,0,.38s0,.25,0,.38,0,.45,0,.65h0l.24,0h0a1.17,1.17,0,0,0,.78-.21.14.14,0,0,1,0-.09C47.48,29.91,46.72,28.63,45.91,27.85Z" transform="translate(0)"/>
  <path class="a" d="M34.41,35.86a3.64,3.64,0,0,0,.26-3.14.61.61,0,0,0-.38-.34,3.16,3.16,0,0,0-1.94.42c-.18.14-.71.36-2-.24a.7.7,0,0,0-.58,0c-.18.39-.86,2.1.06,2.83a7.32,7.32,0,0,0,3.41,1.24A1.56,1.56,0,0,0,34.41,35.86Z" transform="translate(0)"/>
  <path class="a" d="M42.32,32a.86.86,0,0,1,0,.36,1.13,1.13,0,0,1-.66.76,2.26,2.26,0,0,1-1,.21,1.15,1.15,0,0,1-.66-.15l0,0a4.1,4.1,0,0,0,.38,1.92,1.22,1.22,0,0,0,1.2.76,3.61,3.61,0,0,0,1.83-.32c.7-.42.44-1.43.35-1.73A3.41,3.41,0,0,0,42.32,32Z" transform="translate(0)"/>
  <rect class="b" width="204.82" height="79.37"/>
</svg>
