<svg version="1.1" id="Layer_1" xmlns="http://www.w3.org/2000/svg" x="0" y="0" viewBox="0 0 401.4 37" preserveAspectRatio="xMinYMid" xml:space="preserve"><style>.st0{fill:#fff}</style><path class="st0" d="M4.2 16.8v8.5H1.5V12.7h2.8l5.9 8.2v-8.2h2.7v12.7h-2.7l-6-8.6zm16 7.6c-.6.7-1.7 1.2-2.9 1.2-1.5 0-3.2-1-3.2-3 0-2.1 1.7-2.9 3.2-2.9 1.2 0 2.3.4 2.9 1.1v-1.3c0-.9-.8-1.5-2-1.5-1 0-1.9.4-2.7 1.1l-.9-1.6c1.1-1 2.6-1.4 4-1.4 2.1 0 4 .8 4 3.5v5.9h-2.4v-1.1zm0-2.4c-.4-.5-1.2-.8-1.9-.8-.9 0-1.7.5-1.7 1.4s.8 1.3 1.7 1.3c.8 0 1.5-.3 1.9-.8V22zm4.7 1.1v-4.8h-1.5v-2.1h1.5v-2.5h2.4v2.5h1.9v2.1h-1.9v4.1c0 .6.3 1 .8 1 .4 0 .7-.1.8-.3l.5 1.8c-.4.3-1 .6-2 .6-1.5.1-2.5-.8-2.5-2.4zm5.2-9.7c0-.8.7-1.4 1.4-1.4.8 0 1.4.6 1.4 1.4s-.6 1.4-1.4 1.4c-.8 0-1.4-.6-1.4-1.4zm.2 2.8h2.4v9.2h-2.4v-9.2zm3.7 4.6c0-2.6 1.8-4.8 4.8-4.8s4.9 2.2 4.9 4.8-1.8 4.8-4.9 4.8c-3 0-4.8-2.2-4.8-4.8zm7.2 0c0-1.4-.9-2.7-2.4-2.7s-2.3 1.2-2.3 2.7c0 1.4.8 2.7 2.3 2.7s2.4-1.3 2.4-2.7zm9.9-1c0-1.3-.7-1.7-1.7-1.7-.9 0-1.7.5-2.1 1.1v6.2h-2.4v-9.2h2.4v1.2c.6-.7 1.7-1.4 3.2-1.4 2 0 3 1.1 3 2.9v6.5h-2.4v-5.6zm9.7 4.6c-.6.7-1.7 1.2-2.9 1.2-1.5 0-3.2-1-3.2-3 0-2.1 1.7-2.9 3.2-2.9 1.2 0 2.3.4 2.9 1.1v-1.3c0-.9-.8-1.5-2-1.5-1 0-1.9.4-2.7 1.1l-.9-1.7c1.1-1 2.6-1.4 4-1.4 2.1 0 4 .8 4 3.5v5.9h-2.4v-1zm0-2.4c-.4-.5-1.2-.8-1.9-.8-.9 0-1.7.5-1.7 1.4s.8 1.3 1.7 1.3c.8 0 1.5-.3 1.9-.8V22zm4.3-9.3h2.4v12.7h-2.4V12.7zm8.6 0h5.9c2.8 0 4.3 1.9 4.3 4.1s-1.5 4-4.3 4h-3.2v4.5h-2.7V12.7zm5.5 2.3h-2.9v3.5h2.9c1.1 0 1.9-.7 1.9-1.7 0-1.1-.8-1.8-1.9-1.8zM90 24.4c-.6.7-1.7 1.2-2.9 1.2-1.5 0-3.2-1-3.2-3 0-2.1 1.7-2.9 3.2-2.9 1.2 0 2.3.4 2.9 1.1v-1.3c0-.9-.8-1.5-2-1.5-1 0-1.9.4-2.7 1.1l-.9-1.6c1.1-1 2.6-1.4 4-1.4 2.1 0 4 .8 4 3.5v5.9H90v-1.1zm0-2.4c-.4-.5-1.2-.8-1.9-.8-.9 0-1.7.5-1.7 1.4s.8 1.3 1.7 1.3c.8 0 1.5-.3 1.9-.8V22zm4.3-5.8h2.4v1.3c.6-.8 1.8-1.5 2.9-1.5v2.4c-.2 0-.4-.1-.7-.1-.8 0-1.9.5-2.3 1v6.1h-2.4v-9.2h.1zm9.7 5.6l-1.1 1.2v2.4h-2.4V12.7h2.4v7.6l3.5-4.1h3l-3.6 4.2 3.7 5h-3l-2.5-3.6z"/><path class="st0" d="M110.2 22.5c.7.6 2 1.3 3.2 1.3 1 0 1.5-.4 1.5-.9 0-.6-.8-.9-1.8-1.1-1.6-.3-3.6-.7-3.6-2.9 0-1.5 1.3-2.9 3.8-2.9 1.6 0 2.8.5 3.7 1.3l-1 1.7c-.6-.6-1.6-1.1-2.7-1.1-.9 0-1.4.3-1.4.9s.7.8 1.7 1c1.6.3 3.7.7 3.7 3 0 1.7-1.4 2.9-4 2.9-1.6 0-3.1-.5-4.1-1.4l1-1.8zm18.1 1.9c-.6.7-1.7 1.2-2.9 1.2-1.5 0-3.2-1-3.2-3 0-2.1 1.7-2.9 3.2-2.9 1.2 0 2.3.4 2.9 1.1v-1.3c0-.9-.8-1.5-2-1.5-1 0-1.9.4-2.7 1.1l-.9-1.6c1.1-1 2.6-1.4 4-1.4 2.1 0 4 .8 4 3.5v5.9h-2.4v-1.1zm0-2.4c-.4-.5-1.2-.8-1.9-.8-1 0-1.7.5-1.7 1.4s.8 1.3 1.7 1.3c.8 0 1.5-.3 1.9-.8V22zm10.4-2.2c0-1.3-.7-1.7-1.7-1.7s-1.7.5-2.1 1.1v6.2h-2.4v-9.2h2.4v1.2c.6-.7 1.7-1.4 3.2-1.4 2 0 3 1.1 3 2.9v6.5h-2.4v-5.6zm10.6 4.4c-.7.9-1.7 1.4-2.8 1.4-2.3 0-4.1-1.7-4.1-4.8 0-3 1.7-4.8 4.1-4.8 1.1 0 2.1.5 2.8 1.4v-4.7h2.4v12.7h-2.4v-1.2zm0-5.1c-.4-.6-1.3-1-2.1-1-1.4 0-2.3 1.1-2.3 2.7s1 2.7 2.3 2.7c.8 0 1.7-.4 2.1-1v-3.4zm16-2.4l-2.2 8.7h-2.9l-3.6-12.7h3l2.2 9.2 2.4-9.2h2.1l2.4 9.2 2.2-9.2h3l-3.6 12.7h-2.9l-2.1-8.7zm9.1-3.3c0-.8.7-1.4 1.4-1.4.8 0 1.4.6 1.4 1.4s-.6 1.4-1.4 1.4c-.7 0-1.4-.6-1.4-1.4zm.3 2.8h2.4v9.2h-2.4v-9.2zm4.2-3.5h2.4v12.7h-2.4V12.7zm10.6 11.5c-.7.9-1.7 1.4-2.8 1.4-2.3 0-4.1-1.7-4.1-4.8 0-3 1.7-4.8 4.1-4.8 1.1 0 2.1.5 2.8 1.4v-4.7h2.4v12.7h-2.4v-1.2zm0-5.1c-.4-.6-1.3-1-2.1-1-1.4 0-2.3 1.1-2.3 2.7s1 2.7 2.3 2.7c.8 0 1.7-.4 2.1-1v-3.4zm4.2-6.4h2.4v12.7h-2.4V12.7zm4 .7c0-.8.7-1.4 1.4-1.4.8 0 1.4.6 1.4 1.4s-.6 1.4-1.4 1.4c-.7 0-1.4-.6-1.4-1.4zm.3 2.8h2.4v9.2H198v-9.2zm4.7 2.1h-1.5v-2.1h1.5v-.5c0-2 1.3-3.2 3.1-3.2.7 0 1.3.2 1.7.4l-.5 1.7c-.2-.1-.5-.2-.8-.2-.7 0-1.1.5-1.1 1.3v.5h1.9v2.1h-1.8v7.1h-2.4v-7.1h-.1zM212 16c2.7 0 4.6 2.1 4.6 5.1v.5h-6.8c.2 1.2 1.1 2.1 2.6 2.1.9 0 1.9-.3 2.5-.9l1.1 1.6c-.9.8-2.4 1.3-3.8 1.3-2.8 0-4.9-1.9-4.9-4.8-.1-2.8 1.9-4.9 4.7-4.9zm-2.3 3.9h4.5c-.1-.9-.7-2-2.3-2-1.4 0-2 1.1-2.2 2zm13 1.6c.9.9 2.3 1.7 4 1.7 1.5 0 2.2-.7 2.2-1.4 0-.9-1.1-1.3-2.6-1.6-2.1-.5-4.7-1-4.7-3.9 0-2.1 1.8-3.8 4.8-3.8 2 0 3.7.6 4.9 1.8l-1.5 2c-1-.9-2.4-1.4-3.6-1.4s-1.9.5-1.9 1.3c0 .9 1.1 1.1 2.5 1.5 2.1.5 4.7 1.1 4.7 3.9 0 2.3-1.7 4.1-5.1 4.1-2.4 0-4.2-.8-5.4-2l1.7-2.2zm14.4-5.5c2.7 0 4.6 2.1 4.6 5.1v.5h-6.8c.2 1.2 1.1 2.1 2.6 2.1.9 0 1.9-.3 2.5-.9l1.1 1.6c-.9.8-2.4 1.3-3.8 1.3-2.8 0-4.9-1.9-4.9-4.8-.1-2.8 1.9-4.9 4.7-4.9zm-2.3 3.9h4.5c-.1-.9-.7-2-2.3-2-1.4 0-2.1 1.1-2.2 2zm8-3.7h2.4v1.3c.6-.8 1.8-1.5 2.9-1.5v2.4c-.2 0-.4-.1-.7-.1-.8 0-1.9.5-2.3 1v6.1h-2.4v-9.2h.1z"/><path class="st0" d="M247.8 16.2h2.6l2.4 6.4 2.4-6.4h2.6l-3.7 9.2h-2.6l-3.7-9.2zm10.2-2.8c0-.8.7-1.4 1.4-1.4.8 0 1.4.6 1.4 1.4s-.6 1.4-1.4 1.4c-.7 0-1.4-.6-1.4-1.4zm.3 2.8h2.4v9.2h-2.4v-9.2zm8.5-.2c1.9 0 3 .8 3.6 1.7l-1.6 1.5c-.4-.6-1.1-1-1.9-1-1.5 0-2.5 1.1-2.5 2.7s1 2.7 2.5 2.7c.8 0 1.5-.4 1.9-1l1.6 1.5c-.6.9-1.7 1.7-3.6 1.7-2.8 0-4.9-2-4.9-4.8 0-3.1 2.1-5 4.9-5zm8.8 0c2.7 0 4.6 2.1 4.6 5.1v.5h-6.8c.2 1.2 1.1 2.1 2.6 2.1.9 0 1.9-.3 2.5-.9l1.1 1.6c-.9.8-2.4 1.3-3.8 1.3-2.8 0-4.9-1.9-4.9-4.8-.1-2.8 1.9-4.9 4.7-4.9zm-2.3 3.9h4.5c-.1-.9-.7-2-2.3-2-1.4 0-2.1 1.1-2.2 2z"/><path d="M286.1 22.4c.8.9 2.2 1.8 4 1.8 2.3 0 3-1.2 3-2.2 0-1.5-1.5-1.9-3.2-2.4-2-.5-4.3-1.1-4.3-3.6 0-2.1 1.9-3.5 4.4-3.5 1.9 0 3.4.6 4.5 1.8l-1 1.2c-.9-1-2.3-1.5-3.7-1.5-1.5 0-2.6.8-2.6 2 0 1.3 1.5 1.7 3.1 2.1 2.1.6 4.4 1.2 4.4 3.9 0 1.8-1.3 3.7-4.7 3.7-2.2 0-3.8-.8-4.9-2l1-1.3zm9.8-1.6c0-2.7 1.7-4.8 4.5-4.8s4.5 2.1 4.5 4.8-1.7 4.8-4.5 4.8c-2.7 0-4.5-2.2-4.5-4.8zm7.6 0c0-1.9-1.1-3.5-3-3.5-2 0-3.1 1.7-3.1 3.5 0 1.9 1.1 3.6 3.1 3.6 1.9-.1 3-1.8 3-3.6zm9.4 3.3c-.7.8-1.9 1.5-3.3 1.5-1.9 0-2.9-.9-2.9-2.9v-6.5h1.4v6c0 1.6.8 2.1 2.1 2.1 1.1 0 2.2-.6 2.7-1.4v-6.7h1.4v9.2h-1.4v-1.3zm4-.7v-6h-1.5v-1.3h1.5v-2.5h1.4v2.5h1.9v1.3h-1.9v5.7c0 .7.3 1.2.9 1.2.4 0 .8-.2 1-.4l.4 1.1c-.4.3-.9.6-1.7.6-1.3 0-2-.8-2-2.2zm11-4.1c0-1.6-.8-2.1-2.1-2.1-1.1 0-2.2.7-2.7 1.4v6.7h-1.4V12.7h1.4v4.8c.6-.8 1.9-1.6 3.3-1.6 1.9 0 2.9.9 2.9 2.9v6.5h-1.4v-6zm16.1 3.2h-6.4l-1.1 2.8h-1.7l5.1-12.7h2l5.1 12.7h-1.7l-1.3-2.8zm-6-1.4h5.5l-2.7-7-2.8 7zm15.8 3c-.7.8-1.9 1.5-3.3 1.5-1.9 0-2.9-.9-2.9-2.9v-6.5h1.4v6c0 1.6.8 2.1 2.1 2.1 1.1 0 2.2-.6 2.7-1.4v-6.7h1.4v9.2h-1.4v-1.3zm3.7-1c.6.7 1.8 1.3 3 1.3 1.4 0 2.2-.6 2.2-1.5 0-1-1.1-1.3-2.4-1.6-1.6-.4-3.3-.8-3.3-2.7 0-1.4 1.2-2.6 3.4-2.6 1.6 0 2.7.6 3.4 1.3l-.7 1c-.6-.7-1.6-1.2-2.7-1.2-1.3 0-2 .6-2 1.4 0 .9 1 1.2 2.2 1.5 1.6.4 3.4.8 3.4 2.8 0 1.5-1.2 2.8-3.6 2.8-1.5 0-2.8-.5-3.7-1.4l.8-1.1zm8.6.3v-6h-1.5v-1.3h1.5v-2.5h1.4v2.5h1.9v1.3h-1.9v5.7c0 .7.3 1.2.9 1.2.4 0 .8-.2 1-.4l.4 1.1c-.4.3-.9.6-1.7.6-1.3 0-2-.8-2-2.2zm4.7-7.2h1.4v1.5c.7-1 1.8-1.7 3.1-1.7v1.5c-.2 0-.3-.1-.6-.1-.9 0-2.1.7-2.5 1.5v6.5h-1.4v-9.2zm11.4 8.1c-.8.8-1.8 1.3-3 1.3-1.6 0-3.2-1-3.2-3 0-2.1 1.7-3 3.2-3 1.3 0 2.3.4 3 1.3v-1.7c0-1.2-1-1.9-2.3-1.9-1.1 0-2 .4-2.8 1.3l-.7-1c1-1 2.2-1.5 3.7-1.5 1.9 0 3.6.9 3.6 3.1v6.3h-1.5v-1.2zm0-2.6c-.6-.8-1.5-1.1-2.5-1.1-1.3 0-2.3.8-2.3 2s.9 2 2.3 2c1 0 2-.4 2.5-1.1v-1.8zm3.7-9h1.4v12.7h-1.4V12.7zm3.5 1c0-.5.4-1 1-1 .5 0 1 .4 1 1 0 .5-.4 1-1 1-.6-.1-1-.5-1-1zm.2 2.5h1.4v9.2h-1.4v-9.2zm9.5 8.1c-.8.8-1.8 1.3-3 1.3-1.6 0-3.2-1-3.2-3 0-2.1 1.7-3 3.2-3 1.3 0 2.3.4 3 1.3v-1.7c0-1.2-1-1.9-2.3-1.9-1.1 0-2 .4-2.8 1.3l-.7-1c1-1 2.2-1.5 3.7-1.5 1.9 0 3.6.9 3.6 3.1v6.3h-1.4v-1.2h-.1zm0-2.6c-.6-.8-1.5-1.1-2.5-1.1-1.3 0-2.3.8-2.3 2s.9 2 2.3 2c1 0 2-.4 2.5-1.1v-1.8z" opacity=".6" fill="#fff"/></svg>