<?xml version="1.0" encoding="iso-8859-1"?>
<!-- Generator: Adobe Illustrator 18.0.0, SVG Export Plug-In . SVG Version: 6.00 Build 0)  -->
<!DOCTYPE svg PUBLIC "-//W3C//DTD SVG 1.1//EN" "http://www.w3.org/Graphics/SVG/1.1/DTD/svg11.dtd">
<svg version="1.1" id="Layer_1" xmlns="http://www.w3.org/2000/svg" xmlns:xlink="http://www.w3.org/1999/xlink" x="0px" y="0px"
	 viewBox="0 0 266 37" style="enable-background:new 0 0 266 37;" xml:space="preserve">
<g>
	<g>
		<path style="fill:#FFFFFF;" d="M18.657,30.913c-0.012-0.017-0.023-0.033-0.034-0.05c-0.021,0.024-0.043,0.047-0.064,0.07
			C18.591,30.927,18.625,30.919,18.657,30.913"/>
		<path style="fill:#FFFFFF;" d="M19.89,31.47c-0.003,0.08-0.048,0.153-0.119,0.194c-0.016,0.01-0.033,0.016-0.051,0.022
			c0.025-0.006,0.051-0.013,0.076-0.019c0.416,0.494,1.304,0.994,2.371,1.458c-0.003,0.001-0.007,0.002-0.01,0.002
			c-0.35,0.116-0.683,0.707-0.34,1.422c0.344,0.715,1.541,1.473,1.705,1.42c0,0,0.406-1.285,0.062-2
			c-0.07-0.147-0.162-0.271-0.264-0.378c0.548,0.206,1.113,0.401,1.666,0.581c-0.338,0.139-0.641,0.714-0.307,1.408
			c0.343,0.715,1.54,1.473,1.704,1.42c0,0,0.406-1.285,0.062-2c-0.098-0.206-0.238-0.366-0.391-0.493
			c1.651,0.498,2.967,0.816,2.967,0.816l-0.212-0.638c-0.439-0.101-0.854-0.205-1.25-0.308c0.119-0.037,0.241-0.09,0.364-0.163
			c0.71-0.42,1.342-1.633,1.261-1.775c0,0-0.315-0.042-0.724-0.042c-0.459,0-1.035,0.052-1.411,0.274
			c-0.438,0.26-0.646,0.658-0.711,0.98v0.384c-0.698-0.21-1.317-0.421-1.865-0.628c0.084-0.034,0.171-0.075,0.257-0.126
			c0.71-0.421,1.341-1.634,1.26-1.776c0,0-0.315-0.042-0.724-0.042c-0.458,0-1.034,0.053-1.41,0.275
			c-0.496,0.293-0.697,0.766-0.729,1.101c-1.184-0.556-1.88-1.061-2.281-1.43c2.199-0.566,4.391-1.245,6.468-2.063l0.492-1.275
			c-0.003,0.001-1.632,0.905-5.481,1.96c0.204-0.197,0.377-0.467,0.421-0.802c0.101-0.755-0.739-1.815-0.74-1.817h-0.002
			c-0.185,0.002-1.124,1.038-1.225,1.79c-0.074,0.551,0.19,0.936,0.489,1.107c-0.456,0.117-0.94,0.233-1.451,0.351
			C19.867,30.919,19.903,31.188,19.89,31.47"/>
		<path style="fill:#FFFFFF;" d="M19.539,31.677c-0.383-0.173-0.663-0.443-0.882-0.764c-0.032,0.007-0.066,0.014-0.098,0.02
			c0.021-0.022,0.043-0.046,0.063-0.07c-0.279-0.426-0.456-0.931-0.621-1.402c-0.091-0.262-0.179-0.51-0.276-0.721
			c-0.089-0.194-0.166-0.393-0.238-0.593c-0.432,0.458-0.928,1.152-1.027,1.736c-0.105,0.628,0.14,1.107,0.462,1.376
			c-1.28,0.242-2.688,0.476-4.228,0.695c0.336-0.265,0.64-0.66,0.727-1.179c0.178-1.053-0.958-2.611-0.958-2.611h-0.005
			c-0.269,0-1.626,1.379-1.802,2.425c-0.124,0.736,0.197,1.284,0.588,1.56c-0.875,0.113-1.789,0.219-2.745,0.319
			c-0.118-0.002-0.258,0.002-0.431,0.014c-0.237,0.015-0.461,0.008-0.673-0.015c-0.413-0.046-0.775-0.158-1.086-0.297
			c-0.057-0.027-0.113-0.053-0.167-0.081c-0.315-0.222-0.647-0.466-0.984-0.719c-0.114-0.116-0.172-0.192-0.172-0.192l0.015,0.074
			c-0.048-0.037-0.097-0.074-0.147-0.112c0.067,0.023,0.133,0.035,0.194,0.036c0.292,0.005,1.043-0.426,1.144-1.18
			c0.101-0.755-0.74-1.817-0.74-1.817H5.451c-0.184,0-1.124,1.037-1.226,1.79c-0.046,0.348,0.042,0.629,0.19,0.834
			c-1.273-0.982-2.495-1.968-3.043-2.308l-0.58,0.784c0.377,0.222,0.762,0.478,1.141,0.75c-0.142,0.003-0.287,0.025-0.434,0.072
			c-0.773,0.248-1.426,1.421-1.426,1.421c0.078,0.154,1.495,0.482,2.267,0.234c0.496-0.16,0.754-0.482,0.831-0.78
			c0.892,0.725,1.648,1.422,2.044,1.795c-1.328,0.106-2.723,0.2-4.19,0.277l-0.758,1.007h2.754c1.546-0.091,3.635-0.251,6.037-0.529
			c-0.03,0.016-0.06,0.033-0.085,0.053c-0.258,0.205-0.494,1.101,0.149,1.806c0.533,0.586,1.837,0.885,2.267,0.971h0.16
			c0.123-0.24-0.075-1.678-0.689-2.351c-0.31-0.341-0.68-0.513-1.019-0.573c0.888-0.11,1.814-0.236,2.768-0.38
			c-0.265,0.337-0.462,1.187,0.115,1.925c0.559,0.714,2.054,1.156,2.486,1.272h0.144c0.158-0.268,0.063-1.884-0.561-2.683
			c-0.295-0.378-0.661-0.596-1.011-0.698c0.67-0.111,1.353-0.23,2.043-0.359c-0.025,0.018-0.047,0.038-0.068,0.058
			c-0.273,0.276-0.421,1.359,0.433,2.102c0.552,0.479,1.628,0.692,2.318,0.783h0.669c0.076-0.365-0.36-1.951-1.151-2.638
			c-0.355-0.308-0.743-0.465-1.103-0.517c0.916-0.185,1.843-0.385,2.77-0.607c-0.015,0.003-0.031,0.006-0.047,0.006
			C19.608,31.699,19.573,31.692,19.539,31.677"/>
		<path style="fill:#FFFFFF;" d="M8.114,2.505c-0.805,2-1.252,3.73-1.367,5.29c-0.093,1.278,0.105,2.42,0.398,3.557
			c0.049-0.019,0.08-0.029,0.088-0.031c0.381-0.103,0.95-0.224,1.544-0.224c0.799,0,1.427,0.213,1.867,0.632
			c1.033,0.984,0.803,3.733,0.579,4.329c-0.219,0.582-0.793,1.2-1.428,1.2c-0.035,0-0.07-0.002-0.105-0.006
			c-0.252-0.029-0.427-0.123-0.568-0.197c-0.177-0.094-0.248-0.124-0.398-0.069c-0.104,0.038-0.203,0.062-0.3,0.072
			c0.079,1.128,0.025,2.23-0.167,3.224c-0.05,0.259-0.489,1.746-0.851,2.918c-0.291,0.941-0.487,1.557-0.629,1.961
			c0.153-0.126,0.355-0.305,0.619-0.56c0.034-0.033,0.062-0.059,0.079-0.075c0.435-0.403,0.807-0.837,1.116-1.293
			c0.344-0.439,0.908-1.188,1.473-2.051c-0.024,0.277-0.061,0.557-0.098,0.833c-0.038,0.278-0.074,0.542-0.094,0.795
			c-0.088,1.094-0.234,2.166-0.433,3.187c-0.379,1.946-0.998,4.331-2.451,6.136c0.584-0.259,1.197-0.665,1.853-1.228
			c2.134-1.829,3.708-4.51,4.953-8.44c0.042-0.132,0.081-0.263,0.12-0.396c-0.193-0.725-0.415-1.451-0.665-2.176
			c-1.179-3.422-1.632-6.849-1.427-10.786c0.08-1.531,0.327-2.908,0.735-4.116c-0.045-0.095-0.089-0.19-0.135-0.284
			c-0.889-0.953-1.651-2.001-2.266-3.118c-0.078-0.143-0.132-0.376-0.194-0.645C9.902,0.676,9.759,0.056,9.619,0
			C9.62,0.001,9.564,0.009,9.451,0.123C8.813,0.766,8.442,1.69,8.114,2.505"/>
		<path style="fill:#FFFFFF;" d="M20.309,10.757c0.007,0.047,0.015,0.099,0.017,0.151l0.001,0.012
			c0.009,0.093,0.015,0.186,0.021,0.278c0.044,0.452,0.059,0.896,0.047,1.331c0.236-0.122,0.531-0.2,0.911-0.219
			c0.754-0.037,1.331,0.023,1.786,0.218c0.002-0.258,0.014-0.513,0.026-0.766c0.025-0.543,0.052-1.104-0.024-1.656
			C22.94,9,22.402,8.092,21.816,7.183c-0.657-1.021-1.022-2.004-1.149-3.094c-0.022-0.189-0.017-0.374-0.011-0.553
			c0.005-0.147,0.009-0.288-0.001-0.424c-0.046,0.077-0.088,0.156-0.11,0.195c-0.023,0.041-0.041,0.076-0.055,0.099
			c-0.17,0.285-0.35,0.558-0.524,0.821c-0.457,0.693-0.891,1.349-1.095,2.159c0.369,0.766,0.668,1.491,0.902,2.192
			c0.252,0.701,0.443,1.424,0.536,2.173C20.308,10.754,20.309,10.755,20.309,10.757"/>
		<path style="fill:#FFFFFF;" d="M22.24,17.881c-0.072,0.006-0.145,0.008-0.215,0.008c-0.866,0-1.667-0.361-2.196-0.99
			c-0.071-0.084-0.134-0.174-0.192-0.264c-0.098,0.311-0.201,0.615-0.305,0.91c-0.849,2.399-1.258,4.791-1.69,7.324l-0.075,0.435
			c-0.099,0.583-0.161,0.934,0.003,1.479l0.051,0.172c0.159,0.532,0.322,1.082,0.556,1.588c0.106,0.231,0.197,0.489,0.292,0.764
			c0.213,0.609,0.449,1.283,0.905,1.69c-0.023-0.178-0.059-0.358-0.097-0.543c-0.062-0.304-0.126-0.621-0.134-0.957
			c-0.021-0.85,0.094-1.714,0.214-2.527c0.087-0.591,0.23-1.362,0.564-2.087c0.046-0.1,0.088-0.204,0.129-0.308
			c0.128-0.233,0.208-0.391,0.208-0.391l0.847-1.189c0.025,0.06,0.026,0.132-0.006,0.195c-0.455,0.92,0.15,2.292,0.948,3.249
			c0.346,0.414,0.661,0.784,1.023,1.122c0.045,0.041,0.172,0.129,0.302,0.209c-0.104-0.207-0.215-0.409-0.323-0.607
			c-0.367-0.672-0.746-1.367-0.895-2.197c-0.205-1.135-0.133-2.424-0.069-3.562l0.015-0.282c0.033-0.615,0.152-1.223,0.265-1.809
			c0.095-0.489,0.193-0.991,0.239-1.493C22.487,17.852,22.365,17.873,22.24,17.881"/>
		<path style="fill:#FFFFFF;" d="M12.363,9.131c-0.072,1.378-0.06,2.692,0.035,3.964c0.027-0.066,0.055-0.134,0.087-0.206
			c0.074-0.19,0.187-0.353,0.331-0.475l0.036-0.031l0.045-0.015c0.565-0.194,1.161-0.283,1.879-0.283
			c0.489,0,0.986,0.042,1.466,0.082l0.262,0.023c0.15,0.023,0.283,0.052,0.406,0.088c0.779,0.232,1.184,0.767,1.203,1.588
			c0.012,0.509,0.04,1.699-0.258,2.667c-0.072,0.359-0.208,0.646-0.417,0.877c-0.373,0.518-0.893,0.782-1.545,0.782l-0.119-0.001
			c-0.838-0.007-1.972-0.017-2.651-0.615c0.183,0.719,0.394,1.434,0.64,2.147c1.203,3.491,1.766,6.988,1.679,10.413
			c1.06-2.164,1.428-4.467,1.815-6.886c0.12-0.75,0.244-1.526,0.39-2.287c0.228-1.196,0.616-2.396,0.991-3.558
			c0.222-0.688,0.446-1.384,0.64-2.088c0.005-0.111,0.016-0.222,0.039-0.332c0.039-0.186,0.069-0.375,0.098-0.559
			c0.064-0.404,0.134-0.83,0.309-1.195c0.109-0.777,0.142-1.558,0.052-2.343c0,0,0-0.001,0-0.002v-0.001
			c-0.247-2.163-1.367-4.126-2.45-6.026c-0.547-0.958-1.112-1.948-1.56-2.955c-0.02-0.045-0.042-0.101-0.067-0.165
			c-0.052-0.13-0.203-0.507-0.313-0.599c-0.004,0.003-0.008,0.007-0.014,0.012c-0.517,0.493-0.903,1.169-1.276,1.825
			c-0.072,0.127-0.144,0.252-0.215,0.374C12.995,4.868,12.484,6.813,12.363,9.131"/>
		<polyline style="fill:#FFFFFF;" points="6.826,12.058 6.825,12.059 6.826,12.066 6.826,12.058 		"/>
		<polyline style="fill:#FFFFFF;" points="6.826,12.058 6.825,12.059 6.826,12.066 6.826,12.058 		"/>
		<path style="fill:none;stroke:#FFFFFF;stroke-width:0.197;stroke-miterlimit:10;" d="M10.884,15.248
			c0.003-0.027,0.006-0.055,0.009-0.083c0.003-0.031,0.006-0.062,0.008-0.094c0.001-0.013,0.003-0.024,0.003-0.037
			c0.064-0.821,0.109-2.096-0.52-2.78c-0.026-0.03-0.054-0.059-0.083-0.086c-0.06-0.055-0.126-0.105-0.197-0.151
			c-0.07-0.046-0.146-0.086-0.224-0.122c-0.006,0.032-0.017,0.061-0.031,0.09c-0.002,0.006-0.006,0.012-0.009,0.017
			c-0.242,0.46-1.36,0.61-1.765,0.612C7.9,12.615,7.669,12.592,7.45,12.539c-0.243-0.058-0.472-0.154-0.594-0.298
			c-0.014-0.027-0.026-0.054-0.033-0.083c-0.368,0.24-0.796,0.661-0.866,1.338c-0.003,0.035-0.004,0.07-0.007,0.106
			c-0.074,0.608,0.084,1.26,0.419,1.783c0.032,0.051,0.065,0.1,0.099,0.148c0.003,0.004,0.006,0.008,0.009,0.012
			c0.008,0.011,0.017,0.021,0.026,0.031c0.206,0.265,0.449,0.46,0.699,0.557c0.158,0.061,0.294,0.117,0.415,0.166
			c0.094,0.039,0.178,0.072,0.253,0.101c0.189,0.073,0.326,0.116,0.447,0.116c0.019,0,0.04-0.004,0.06-0.007
			c0.053-0.005,0.109-0.016,0.171-0.038c0.108-0.038,0.209-0.057,0.31-0.057c0.102,0,0.193,0.02,0.274,0.048
			c0.001,0,0.002,0,0.002,0.001h0.001c0.081,0.028,0.155,0.065,0.223,0.1c0.12,0.061,0.233,0.119,0.391,0.137
			c0.158,0.018,0.337-0.052,0.503-0.177c0.014-0.01,0.027-0.021,0.041-0.032c0.01-0.009,0.021-0.017,0.031-0.026
			c0.013-0.011,0.026-0.023,0.039-0.035c0.015-0.014,0.03-0.028,0.044-0.043c0.006-0.006,0.011-0.011,0.017-0.016
			c0.002-0.003,0.004-0.006,0.007-0.008c0.041-0.044,0.08-0.09,0.118-0.14c0.085-0.114,0.159-0.239,0.21-0.373
			c0.039-0.097,0.074-0.252,0.102-0.444c0.001-0.009,0.002-0.018,0.004-0.027C10.873,15.337,10.879,15.294,10.884,15.248z"/>
		<path style="fill:#FFFFFF;" d="M10.298,12.169C11.1,12.904,10.178,12.059,10.298,12.169"/>
		<path style="fill:#FFFFFF;" d="M6.742,12.257l0.424,0.169c0,0,0.384,0.235,1.209,0.124c0.824-0.113,1.22-0.336,1.354-0.503
			c0.135-0.168,0.174-0.227,0.174-0.227s-0.611-0.391-1.406-0.223c0,0-0.914,0.084-1.079,0.182
			C7.253,11.876,6.534,12.046,6.742,12.257"/>
		<path style="fill:none;stroke:#FFFFFF;stroke-width:0.198;stroke-miterlimit:10;" d="M17.572,13.553
			c-0.08-0.223-0.226-0.391-0.443-0.512c0.522,0.581-0.198,1.056-1.159,1.228c-0.255,0.015-0.506,0.02-0.709,0.031
			c-0.102-0.014-0.204-0.031-0.301-0.049c-0.331-0.06-0.823-0.105-1.182-0.272c-0.179-0.083-0.326-0.197-0.405-0.356
			c-0.15-0.23-0.207-0.483-0.185-0.671c-0.017,0.005-0.035,0.01-0.052,0.015c-0.002,0.002-0.004,0.005-0.006,0.007
			c-0.423,0.181-0.532,0.842-0.523,1.491c-0.011,0.126-0.017,0.251-0.011,0.377c0.033,0.231,0.069,0.462,0.109,0.691
			c0.017,0.071,0.035,0.142,0.051,0.212c0.113,0.476,0.021,0.087,0.002,0.009c0.131,0.553,0.245,1.03,0.667,1.439
			c0.262,0.253,0.661,0.383,1.092,0.449c0,0,0.001,0,0.002,0c0.438,0.067,1.081,0.151,1.619,0.059
			c0.183-0.023,0.348-0.076,0.496-0.16c0.012-0.007,0.023-0.013,0.034-0.02c0.022-0.013,0.044-0.026,0.065-0.041
			c0.008-0.006,0.016-0.01,0.024-0.015c0.017-0.013,0.035-0.029,0.053-0.043c0.093-0.077,0.181-0.167,0.259-0.273l0.019-0.023
			c0.131-0.138,0.222-0.312,0.281-0.526C17.776,15.674,17.931,14.334,17.572,13.553z"/>
		<path style="fill:#FFFFFF;" d="M13.165,12.857c0,0,0.109,1.044,0.671,1.154c0,0,1.608,0.326,2.379,0.227
			c0,0,1.107-0.495,1.094-0.814c-0.013-0.318-0.473-0.638-0.643-0.747c-0.17-0.111-0.625-0.196-1.545-0.196
			c-0.763,0-1.302,0.168-1.302,0.168L13.165,12.857z"/>
		<path style="fill:none;stroke:#FFFFFF;stroke-width:0.198;stroke-miterlimit:10;" d="M23.951,14.434
			c-0.037-0.069-0.054-0.146-0.061-0.195c-0.059-0.154-0.124-0.291-0.192-0.416c-0.055-0.1-0.116-0.189-0.18-0.271
			c-0.033-0.047-0.069-0.092-0.112-0.138c0.024,0.16-0.054,0.289-0.199,0.387c-0.006,0.002-0.01,0.005-0.015,0.007
			c-0.366,0.142-0.863,0.22-1.329,0.193c-0.596-0.074-1.166-0.328-1.3-0.782c-0.01-0.042-0.022-0.082-0.026-0.128
			c-0.036,0.022-0.069,0.046-0.1,0.072c-0.024,0.019-0.046,0.04-0.067,0.061c-0.003,0.003-0.007,0.006-0.01,0.009
			c0,0-0.001,0.001-0.001,0.002c-0.46,0.46-0.437,1.299-0.56,1.868c-0.014,0.061-0.022,0.124-0.027,0.185
			c-0.003,0.022-0.003,0.044-0.005,0.066c-0.001,0.039-0.002,0.078-0.001,0.117c0.001,0.027,0.002,0.054,0.004,0.081
			c0.002,0.029,0.007,0.058,0.01,0.087c0.01,0.071,0.024,0.143,0.043,0.213c0.002,0.006,0.003,0.011,0.005,0.016
			c0.005,0.021,0.009,0.042,0.016,0.063c0.073,0.225,0.194,0.441,0.366,0.638c0.022,0.025,0.048,0.048,0.072,0.073
			c0.013,0.013,0.026,0.026,0.039,0.039c0.046,0.046,0.093,0.089,0.144,0.132c0.033,0.027,0.067,0.054,0.102,0.081
			c0.024,0.017,0.048,0.035,0.073,0.052c0.059,0.04,0.121,0.077,0.184,0.113c0.014,0.008,0.029,0.015,0.043,0.023
			c0.026,0.012,0.051,0.026,0.077,0.038c0.047,0.023,0.094,0.043,0.141,0.061c0.001,0.001,0.002,0.001,0.003,0.002
			c0.379,0.155,0.728,0.204,1.042,0.169c0.026-0.001,0.05,0,0.075-0.001c0.151-0.01,0.292-0.041,0.428-0.091
			c0.22-0.081,0.419-0.217,0.595-0.402c0.018-0.019,0.037-0.037,0.054-0.057c0.326-0.375,0.527-0.888,0.622-1.394
			c0.048-0.24,0.069-0.487,0.062-0.731C23.981,14.774,23.99,14.79,23.951,14.434z"/>
		<path style="fill:#FFFFFF;" d="M20.579,12.944c0,0-0.1,0.862,0.903,0.996c0,0,2.452,0.181,1.845-0.766c0,0-0.501-0.4-1.17-0.449
			c-0.669-0.048-0.966,0.025-0.966,0.025L20.579,12.944z"/>
		<polyline style="fill:#FFFFFF;" points="6.726,12.016 6.725,12.017 6.726,12.023 6.726,12.016 		"/>
		<polyline points="6.726,12.016 6.725,12.017 6.726,12.023 6.726,12.016 		"/>
	</g>
	<g>
		<path style="fill:#FFFFFF;" d="M264.774,25.359h1.152c-0.074-0.607-0.105-1.27-0.093-1.989v-4.182
			c0.025-2.379-1.084-3.557-3.327-3.532c-0.98,0.025-1.909,0.248-2.788,0.669v1.115c0.879-0.532,1.808-0.793,2.788-0.781
			c1.474,0,2.193,0.812,2.156,2.435v0.483h-0.223c-0.62,0-1.264,0.018-1.933,0.055c-0.682,0.062-1.314,0.198-1.896,0.409
			c-0.583,0.198-1.06,0.526-1.432,0.985c-0.384,0.459-0.576,1.085-0.576,1.878c-0.025,0.483,0.161,1.035,0.558,1.654
			c0.223,0.285,0.545,0.521,0.967,0.707c0.409,0.198,0.941,0.303,1.598,0.315c0.619-0.012,1.208-0.168,1.765-0.464
			c0.558-0.297,0.973-0.725,1.246-1.283h0.037V25.359z M264.662,21.158c0,0.248-0.013,0.564-0.037,0.947
			c-0.025,0.372-0.131,0.751-0.316,1.134c-0.174,0.36-0.452,0.669-0.836,0.929c-0.397,0.272-0.936,0.409-1.618,0.409
			c-0.546,0-1.004-0.137-1.375-0.409c-0.397-0.26-0.595-0.694-0.595-1.301c0-0.52,0.143-0.935,0.428-1.246
			c0.26-0.309,0.607-0.539,1.041-0.687c0.433-0.161,0.916-0.266,1.45-0.315c0.507-0.025,1.016-0.038,1.524-0.038h0.335V21.158z
			 M256.097,25.359h1.17v-9.479h-1.17V25.359z M257.269,11.79h-1.17v1.561h1.17V11.79z M252.869,25.359h1.17v-13.94h-1.17V25.359z
			 M249.841,25.359h1.152c-0.074-0.607-0.104-1.27-0.092-1.989v-4.182c0.025-2.379-1.084-3.557-3.328-3.532
			c-0.979,0.025-1.908,0.248-2.788,0.669v1.115c0.88-0.532,1.809-0.793,2.788-0.781c1.475,0,2.193,0.812,2.156,2.435v0.483h-0.223
			c-0.619,0-1.264,0.018-1.933,0.055c-0.681,0.062-1.313,0.198-1.896,0.409c-0.582,0.198-1.059,0.526-1.431,0.985
			c-0.384,0.459-0.577,1.085-0.577,1.878c-0.024,0.483,0.162,1.035,0.558,1.654c0.223,0.285,0.546,0.521,0.967,0.707
			c0.409,0.198,0.942,0.303,1.598,0.315c0.62-0.012,1.209-0.168,1.766-0.464c0.558-0.297,0.973-0.725,1.245-1.283h0.037V25.359z
			 M249.729,21.158c0,0.248-0.012,0.564-0.037,0.947c-0.024,0.372-0.13,0.751-0.315,1.134c-0.174,0.36-0.452,0.669-0.837,0.929
			c-0.396,0.272-0.935,0.409-1.617,0.409c-0.546,0-1.004-0.137-1.375-0.409c-0.397-0.26-0.595-0.694-0.595-1.301
			c0-0.52,0.143-0.935,0.427-1.246c0.26-0.309,0.608-0.539,1.041-0.687c0.434-0.161,0.917-0.266,1.45-0.315
			c0.508-0.025,1.017-0.038,1.524-0.038h0.335V21.158z M239.16,25.359h1.17v-4.684c0-0.434,0.043-0.88,0.131-1.338
			c0.074-0.434,0.198-0.837,0.372-1.209c0.186-0.384,0.427-0.687,0.724-0.91c0.297-0.211,0.675-0.323,1.134-0.335
			c0.309,0,0.595,0.037,0.855,0.112v-1.227c-0.236-0.062-0.508-0.099-0.818-0.112c-0.595,0.012-1.091,0.217-1.487,0.613
			c-0.409,0.397-0.725,0.874-0.948,1.432h-0.037v-1.822h-1.17c0.049,0.532,0.074,1.239,0.074,2.119V25.359z M237.837,15.879h-2.156
			v-2.696l-1.171,0.41v2.286h-1.859v1.004h1.859v5.539c0,0.434,0.019,0.837,0.056,1.208c0.037,0.373,0.118,0.706,0.241,1.005
			c0.149,0.284,0.366,0.513,0.651,0.687c0.297,0.174,0.699,0.26,1.208,0.26c0.309,0,0.595-0.031,0.855-0.092
			c0.248-0.062,0.44-0.119,0.577-0.168l-0.074-0.967c-0.297,0.149-0.657,0.223-1.078,0.223c-0.459,0-0.781-0.155-0.967-0.465
			c-0.199-0.297-0.297-0.662-0.297-1.096v-6.134h2.156V15.879z M226.361,23.983l-0.112,1.152c0.855,0.297,1.74,0.446,2.657,0.446
			c0.781,0,1.518-0.205,2.212-0.616c0.321-0.211,0.588-0.49,0.799-0.839c0.198-0.335,0.297-0.752,0.297-1.249
			c-0.012-0.771-0.248-1.373-0.706-1.808s-0.998-0.783-1.617-1.044c-0.273-0.15-0.552-0.286-0.837-0.411
			c-0.285-0.135-0.539-0.264-0.762-0.388c-0.223-0.135-0.403-0.282-0.54-0.443c-0.137-0.172-0.204-0.357-0.204-0.554
			c0-0.32,0.055-0.579,0.167-0.776c0.099-0.197,0.242-0.352,0.428-0.462c0.359-0.222,0.842-0.333,1.45-0.333
			c0.718,0.012,1.419,0.161,2.1,0.446l0.112-1.004c-0.421-0.168-0.849-0.29-1.282-0.369c-0.434-0.051-0.788-0.077-1.06-0.077
			c-0.806,0-1.512,0.192-2.119,0.577c-0.632,0.396-0.954,1.065-0.967,2.007c0,0.334,0.068,0.625,0.205,0.873
			c0.136,0.26,0.309,0.489,0.52,0.688c0.235,0.186,0.483,0.353,0.743,0.501c0.26,0.149,0.532,0.291,0.818,0.427
			c0.607,0.248,1.133,0.527,1.579,0.837c0.446,0.323,0.675,0.762,0.688,1.32c-0.013,0.532-0.217,0.941-0.614,1.226
			c-0.409,0.31-0.904,0.465-1.487,0.465C227.903,24.566,227.079,24.367,226.361,23.983 M225.019,15.879h-1.17v5.242
			c0,0.397-0.044,0.793-0.131,1.19c-0.086,0.397-0.241,0.769-0.464,1.115c-0.199,0.335-0.483,0.607-0.855,0.818
			c-0.372,0.223-0.825,0.335-1.357,0.335c-0.793,0-1.363-0.272-1.71-0.818c-0.36-0.508-0.539-1.215-0.539-2.119v-5.762h-1.171v6.059
			c-0.012,1.066,0.235,1.933,0.743,2.602c0.508,0.681,1.338,1.029,2.491,1.041c0.495,0,0.917-0.068,1.264-0.205
			c0.347-0.111,0.638-0.259,0.874-0.446c0.235-0.198,0.427-0.409,0.576-0.632c0.149-0.21,0.266-0.421,0.354-0.632h0.037v1.692h1.133
			c-0.062-0.769-0.086-1.512-0.074-2.23V15.879z M204.936,25.359h1.283l1.382-3.476h6.516l1.395,3.476h1.338l-5.149-12.974h-1.45
			L204.936,25.359z M210.884,13.612l2.807,7.155h-5.61L210.884,13.612z M191.776,25.359h1.171v-5.075
			c-0.013-0.879,0.198-1.697,0.632-2.453c0.433-0.756,1.158-1.145,2.174-1.17c0.941,0.012,1.561,0.315,1.859,0.911
			c0.161,0.272,0.266,0.588,0.316,0.947c0.049,0.372,0.074,0.769,0.074,1.19v5.65h1.17v-5.67c0.012-1.202-0.204-2.174-0.65-2.918
			c-0.459-0.731-1.32-1.103-2.584-1.115c-0.694,0.012-1.295,0.18-1.802,0.501c-0.508,0.348-0.892,0.788-1.152,1.32h-0.037v-6.059
			h-1.171V25.359z M190.453,15.879h-2.156v-2.696l-1.17,0.41v2.286h-1.86v1.004h1.86v5.539c0,0.434,0.018,0.837,0.055,1.208
			c0.037,0.373,0.118,0.706,0.242,1.005c0.149,0.284,0.365,0.513,0.65,0.687c0.297,0.174,0.7,0.26,1.208,0.26
			c0.31,0,0.595-0.031,0.855-0.092c0.248-0.062,0.44-0.119,0.577-0.168l-0.074-0.967c-0.297,0.149-0.657,0.223-1.078,0.223
			c-0.458,0-0.781-0.155-0.967-0.465c-0.198-0.297-0.297-0.662-0.297-1.096v-6.134h2.156V15.879z M184.204,15.879h-1.17v5.242
			c0,0.397-0.044,0.793-0.131,1.19c-0.086,0.397-0.241,0.769-0.464,1.115c-0.199,0.335-0.483,0.607-0.855,0.818
			c-0.372,0.223-0.825,0.335-1.357,0.335c-0.793,0-1.363-0.272-1.71-0.818c-0.36-0.508-0.539-1.215-0.539-2.119v-5.762h-1.171v6.059
			c-0.012,1.066,0.235,1.933,0.743,2.602c0.508,0.681,1.338,1.029,2.491,1.041c0.495,0,0.917-0.068,1.264-0.205
			c0.347-0.111,0.638-0.259,0.874-0.446c0.235-0.198,0.427-0.409,0.576-0.632c0.149-0.21,0.266-0.421,0.354-0.632h0.037v1.692h1.133
			c-0.062-0.769-0.086-1.512-0.074-2.23V15.879z M167.63,24.057c0.718,0.992,1.834,1.499,3.346,1.524
			c1.536-0.025,2.663-0.532,3.383-1.524c0.693-0.967,1.041-2.113,1.041-3.438c0-1.351-0.348-2.504-1.041-3.458
			c-0.719-0.979-1.847-1.48-3.383-1.505c-1.512,0.025-2.627,0.526-3.346,1.505c-0.719,0.954-1.078,2.107-1.078,3.458
			C166.552,21.945,166.911,23.091,167.63,24.057 M168.652,17.794c0.52-0.744,1.295-1.122,2.324-1.134
			c1.028,0.012,1.815,0.39,2.36,1.134c0.52,0.756,0.781,1.697,0.781,2.825c0,1.127-0.26,2.057-0.781,2.787
			c-0.545,0.769-1.332,1.159-2.36,1.171c-1.029-0.012-1.803-0.403-2.324-1.171c-0.545-0.73-0.818-1.66-0.818-2.787
			C167.834,19.491,168.108,18.55,168.652,17.794 M158.25,24.987c0.693,0.37,1.673,0.568,2.937,0.595c1.065,0,2.031-0.285,2.9-0.855
			c0.879-0.583,1.332-1.518,1.356-2.807c0-0.483-0.08-0.91-0.241-1.282c-0.174-0.372-0.403-0.694-0.688-0.967
			c-0.582-0.57-1.264-1.041-2.045-1.413c-0.372-0.211-0.73-0.415-1.078-0.614c-0.359-0.186-0.681-0.384-0.967-0.595
			c-0.272-0.198-0.495-0.427-0.669-0.687c-0.173-0.26-0.26-0.546-0.26-0.855c0-0.421,0.087-0.781,0.26-1.078
			c0.174-0.285,0.391-0.508,0.651-0.669c0.284-0.186,0.589-0.316,0.91-0.39c0.323-0.062,0.651-0.093,0.986-0.093
			c0.941,0,1.728,0.161,2.36,0.483l0.205-1.171c-0.446-0.161-0.898-0.278-1.357-0.353c-0.458-0.049-0.855-0.074-1.19-0.074
			c-1.164,0.012-2.131,0.309-2.9,0.892c-0.793,0.607-1.196,1.438-1.208,2.491c0.012,0.818,0.322,1.493,0.929,2.026
			c0.284,0.272,0.607,0.519,0.967,0.742c0.347,0.236,0.706,0.459,1.078,0.669c0.372,0.199,0.737,0.397,1.096,0.596
			c0.36,0.198,0.675,0.409,0.948,0.632c0.607,0.433,0.916,0.966,0.929,1.597c-0.013,0.905-0.291,1.574-0.837,2.007
			c-0.558,0.434-1.251,0.651-2.082,0.651c-1.176,0-2.131-0.254-2.862-0.762L158.25,24.987z M151.447,15.916
			c-0.372-0.099-0.769-0.186-1.19-0.26c-0.434-0.062-0.941-0.092-1.524-0.092c-1.004,0-1.865,0.235-2.583,0.705
			c-0.769,0.471-1.159,1.227-1.171,2.268c0,0.422,0.068,0.775,0.205,1.06c0.112,0.297,0.272,0.546,0.483,0.743
			c0.21,0.198,0.446,0.36,0.706,0.483c0.26,0.124,0.52,0.229,0.781,0.315c0.558,0.15,1.053,0.31,1.487,0.483
			c0.21,0.087,0.378,0.205,0.501,0.354c0.112,0.161,0.168,0.366,0.168,0.613c-0.013,0.446-0.205,0.751-0.577,0.911
			c-0.36,0.174-0.712,0.26-1.059,0.26c-0.855,0-1.673-0.211-2.453-0.632l-0.149,2.045c0.929,0.26,1.871,0.397,2.825,0.409
			c1.065,0,1.994-0.241,2.788-0.724c0.793-0.496,1.202-1.295,1.227-2.398c0-0.446-0.056-0.824-0.168-1.133
			c-0.124-0.298-0.291-0.552-0.501-0.763c-0.199-0.198-0.422-0.372-0.669-0.52c-0.26-0.137-0.533-0.248-0.818-0.335
			c-0.26-0.099-0.52-0.186-0.781-0.26c-0.26-0.074-0.496-0.155-0.706-0.242c-0.446-0.148-0.676-0.402-0.688-0.762
			c0.012-0.409,0.18-0.694,0.502-0.855c0.297-0.137,0.619-0.205,0.967-0.205c0.458,0,0.855,0.031,1.19,0.093
			c0.335,0.074,0.681,0.18,1.041,0.316L151.447,15.916z M135.681,25.359h2.491v-4.647h0.037l3.197,4.647h3.16l-4.015-5.298
			l3.569-4.274h-2.937l-2.974,3.828h-0.037v-8.196h-2.491V25.359z M129.177,25.359h2.491v-3.513c0-0.372,0.012-0.774,0.037-1.208
			c0.024-0.446,0.098-0.867,0.223-1.264c0.136-0.421,0.341-0.762,0.613-1.023c0.272-0.272,0.657-0.409,1.152-0.409
			c0.483,0,0.855,0.068,1.115,0.205v-2.51c-0.26-0.049-0.514-0.073-0.762-0.073c-0.743,0.024-1.345,0.309-1.803,0.855
			c-0.471,0.532-0.743,1.047-0.818,1.542h-0.037v-2.174h-2.211V25.359z M121.576,21.696c0.174-0.223,0.403-0.39,0.687-0.501
			c0.285-0.112,0.589-0.186,0.911-0.223c0.149-0.025,0.297-0.037,0.446-0.037h0.427h1.078c0.013,0.756-0.161,1.413-0.52,1.97
			c-0.396,0.558-0.979,0.843-1.747,0.855c-0.458,0-0.83-0.099-1.115-0.297c-0.309-0.186-0.464-0.477-0.464-0.874
			C121.279,22.218,121.378,21.919,121.576,21.696 M120.015,18.426c0.88-0.682,1.865-1.029,2.955-1.042
			c0.743,0,1.289,0.15,1.636,0.446c0.348,0.31,0.52,0.849,0.52,1.618h-1.375c-0.519,0-1.065,0.031-1.635,0.093
			c-0.559,0.073-1.085,0.229-1.58,0.464c-0.471,0.211-0.855,0.539-1.152,0.985c-0.323,0.446-0.483,1.029-0.483,1.747
			c0.012,0.917,0.366,1.618,1.059,2.101c0.657,0.483,1.42,0.731,2.287,0.743c0.595,0,1.164-0.149,1.71-0.446
			c0.532-0.285,0.947-0.687,1.245-1.208h0.038c0,0.371,0.036,0.848,0.111,1.431h2.193c-0.049-0.718-0.086-1.431-0.111-2.138
			c-0.025-0.669-0.038-1.468-0.038-2.397v-1.227c0.038-2.726-1.338-4.07-4.126-4.033c-1.151,0.012-2.261,0.253-3.327,0.724
			L120.015,18.426z M110.041,25.359h2.602v-4.925h1.096c1.438,0.012,2.627-0.304,3.569-0.948c0.942-0.632,1.419-1.691,1.432-3.179
			c-0.025-1.536-0.571-2.583-1.636-3.141c-1.054-0.532-2.311-0.793-3.774-0.781h-3.289V25.359z M112.643,14.429h0.91
			c0.694,0,1.277,0.149,1.747,0.446c0.223,0.149,0.403,0.353,0.54,0.613c0.124,0.261,0.186,0.583,0.186,0.968
			c-0.013,0.73-0.254,1.239-0.725,1.524c-0.483,0.284-1.065,0.421-1.747,0.409h-0.91V14.429z M100.877,25.359h2.491v-13.94h-2.491
			V25.359z M93.267,21.696c0.173-0.223,0.402-0.39,0.687-0.501c0.285-0.112,0.589-0.186,0.911-0.223
			c0.149-0.025,0.297-0.037,0.446-0.037h0.427h1.078c0.012,0.756-0.161,1.413-0.52,1.97c-0.397,0.558-0.979,0.843-1.747,0.855
			c-0.458,0-0.83-0.099-1.115-0.297c-0.309-0.186-0.464-0.477-0.464-0.874C92.969,22.218,93.068,21.919,93.267,21.696
			 M91.705,18.426c0.879-0.682,1.865-1.029,2.955-1.042c0.743,0,1.289,0.15,1.636,0.446c0.347,0.31,0.52,0.849,0.52,1.618h-1.375
			c-0.52,0-1.066,0.031-1.636,0.093c-0.558,0.073-1.084,0.229-1.579,0.464c-0.471,0.211-0.855,0.539-1.152,0.985
			c-0.323,0.446-0.483,1.029-0.483,1.747c0.012,0.917,0.365,1.618,1.059,2.101c0.657,0.483,1.419,0.731,2.287,0.743
			c0.595,0,1.164-0.149,1.71-0.446c0.532-0.285,0.947-0.687,1.245-1.208h0.037c0,0.371,0.037,0.848,0.112,1.431h2.193
			c-0.049-0.718-0.086-1.431-0.112-2.138c-0.025-0.669-0.037-1.468-0.037-2.397v-1.227c0.037-2.726-1.338-4.07-4.126-4.033
			c-1.152,0.012-2.262,0.253-3.327,0.724L91.705,18.426z M80.593,25.359h2.491v-4.684c0-0.323,0.037-0.669,0.112-1.041
			c0.061-0.36,0.173-0.7,0.335-1.022c0.173-0.323,0.396-0.589,0.669-0.8c0.272-0.211,0.632-0.316,1.078-0.316
			c0.396,0,0.712,0.081,0.947,0.242c0.223,0.174,0.378,0.403,0.465,0.688c0.112,0.26,0.173,0.551,0.186,0.873
			c0.012,0.323,0.018,0.638,0.018,0.948v5.111h2.491v-6.04c0-1.103-0.254-2.001-0.762-2.696c-0.533-0.694-1.363-1.047-2.491-1.059
			c-1.301-0.013-2.349,0.495-3.142,1.524h-0.037v-1.301h-2.36V25.359z M72.517,18.37c0.396-0.57,0.991-0.861,1.784-0.874
			c0.818,0.013,1.431,0.298,1.84,0.855c0.384,0.559,0.577,1.221,0.577,1.989c0,0.397-0.031,0.787-0.093,1.171
			c-0.062,0.396-0.186,0.756-0.372,1.077c-0.186,0.323-0.434,0.577-0.743,0.763c-0.323,0.198-0.724,0.297-1.208,0.297
			c-0.471,0-0.855-0.105-1.152-0.315c-0.31-0.187-0.558-0.44-0.743-0.763c-0.174-0.323-0.297-0.681-0.372-1.078
			c-0.037-0.186-0.068-0.384-0.093-0.595c-0.025-0.186-0.037-0.372-0.037-0.558C71.903,19.585,72.108,18.927,72.517,18.37
			 M70.621,24.132c0.867,0.941,2.094,1.425,3.68,1.45c1.611-0.025,2.849-0.508,3.717-1.45c0.867-0.929,1.301-2.094,1.301-3.494
			c-0.013-1.598-0.49-2.843-1.432-3.735c-0.929-0.88-2.125-1.326-3.587-1.338c-1.438,0.012-2.621,0.458-3.551,1.338
			c-0.954,0.892-1.438,2.137-1.45,3.735C69.301,22.038,69.741,23.202,70.621,24.132 M65.457,14.04h2.491v-2.379h-2.491V14.04z
			 M65.457,25.359h2.491v-9.572h-2.491V25.359z M59.602,22.477c0.012,2.02,1.022,3.055,3.029,3.105c0.731,0,1.344-0.074,1.841-0.223
			l-0.074-1.97c-0.285,0.174-0.663,0.26-1.134,0.26c-0.458-0.012-0.768-0.18-0.929-0.502c-0.173-0.296-0.254-0.656-0.241-1.078
			v-4.461h2.211v-1.821h-2.211v-2.715l-2.491,0.8v1.915h-1.841v1.821h1.841V22.477z M51.256,21.696
			c0.174-0.223,0.403-0.39,0.688-0.501c0.284-0.112,0.589-0.186,0.91-0.223c0.149-0.025,0.297-0.037,0.446-0.037h0.428h1.078
			c0.012,0.756-0.162,1.413-0.52,1.97c-0.397,0.558-0.98,0.843-1.747,0.855c-0.459,0-0.831-0.099-1.115-0.297
			c-0.31-0.186-0.465-0.477-0.465-0.874C50.959,22.218,51.058,21.919,51.256,21.696 M49.695,18.426
			c0.88-0.682,1.865-1.029,2.956-1.042c0.743,0,1.288,0.15,1.636,0.446c0.347,0.31,0.52,0.849,0.52,1.618h-1.375
			c-0.52,0-1.066,0.031-1.636,0.093c-0.558,0.073-1.084,0.229-1.58,0.464c-0.47,0.211-0.855,0.539-1.152,0.985
			c-0.322,0.446-0.483,1.029-0.483,1.747c0.013,0.917,0.366,1.618,1.06,2.101c0.656,0.483,1.419,0.731,2.286,0.743
			c0.595,0,1.165-0.149,1.71-0.446c0.533-0.285,0.948-0.687,1.246-1.208h0.037c0,0.371,0.037,0.848,0.112,1.431h2.193
			c-0.05-0.718-0.087-1.431-0.112-2.138c-0.025-0.669-0.037-1.468-0.037-2.397v-1.227c0.037-2.726-1.338-4.07-4.126-4.033
			c-1.152,0.012-2.262,0.253-3.328,0.724L49.695,18.426z M36.458,25.359h2.491v-9.702h0.037l4.962,9.702h3.179V12.385h-2.491v9.702
			h-0.037l-4.944-9.702h-3.197V25.359z"/>
	</g>
</g>
</svg>
