<?xml version="1.0" encoding="utf-8"?>
<!-- Generator: Adobe Illustrator 23.0.2, SVG Export Plug-In . SVG Version: 6.00 Build 0)  -->
<svg version="1.1" id="Layer_1" xmlns="http://www.w3.org/2000/svg" xmlns:xlink="http://www.w3.org/1999/xlink" x="0px" y="0px"
	 viewBox="0 0 436.2 37" style="enable-background:new 0 0 436.2 37;" xml:space="preserve">
<style type="text/css">
	.st0{fill:#FFFFFF;}
	.st1{opacity:0.6;fill:#FFFFFF;enable-background:new    ;}
</style>
<g>
	<path class="st0" d="M21.8,8.9c0,0.2,0.1,0.4,0.1,0.6C22,9.7,22,10,22,10.2l0,0c0,0.2,0,0.4,0.1,0.6c0.2,0.2,0.3,0.3,0.5,0.5
		c0.6,0.5,1.9,2.4,0.5,4.8c0,0-0.2,0.4-0.6,0.6c0,0.5-0.1,1-0.2,1.5c0,0.1-0.1,0.9,0.2,2c0.1,0.2,0.1,0.4,0.2,0.6s0.1,0.4,0.2,0.5
		c1.2-1.9,1.8-4,1.7-6.3c-0.1-2.8-1.2-5.3-3-7.2C21.7,8.3,21.8,8.6,21.8,8.9z"/>
	<path class="st0" d="M14.7,5.6l0.2,0.2L15,5.6c0.2-0.5,0.4-0.9,0.6-1.3C15,4.1,14.3,4,13.7,4c0.3,0.6,0.6,1.1,0.8,1.3
		C14.5,5.4,14.6,5.5,14.7,5.6z"/>
	<path class="st0" d="M3.4,21.9c0.1-1,0.1-1.8,0-2.6c-0.5-0.3-0.9-0.6-1.2-1.1C2.1,18,2,17.7,1.9,17.5S1.8,17,1.8,16.7
		c0-0.9,0.2-2,0.8-2.7c-0.1-0.2-0.1-0.4-0.1-0.6c0-0.2-0.1-0.4-0.1-0.7C2.2,11.9,2,10.8,2,9.3c-1.4,1.9-2.1,4.3-2,6.8
		c0.1,2.9,1.3,5.5,3.3,7.5C3.3,23.1,3.4,22.5,3.4,21.9z"/>
	<path class="st0" d="M23.8,24.2L23.8,24.2c-0.2-0.2-0.3-0.5-0.4-0.7c-0.5-0.7-1-1.4-1.3-2.3c-0.1-0.2-0.2-0.5-0.2-0.7
		c-0.4-1.3-0.2-2.3-0.2-2.3c0.1-0.4,0.1-0.8,0.1-1.2l0,0c-0.1,0-0.2,0-0.3-0.1h-0.1v-0.1c0,0,0.4-1.3,0.2-2.3
		c-0.1-0.3-0.1-0.5-0.2-0.8c-0.2-0.7-0.5-1.5-0.3-2.3c0.2-1,0.3-1.4,0.3-1.4V9.9c0-0.1,0-0.3,0-0.4c0-0.2-0.1-0.4-0.1-0.6
		c0-0.4-0.2-0.8-0.3-1.2c-0.2-0.4-0.4-0.7-0.6-1.1c-0.2-0.3-0.5-0.6-0.7-0.9c-0.9-0.8-1.5-1.7-2-2.7l0,0c0,0,0.1,2.6,1,4.1
		c0.7,1.1,1.4,2.2,1.7,3.9c0.1,0.7,0.2,1.6,0.1,2.6c0,0.4,0,0.9-0.1,1.3l0,0c0.5,0.7,0.6,1.4,0.6,2.1c0,0.6-0.1,1.1-0.2,1.5
		s-0.3,0.9-0.7,1.3c0,0.4-0.1,0.9-0.1,1.4c0,0.8-0.1,1.7-0.2,2.6c0,0.1,0,0.1,0.1,0.2c0.1,0.2,0.1,0.3,0.2,0.5
		c0.1,0.1,0.1,0.3,0.2,0.4s0.1,0.3,0.2,0.4c0.6,1,1.5,2.2,2.7,3l0.1,0.1c0.2,0.1,0.4,0.3,0.5,0.3l0,0l0,0c0-0.1-0.1-0.2-0.2-0.3
		c-0.1-0.1-0.1-0.2-0.1-0.2c-0.2-0.5-0.4-0.9-0.6-1.4c-0.1-0.2-0.1-0.3-0.2-0.5v-0.1c-0.1-0.5-0.3-1-0.4-1.5l-0.1-0.8l0.5,0.6
		c0.4,0.4,0.8,0.8,1.2,0.8c0,0,0.1,0,0.1-0.1C24.3,24.8,24,24.4,23.8,24.2L23.8,24.2z"/>
	<path class="st0" d="M19.5,24.5c0-0.7,0.1-1.3,0.1-1.9l0,0c0-0.5,0.1-1,0.1-1.5c0-0.4,0-0.8,0.1-1.1c-0.1,0-0.2,0-0.3,0
		c-0.2,0-0.5-0.1-0.7-0.1c-0.1,0-0.2,0-0.2-0.1c-0.1,0-0.3,0-0.4-0.1c-0.4-0.1-0.9-0.1-1.2-0.4c-0.3-0.3-0.5-0.6-0.5-1
		c0,0.1,0,0.2-0.1,0.3c-0.1,0.3-0.2,0.8-0.3,1.3c0,0.1-0.1,0.2-0.2,0.2c0,0,0,0-0.1,0s-0.2-0.2-0.2-0.3c0.1-0.5,0.2-0.9,0.3-1.3
		c0.1-0.4,0.2-0.7,0.2-0.9c0.2-1.3,0.4-3,0.4-3c0-1.5-0.4-2.9-0.6-3.9v-0.1c0-0.1,0-0.3,0.2-0.3c0.1,0,0.3,0.1,0.3,0.2v0.1
		c0.2,1,0.6,2.4,0.6,4l0,0c0.2,0.1,0.4,0.1,0.7,0.2h0.1c0.2,0,0.4,0.1,0.6,0.1c0.1,0,0.2,0,0.3-0.1c0.2-0.1,0.1-0.4,0-0.6
		c-0.1-0.3-0.1-0.6,0.1-0.7l0,0l0,0c0.2,0.3,0.4,0.3,0.7,0.4c0.1,0,0.2,0.1,0.3,0.1c0.1,0,0.2,0.1,0.3,0.2c0-0.3,0-0.6,0-0.9
		c0-1,0-1.7-0.1-2.4c-0.3-1.6-1-2.6-1.7-3.7c-1-1.6-1.1-4.2-1.1-4.3c0-0.1-0.1-0.3-0.1-0.3l0,0c0,0-0.1,0-0.1,0.1
		c-0.1,0-0.1,0.2-0.2,0.4s-0.2,0.5-0.3,0.8l0,0c-0.1,0.1-0.1,0.2-0.2,0.4c-0.4,0.7-0.8,1.5-1.2,2.6c0.2,0.5,0.3,0.9,0.3,0.9
		c0,0.1-0.1,0.2-0.2,0.3c-0.1,0-0.3-0.1-0.3-0.2c0,0-0.1-0.4-0.3-0.9c-0.1-0.4-0.3-0.8-0.6-1.1c0-0.1-0.1-0.1-0.1-0.2
		c-0.7-0.7-2.2-4.3-2.3-4.4c0,0-0.1-0.1-0.1-0.2l0,0l0,0c-0.1-0.1-0.2-0.2-0.2-0.2c-0.1,0-0.3,0.3-0.4,0.5c0,0-1.2,2.1-2,4.8l0,0
		c-0.4,1.5-0.8,3.3-0.8,5c0,0-0.1,1.5,0.5,3v0.1v0.1c0,0-0.8,2.6,0.7,5.8l0,0c0,0,0.4,1.8,1,3.9l0,0c0.2,0.7,0.4,1.3,0.6,2
		c0.1,0.2,1.4,6.1,1.1,9.7c0,0.2,0,0.3,0,0.4v0.1c0.1-0.1,0.2-0.4,0.3-0.6l0,0l0,0c0,0,0.1-0.3,0.3-0.9c0.4-1.1,1-3.4,1.4-7l0,0
		c0-0.3,0.1-0.6,0.1-1c0.1-0.6,0.1-1.2,0.2-1.7c0-0.1,0.1-0.2,0.3-0.2c0.1,0,0.2,0.1,0.2,0.3c0,0.6-0.1,1.2-0.2,1.8
		c-0.1,0.9-0.2,1.7-0.3,2.5l0,0c0.9,4.5,1.9,6.1,2.4,6.6c0-0.7-0.1-1.9,0-3.2c0-1.1,0.1-2.2,0.2-3.1s0.2-1.3,0.3-1.5
		C17.1,28,17,27.7,17,27.4c0-0.1,0.1-0.2,0.2-0.2s0.2,0.1,0.2,0.2c0,0.3,0.1,0.6,0.2,0.9c0,0,0,0,0,0.1c0.6,1.3,1.2,2.3,1.8,2.9
		c0.6,0.7,1.1,1.1,1.4,1.3c-0.1-0.2-0.2-0.4-0.3-0.5C20.7,32,19.2,29.4,19.5,24.5z M14.3,20.3c-0.5,0.3-1.4,0.8-2.3,0.8
		c-0.7,0-1.4-0.3-1.9-0.8c-1.9-1.8-1-4.4-0.8-5.2V15c0.1-0.3,0.4-0.5,0.8-0.5c0.2,0,0.5,0.1,0.5,0.1c0.3,0.3,0.6,0.3,0.8,0.3
		c0.1,0,0.2,0,0.2,0c0.7-0.3,1.2-0.5,1.7-0.5c0.3,0,0.5,0.1,0.5,0.2c0.9,0.3,1.3,3.1,1.2,4.4C14.9,19.4,14.8,20,14.3,20.3z M15,24.2
		c0,0.1-0.1,0.2-0.2,0.2l0,0c-0.1,0-0.2-0.1-0.2-0.3v-0.3c0-0.1,0.1-0.2,0.3-0.2c0.1,0,0.2,0.1,0.2,0.3L15,24.2z M15.2,23.3
		c0,0.1-0.1,0.2-0.2,0.2c0,0,0,0-0.1,0s-0.2-0.2-0.2-0.3c0.2-0.7,0.3-1.4,0.4-2c0-0.1,0.1-0.2,0.3-0.2c0.1,0,0.2,0.1,0.2,0.3
		C15.5,21.9,15.4,22.6,15.2,23.3z"/>
	<path class="st0" d="M8,16.3c0-1,0.1-1.8,0.2-2c-0.7-1.6-0.5-3-0.5-3.1c0-2,0.4-3.9,0.9-5.5C8.1,4.9,7.8,4.6,7.8,4.6
		C7.7,4.5,6,2.9,5.9,1.3C5.8,0.4,5.6,0.2,5.5,0.1c-0.1,0-0.2,0-0.3,0c-0.5,0-0.6,0.4-0.6,0.5l0,0l0,0c0,0-1.4,3.2-1.8,6.5
		c-0.3,2.6-0.1,4.4,0.1,5.4C3,12.9,3,13.1,3,13.3c0,0.1,0,0.1,0,0.2c0.5-0.3,1-0.3,1.3-0.3s0.6,0,0.9,0.1c0.2,0,0.5,0,0.7,0
		c0.1,0,0.5,0.2,0.6,0.3c0.7,0.5,1,1.4,1.1,2.7c0.1,1.9-0.6,2.9-0.9,3.2c-0.2,0.2-0.4,0.4-0.6,0.4H6c-0.1,0-0.2,0-0.3,0
		c-0.6,0-1.1-0.1-1.6-0.2c0,0.7,0,1.5-0.1,2.4c-0.4,5.4-1.2,6.7-1.2,6.8c0,0-0.1,0.1-0.1,0.1c0.1-0.1,0.2-0.2,0.4-0.4l0,0
		c0.9-0.9,1.7-2.1,2.3-3.7c0-0.1,0.1-0.2,0.3-0.2h0.1l0.1,0.1c0,0.1,0.1,0.1,0.1,0.4c0,0.2,0,0.3,0,0.4s0,0.2,0,0.4
		c0,4.7-0.8,8.2-2.7,10.3c-0.4,0.4-0.5,0.7-0.5,0.8c0.1,0,0.3,0,0.7-0.3c3-1.6,5.2-5.5,6.6-11.6c-0.7-2.3-1.2-4.5-1.3-4.7
		C8.2,18.8,8,17.4,8,16.3z"/>
	<path class="st0" d="M21.7,12.4c0.1-0.1-0.1-0.3,0-0.4c0.1-0.2,0.3,0,0.3,0.2c0.1,0.4,0.1,0.9,0.1,1.4c0,0.2,0,0.5,0,0.7
		c0,0.1,0,0.1,0.1,0.2c0.1,0,0.2,0,0.3,0.1c0.2,0,0.8,0,0.8-0.3c0.2-0.8-0.4-1.8-0.9-2.3c-0.2-0.2-0.3-0.3-0.5-0.4
		c-0.2-0.1-0.3,0-0.4,0.3c-0.1,0.2-0.1,0.5-0.1,0.6C21.5,12.4,21.6,12.5,21.7,12.4z"/>
	<path class="st0" d="M3.8,16.8c0.1,0,0.2,0,0.3,0.1c0.1,0,0.2,0,0.3,0c0.9,0,2.6,0.2,2.5-1.2c0-0.2,0-0.4-0.1-0.6
		c0-0.2-0.1-0.4-0.1-0.5c-0.1-0.4-0.7-0.9-1.1-0.8c-0.1,0-0.3,0-0.5,0c-0.3,0-0.8,0-1.3-0.2c-0.1,0-0.5,0-0.6,0.2
		C3.1,14,3,14.1,2.9,14.3c-0.1,0.1-0.1,0.1-0.2,0.2C2.2,15.5,2.8,16.6,3.8,16.8z"/>
	<path class="st0" d="M11.7,15.2c0,0-0.3,0.3-1.3-0.2c0,0-0.3-0.2-0.7,0.1c0,0-0.9,1.8,0.1,2.5c0,0,1.5,1,2.8,1
		c1.2,0,1.9-2.1,1.3-3.3C13.4,14.3,11.7,15.2,11.7,15.2z"/>
	<path class="st0" d="M18.8,15.4c-0.2,0.1-0.5,0.1-0.7,0.1c-0.1,0-0.3,0-0.4-0.1s-0.2-0.2-0.3-0.1c-0.2,0.6,0,1.3,0.3,1.9
		c0.2,0.5,0.6,0.7,1.1,0.7s1.1,0,1.5-0.3c0.6-0.3,0.5-1,0.4-1.6c-0.3-0.9-1-1.5-1.8-1.8C19.3,14.6,19.4,15.1,18.8,15.4z"/>
</g>
<g>
	<path class="st0" d="M39,16.8v8.5h-2.7V12.7h2.8l5.9,8.2v-8.2h2.7v12.7H45L39,16.8z"/>
	<path class="st0" d="M55,24.4c-0.6,0.7-1.7,1.2-2.9,1.2c-1.5,0-3.2-1-3.2-3c0-2.1,1.7-2.9,3.2-2.9c1.2,0,2.3,0.4,2.9,1.1v-1.3
		c0-0.9-0.8-1.5-2-1.5c-1,0-1.9,0.4-2.7,1.1l-0.9-1.6c1.1-1,2.6-1.4,4-1.4c2.1,0,4,0.8,4,3.5v5.9H55V24.4z M55,22
		c-0.4-0.5-1.2-0.8-1.9-0.8c-0.9,0-1.7,0.5-1.7,1.4s0.8,1.3,1.7,1.3c0.8,0,1.5-0.3,1.9-0.8V22z"/>
	<path class="st0" d="M59.7,23.1v-4.8h-1.5v-2.1h1.5v-2.5h2.4v2.5H64v2.1h-1.9v4.1c0,0.6,0.3,1,0.8,1c0.4,0,0.7-0.1,0.8-0.3l0.5,1.8
		c-0.4,0.3-1,0.6-2,0.6C60.7,25.6,59.7,24.7,59.7,23.1z"/>
	<path class="st0" d="M64.9,13.4c0-0.8,0.7-1.4,1.4-1.4c0.8,0,1.4,0.6,1.4,1.4s-0.6,1.4-1.4,1.4C65.5,14.8,64.9,14.2,64.9,13.4z
		 M65.1,16.2h2.4v9.2h-2.4V16.2z"/>
	<path class="st0" d="M68.8,20.8c0-2.6,1.8-4.8,4.8-4.8s4.9,2.2,4.9,4.8s-1.8,4.8-4.9,4.8C70.6,25.6,68.8,23.4,68.8,20.8z M76,20.8
		c0-1.4-0.9-2.7-2.4-2.7s-2.3,1.2-2.3,2.7c0,1.4,0.8,2.7,2.3,2.7S76,22.2,76,20.8z"/>
	<path class="st0" d="M85.9,19.8c0-1.3-0.7-1.7-1.7-1.7c-0.9,0-1.7,0.5-2.1,1.1v6.2h-2.4v-9.2h2.4v1.2c0.6-0.7,1.7-1.4,3.2-1.4
		c2,0,3,1.1,3,2.9v6.5h-2.4V19.8z"/>
	<path class="st0" d="M95.6,24.4c-0.6,0.7-1.7,1.2-2.9,1.2c-1.5,0-3.2-1-3.2-3c0-2.1,1.7-2.9,3.2-2.9c1.2,0,2.3,0.4,2.9,1.1v-1.3
		c0-0.9-0.8-1.5-2-1.5c-1,0-1.9,0.4-2.7,1.1L90,17.4c1.1-1,2.6-1.4,4-1.4c2.1,0,4,0.8,4,3.5v5.9h-2.4V24.4z M95.6,22
		c-0.4-0.5-1.2-0.8-1.9-0.8c-0.9,0-1.7,0.5-1.7,1.4s0.8,1.3,1.7,1.3c0.8,0,1.5-0.3,1.9-0.8V22z"/>
	<path class="st0" d="M99.9,12.7h2.4v12.7h-2.4V12.7z"/>
	<path class="st0" d="M108.5,12.7h5.9c2.8,0,4.3,1.9,4.3,4.1s-1.5,4-4.3,4h-3.2v4.5h-2.7C108.5,25.3,108.5,12.7,108.5,12.7z M114,15
		h-2.9v3.5h2.9c1.1,0,1.9-0.7,1.9-1.7C115.9,15.7,115.1,15,114,15z"/>
	<path class="st0" d="M124.8,24.4c-0.6,0.7-1.7,1.2-2.9,1.2c-1.5,0-3.2-1-3.2-3c0-2.1,1.7-2.9,3.2-2.9c1.2,0,2.3,0.4,2.9,1.1v-1.3
		c0-0.9-0.8-1.5-2-1.5c-1,0-1.9,0.4-2.7,1.1l-0.9-1.6c1.1-1,2.6-1.4,4-1.4c2.1,0,4,0.8,4,3.5v5.9h-2.4V24.4z M124.8,22
		c-0.4-0.5-1.2-0.8-1.9-0.8c-0.9,0-1.7,0.5-1.7,1.4s0.8,1.3,1.7,1.3c0.8,0,1.5-0.3,1.9-0.8V22z"/>
	<path class="st0" d="M129.1,16.2h2.4v1.3c0.6-0.8,1.8-1.5,2.9-1.5v2.4c-0.2,0-0.4-0.1-0.7-0.1c-0.8,0-1.9,0.5-2.3,1v6.1H129v-9.2
		H129.1z"/>
	<path class="st0" d="M138.8,21.8l-1.1,1.2v2.4h-2.4V12.7h2.4v7.6l3.5-4.1h3l-3.6,4.2l3.7,5h-3L138.8,21.8z"/>
	<path class="st0" d="M145,22.5c0.7,0.6,2,1.3,3.2,1.3c1,0,1.5-0.4,1.5-0.9c0-0.6-0.8-0.9-1.8-1.1c-1.6-0.3-3.6-0.7-3.6-2.9
		c0-1.5,1.3-2.9,3.8-2.9c1.6,0,2.8,0.5,3.7,1.3l-1,1.7c-0.6-0.6-1.6-1.1-2.7-1.1c-0.9,0-1.4,0.3-1.4,0.9s0.7,0.8,1.7,1
		c1.6,0.3,3.7,0.7,3.7,3c0,1.7-1.4,2.9-4,2.9c-1.6,0-3.1-0.5-4.1-1.4L145,22.5z"/>
	<path class="st0" d="M163.1,24.4c-0.6,0.7-1.7,1.2-2.9,1.2c-1.5,0-3.2-1-3.2-3c0-2.1,1.7-2.9,3.2-2.9c1.2,0,2.3,0.4,2.9,1.1v-1.3
		c0-0.9-0.8-1.5-2-1.5c-1,0-1.9,0.4-2.7,1.1l-0.9-1.6c1.1-1,2.6-1.4,4-1.4c2.1,0,4,0.8,4,3.5v5.9h-2.4L163.1,24.4L163.1,24.4z
		 M163.1,22c-0.4-0.5-1.2-0.8-1.9-0.8c-1,0-1.7,0.5-1.7,1.4s0.8,1.3,1.7,1.3c0.8,0,1.5-0.3,1.9-0.8V22z"/>
	<path class="st0" d="M173.5,19.8c0-1.3-0.7-1.7-1.7-1.7s-1.7,0.5-2.1,1.1v6.2h-2.4v-9.2h2.4v1.2c0.6-0.7,1.7-1.4,3.2-1.4
		c2,0,3,1.1,3,2.9v6.5h-2.4V19.8z"/>
	<path class="st0" d="M184.1,24.2c-0.7,0.9-1.7,1.4-2.8,1.4c-2.3,0-4.1-1.7-4.1-4.8c0-3,1.7-4.8,4.1-4.8c1.1,0,2.1,0.5,2.8,1.4v-4.7
		h2.4v12.7h-2.4V24.2z M184.1,19.1c-0.4-0.6-1.3-1-2.1-1c-1.4,0-2.3,1.1-2.3,2.7s1,2.7,2.3,2.7c0.8,0,1.7-0.4,2.1-1V19.1z"/>
	<path class="st0" d="M200.1,16.7l-2.2,8.7H195l-3.6-12.7h3l2.2,9.2l2.4-9.2h2.1l2.4,9.2l2.2-9.2h3l-3.6,12.7h-2.9L200.1,16.7z"/>
	<path class="st0" d="M209.2,13.4c0-0.8,0.7-1.4,1.4-1.4c0.8,0,1.4,0.6,1.4,1.4s-0.6,1.4-1.4,1.4C209.9,14.8,209.2,14.2,209.2,13.4z
		 M209.5,16.2h2.4v9.2h-2.4V16.2z"/>
	<path class="st0" d="M213.7,12.7h2.4v12.7h-2.4V12.7z"/>
	<path class="st0" d="M224.3,24.2c-0.7,0.9-1.7,1.4-2.8,1.4c-2.3,0-4.1-1.7-4.1-4.8c0-3,1.7-4.8,4.1-4.8c1.1,0,2.1,0.5,2.8,1.4v-4.7
		h2.4v12.7h-2.4V24.2z M224.3,19.1c-0.4-0.6-1.3-1-2.1-1c-1.4,0-2.3,1.1-2.3,2.7s1,2.7,2.3,2.7c0.8,0,1.7-0.4,2.1-1V19.1z"/>
	<path class="st0" d="M228.5,12.7h2.4v12.7h-2.4V12.7z"/>
	<path class="st0" d="M232.5,13.4c0-0.8,0.7-1.4,1.4-1.4c0.8,0,1.4,0.6,1.4,1.4s-0.6,1.4-1.4,1.4C233.2,14.8,232.5,14.2,232.5,13.4z
		 M232.8,16.2h2.4v9.2h-2.4V16.2z"/>
	<path class="st0" d="M237.5,18.3H236v-2.1h1.5v-0.5c0-2,1.3-3.2,3.1-3.2c0.7,0,1.3,0.2,1.7,0.4l-0.5,1.7c-0.2-0.1-0.5-0.2-0.8-0.2
		c-0.7,0-1.1,0.5-1.1,1.3v0.5h1.9v2.1H240v7.1h-2.4v-7.1H237.5z"/>
	<path class="st0" d="M246.8,16c2.7,0,4.6,2.1,4.6,5.1v0.5h-6.8c0.2,1.2,1.1,2.1,2.6,2.1c0.9,0,1.9-0.3,2.5-0.9l1.1,1.6
		c-0.9,0.8-2.4,1.3-3.8,1.3c-2.8,0-4.9-1.9-4.9-4.8C242,18.1,244,16,246.8,16z M244.5,19.9h4.5c-0.1-0.9-0.7-2-2.3-2
		C245.3,17.9,244.7,19,244.5,19.9z"/>
	<path class="st0" d="M257.5,21.5c0.9,0.9,2.3,1.7,4,1.7c1.5,0,2.2-0.7,2.2-1.4c0-0.9-1.1-1.3-2.6-1.6c-2.1-0.5-4.7-1-4.7-3.9
		c0-2.1,1.8-3.8,4.8-3.8c2,0,3.7,0.6,4.9,1.8l-1.5,2c-1-0.9-2.4-1.4-3.6-1.4s-1.9,0.5-1.9,1.3c0,0.9,1.1,1.1,2.5,1.5
		c2.1,0.5,4.7,1.1,4.7,3.9c0,2.3-1.7,4.1-5.1,4.1c-2.4,0-4.2-0.8-5.4-2L257.5,21.5z"/>
	<path class="st0" d="M271.9,16c2.7,0,4.6,2.1,4.6,5.1v0.5h-6.8c0.2,1.2,1.1,2.1,2.6,2.1c0.9,0,1.9-0.3,2.5-0.9l1.1,1.6
		c-0.9,0.8-2.4,1.3-3.8,1.3c-2.8,0-4.9-1.9-4.9-4.8C267.1,18.1,269.1,16,271.9,16z M269.6,19.9h4.5c-0.1-0.9-0.7-2-2.3-2
		C270.4,17.9,269.7,19,269.6,19.9z"/>
	<path class="st0" d="M277.6,16.2h2.4v1.3c0.6-0.8,1.8-1.5,2.9-1.5v2.4c-0.2,0-0.4-0.1-0.7-0.1c-0.8,0-1.9,0.5-2.3,1v6.1h-2.4v-9.2
		H277.6z"/>
	<path class="st0" d="M282.6,16.2h2.6l2.4,6.4l2.4-6.4h2.6l-3.7,9.2h-2.6L282.6,16.2z"/>
	<path class="st0" d="M292.8,13.4c0-0.8,0.7-1.4,1.4-1.4c0.8,0,1.4,0.6,1.4,1.4s-0.6,1.4-1.4,1.4C293.5,14.8,292.8,14.2,292.8,13.4z
		 M293.1,16.2h2.4v9.2h-2.4V16.2z"/>
	<path class="st0" d="M301.6,16c1.9,0,3,0.8,3.6,1.7l-1.6,1.5c-0.4-0.6-1.1-1-1.9-1c-1.5,0-2.5,1.1-2.5,2.7s1,2.7,2.5,2.7
		c0.8,0,1.5-0.4,1.9-1l1.6,1.5c-0.6,0.9-1.7,1.7-3.6,1.7c-2.8,0-4.9-2-4.9-4.8C296.7,17.9,298.8,16,301.6,16z"/>
	<path class="st0" d="M310.4,16c2.7,0,4.6,2.1,4.6,5.1v0.5h-6.8c0.2,1.2,1.1,2.1,2.6,2.1c0.9,0,1.9-0.3,2.5-0.9l1.1,1.6
		c-0.9,0.8-2.4,1.3-3.8,1.3c-2.8,0-4.9-1.9-4.9-4.8C305.6,18.1,307.6,16,310.4,16z M308.1,19.9h4.5c-0.1-0.9-0.7-2-2.3-2
		C308.9,17.9,308.2,19,308.1,19.9z"/>
	<path class="st1" d="M320.9,22.4c0.8,0.9,2.2,1.8,4,1.8c2.3,0,3-1.2,3-2.2c0-1.5-1.5-1.9-3.2-2.4c-2-0.5-4.3-1.1-4.3-3.6
		c0-2.1,1.9-3.5,4.4-3.5c1.9,0,3.4,0.6,4.5,1.8l-1,1.2c-0.9-1-2.3-1.5-3.7-1.5c-1.5,0-2.6,0.8-2.6,2c0,1.3,1.5,1.7,3.1,2.1
		c2.1,0.6,4.4,1.2,4.4,3.9c0,1.8-1.3,3.7-4.7,3.7c-2.2,0-3.8-0.8-4.9-2L320.9,22.4z"/>
	<path class="st1" d="M330.7,20.8c0-2.7,1.7-4.8,4.5-4.8s4.5,2.1,4.5,4.8s-1.7,4.8-4.5,4.8C332.5,25.6,330.7,23.4,330.7,20.8z
		 M338.3,20.8c0-1.9-1.1-3.5-3-3.5c-2,0-3.1,1.7-3.1,3.5c0,1.9,1.1,3.6,3.1,3.6C337.2,24.3,338.3,22.6,338.3,20.8z"/>
	<path class="st1" d="M347.7,24.1c-0.7,0.8-1.9,1.5-3.3,1.5c-1.9,0-2.9-0.9-2.9-2.9v-6.5h1.4v6c0,1.6,0.8,2.1,2.1,2.1
		c1.1,0,2.2-0.6,2.7-1.4v-6.7h1.4v9.2h-1.4L347.7,24.1L347.7,24.1z"/>
	<path class="st1" d="M351.7,23.4v-6h-1.5v-1.3h1.5v-2.5h1.4v2.5h1.9v1.3h-1.9v5.7c0,0.7,0.3,1.2,0.9,1.2c0.4,0,0.8-0.2,1-0.4
		l0.4,1.1c-0.4,0.3-0.9,0.6-1.7,0.6C352.4,25.6,351.7,24.8,351.7,23.4z"/>
	<path class="st1" d="M362.7,19.3c0-1.6-0.8-2.1-2.1-2.1c-1.1,0-2.2,0.7-2.7,1.4v6.7h-1.4V12.7h1.4v4.8c0.6-0.8,1.9-1.6,3.3-1.6
		c1.9,0,2.9,0.9,2.9,2.9v6.5h-1.4L362.7,19.3L362.7,19.3z"/>
	<path class="st1" d="M378.8,22.5h-6.4l-1.1,2.8h-1.7l5.1-12.7h2l5.1,12.7h-1.7L378.8,22.5z M372.8,21.1h5.5l-2.7-7L372.8,21.1z"/>
	<path class="st1" d="M388.6,24.1c-0.7,0.8-1.9,1.5-3.3,1.5c-1.9,0-2.9-0.9-2.9-2.9v-6.5h1.4v6c0,1.6,0.8,2.1,2.1,2.1
		c1.1,0,2.2-0.6,2.7-1.4v-6.7h1.4v9.2h-1.4L388.6,24.1L388.6,24.1z"/>
	<path class="st1" d="M392.3,23.1c0.6,0.7,1.8,1.3,3,1.3c1.4,0,2.2-0.6,2.2-1.5c0-1-1.1-1.3-2.4-1.6c-1.6-0.4-3.3-0.8-3.3-2.7
		c0-1.4,1.2-2.6,3.4-2.6c1.6,0,2.7,0.6,3.4,1.3l-0.7,1c-0.6-0.7-1.6-1.2-2.7-1.2c-1.3,0-2,0.6-2,1.4c0,0.9,1,1.2,2.2,1.5
		c1.6,0.4,3.4,0.8,3.4,2.8c0,1.5-1.2,2.8-3.6,2.8c-1.5,0-2.8-0.5-3.7-1.4L392.3,23.1z"/>
	<path class="st1" d="M400.9,23.4v-6h-1.5v-1.3h1.5v-2.5h1.4v2.5h1.9v1.3h-1.9v5.7c0,0.7,0.3,1.2,0.9,1.2c0.4,0,0.8-0.2,1-0.4
		l0.4,1.1c-0.4,0.3-0.9,0.6-1.7,0.6C401.6,25.6,400.9,24.8,400.9,23.4z"/>
	<path class="st1" d="M405.6,16.2h1.4v1.5c0.7-1,1.8-1.7,3.1-1.7v1.5c-0.2,0-0.3-0.1-0.6-0.1c-0.9,0-2.1,0.7-2.5,1.5v6.5h-1.4V16.2z
		"/>
	<path class="st1" d="M417,24.3c-0.8,0.8-1.8,1.3-3,1.3c-1.6,0-3.2-1-3.2-3c0-2.1,1.7-3,3.2-3c1.3,0,2.3,0.4,3,1.3v-1.7
		c0-1.2-1-1.9-2.3-1.9c-1.1,0-2,0.4-2.8,1.3l-0.7-1c1-1,2.2-1.5,3.7-1.5c1.9,0,3.6,0.9,3.6,3.1v6.3H417V24.3z M417,21.7
		c-0.6-0.8-1.5-1.1-2.5-1.1c-1.3,0-2.3,0.8-2.3,2s0.9,2,2.3,2c1,0,2-0.4,2.5-1.1V21.7z"/>
	<path class="st1" d="M420.7,12.7h1.4v12.7h-1.4V12.7z"/>
	<path class="st1" d="M424.2,13.7c0-0.5,0.4-1,1-1c0.5,0,1,0.4,1,1c0,0.5-0.4,1-1,1C424.6,14.6,424.2,14.2,424.2,13.7z M424.4,16.2
		h1.4v9.2h-1.4V16.2z"/>
	<path class="st1" d="M433.9,24.3c-0.8,0.8-1.8,1.3-3,1.3c-1.6,0-3.2-1-3.2-3c0-2.1,1.7-3,3.2-3c1.3,0,2.3,0.4,3,1.3v-1.7
		c0-1.2-1-1.9-2.3-1.9c-1.1,0-2,0.4-2.8,1.3l-0.7-1c1-1,2.2-1.5,3.7-1.5c1.9,0,3.6,0.9,3.6,3.1v6.3H434v-1.2H433.9z M433.9,21.7
		c-0.6-0.8-1.5-1.1-2.5-1.1c-1.3,0-2.3,0.8-2.3,2s0.9,2,2.3,2c1,0,2-0.4,2.5-1.1V21.7z"/>
</g>
</svg>
